<?xml version="1.0" standalone="no"?>
<!DOCTYPE svg PUBLIC "-//W3C//DTD SVG 20010904//EN"
 "http://www.w3.org/TR/2001/REC-SVG-20010904/DTD/svg10.dtd">
<svg version="1.0" xmlns="http://www.w3.org/2000/svg"
 width="700.000000pt" height="859.000000pt" viewBox="0 0 700.000000 859.000000"
 preserveAspectRatio="xMidYMid meet">

<g transform="translate(0.000000,859.000000) scale(0.100000,-0.100000)"
fill="#000000" stroke="none">
<path d="M2 4298 l-2 -4298 439 0 c342 0 440 3 444 13 4 9 6 9 6 0 1 -9 21
-13 66 -13 56 0 66 3 78 22 8 13 68 111 134 218 67 107 128 209 137 226 32 65
55 180 47 237 -3 22 -44 -22 -84 -90 -25 -43 -59 -97 -76 -120 -17 -23 -31
-49 -31 -57 0 -7 -7 -16 -15 -20 -8 -3 -15 -10 -15 -15 0 -18 -80 -124 -113
-152 -18 -14 -42 -29 -54 -33 -20 -6 -40 -40 -35 -58 1 -4 -5 -25 -12 -45 -8
-21 -17 -47 -20 -58 -12 -46 7 100 29 228 28 157 35 185 80 322 45 138 48 155
31 155 -37 0 -27 64 29 182 33 71 67 118 84 118 5 0 7 10 3 22 -4 17 -2 20 11
15 14 -5 17 0 17 23 0 21 5 30 16 30 12 0 15 6 10 25 -5 19 -3 23 9 19 9 -4
15 0 15 9 0 8 7 17 15 21 8 3 15 18 15 33 0 20 3 24 9 14 11 -17 32 -5 25 14
-3 7 4 23 16 35 11 11 25 43 30 71 11 59 18 72 31 63 17 -10 39 17 39 47 0 19
5 29 15 29 8 0 15 7 15 15 0 13 12 39 28 65 2 2 8 -2 13 -10 9 -13 10 -12 5 2
-3 10 -1 20 5 23 5 4 7 10 4 15 -3 5 1 23 10 39 8 17 15 39 15 50 0 15 5 19
17 15 17 -5 17 -5 1 9 -10 8 -18 21 -18 29 0 9 -7 29 -15 44 -20 38 -19 50 5
74 11 11 17 20 13 20 -4 0 0 6 9 12 9 7 19 27 22 43 6 28 4 32 -29 45 -19 7
-35 19 -35 26 0 12 31 26 63 28 9 1 37 28 62 61 46 62 52 75 35 75 -5 0 -10 8
-10 17 0 15 2 15 14 -2 11 -15 17 -17 28 -8 8 7 24 10 36 6 19 -4 22 -1 22 21
0 20 5 26 21 26 11 0 17 -4 14 -10 -9 -15 7 -12 29 5 11 8 28 15 38 15 10 0
26 4 36 9 9 6 54 25 100 44 97 41 95 45 60 -94 -19 -79 -25 -89 -44 -89 -12 0
-24 4 -26 9 -1 4 -19 11 -38 15 -51 9 -105 -22 -105 -60 0 -16 4 -32 10 -36 5
-4 -1 -16 -15 -28 l-25 -22 36 6 c32 5 38 2 42 -16 4 -15 11 -19 26 -15 12 3
21 2 21 -3 0 -4 27 -13 59 -19 53 -10 62 -10 80 6 12 10 21 27 21 39 0 12 7
28 17 35 15 13 13 14 -12 19 -47 8 -39 26 17 38 132 29 180 35 278 36 102 1
107 2 157 34 l52 34 47 -44 c26 -23 56 -51 65 -60 64 -61 263 -106 347 -79 34
12 41 11 75 -11 41 -26 46 -38 17 -38 -11 0 -20 5 -20 10 0 16 -57 12 -64 -5
-7 -20 93 -70 108 -55 15 15 23 12 29 -10 3 -11 10 -20 17 -20 6 0 8 4 5 10
-3 5 5 12 19 16 18 4 33 0 52 -15 16 -12 21 -21 13 -22 -8 0 1 -7 19 -15 30
-13 44 -34 22 -34 -6 0 -10 -8 -8 -17 2 -10 -3 -18 -12 -18 -44 -2 -100 -30
-142 -71 -27 -25 -48 -41 -48 -35 0 8 -10 6 -29 -4 -35 -18 -161 -17 -176 1
-7 9 -17 9 -35 2 -21 -9 -22 -12 -7 -15 22 -6 22 -20 0 -18 -39 4 -73 24 -67
40 7 17 -4 19 -25 6 -7 -5 -11 -13 -8 -18 8 -13 -9 -37 -22 -29 -6 4 -11 14
-11 22 0 10 -9 5 -25 -14 -14 -17 -23 -37 -19 -45 3 -8 1 -18 -5 -22 -6 -3
-16 6 -21 21 -8 21 -14 24 -22 16 -16 -16 -28 -15 -28 3 0 21 -84 13 -109 -9
-10 -9 -21 -13 -24 -10 -4 4 -20 8 -37 9 -28 2 -29 1 -23 -24 6 -23 5 -25 -10
-12 -13 10 -20 11 -31 2 -11 -9 -15 -8 -20 5 -4 9 -13 14 -21 10 -10 -3 -15 1
-15 14 0 10 -5 22 -12 26 -8 5 -9 -2 -5 -23 7 -36 -15 -78 -26 -49 -4 9 -13
16 -21 16 -7 0 -16 7 -20 15 -3 8 -12 15 -20 15 -9 0 -13 6 -10 14 4 10 -6 16
-35 21 -45 7 -56 25 -17 25 43 0 37 16 -7 17 -25 1 -44 8 -49 18 -5 8 -18 15
-29 15 -13 0 -19 6 -17 18 4 20 -45 30 -66 13 -10 -8 -16 -1 -25 31 -8 24 -31
60 -55 85 l-42 42 -36 -19 c-20 -10 -38 -16 -41 -14 -6 7 -37 -24 -55 -55 -7
-13 -12 -40 -11 -60 2 -20 0 -41 -3 -46 -8 -12 -23 -125 -19 -143 1 -8 -3 -20
-9 -27 -7 -8 -9 -24 -5 -36 4 -13 3 -19 -2 -16 -11 7 -36 -90 -27 -104 3 -6
-2 -21 -10 -34 -11 -16 -12 -25 -5 -25 8 0 8 -4 -1 -15 -6 -8 -9 -19 -5 -25 3
-5 1 -10 -5 -10 -6 0 -10 -6 -9 -12 3 -20 -12 -68 -22 -68 -5 0 -9 -9 -9 -20
0 -11 -4 -20 -10 -20 -5 0 -10 -11 -10 -24 0 -14 -7 -31 -15 -40 -8 -8 -15
-21 -15 -28 0 -12 -51 -126 -80 -180 -5 -9 -12 -40 -16 -68 -4 -28 -12 -54
-19 -57 -7 -2 -16 -21 -19 -41 -4 -20 -15 -59 -25 -87 -11 -27 -27 -74 -36
-104 -17 -55 -84 -192 -130 -266 -14 -22 -28 -47 -32 -55 -3 -8 -12 -22 -19
-30 -12 -15 -14 -20 -14 -39 0 -5 -7 -16 -15 -25 -13 -13 -32 -49 -67 -129 -7
-17 6 -18 237 -17 223 1 245 3 245 18 1 16 2 16 14 0 12 -16 36 -18 257 -17
134 0 253 4 264 9 18 8 18 9 -5 10 -23 1 -23 2 9 15 41 19 41 19 41 -2 0 -12
3 -14 11 -6 7 7 21 5 47 -8 32 -17 61 -19 238 -19 153 0 204 3 207 13 4 9 6 9
6 0 1 -7 8 -13 17 -13 8 0 12 5 9 10 -3 6 -1 10 4 10 6 0 11 -4 11 -10 0 -7
300 -10 879 -10 843 0 879 1 874 18 -2 10 -18 23 -34 29 -37 14 -38 33 -1 33
15 1 81 3 147 5 76 3 124 0 132 -7 7 -6 22 -8 33 -5 11 3 20 1 20 -4 0 -5 -11
-9 -24 -9 -14 0 -28 -5 -32 -11 -3 -6 -20 -19 -38 -30 -31 -19 -18 -19 1157
-19 l1187 0 0 961 c0 637 -3 958 -10 954 -6 -3 -10 1 -10 9 0 9 5 16 10 16 6
0 10 121 10 344 l0 345 -27 14 c-16 8 -64 35 -108 61 -44 26 -96 51 -116 56
-47 13 -90 47 -83 65 4 11 12 12 32 4 14 -6 37 -8 49 -4 36 9 63 -11 63 -46 0
-25 6 -33 36 -45 26 -11 40 -12 47 -5 17 17 46 13 78 -10 l29 -20 0 1475 0
1476 -27 0 c-14 0 -35 7 -45 17 -17 15 -23 15 -76 1 -83 -23 -192 -12 -221 22
-11 14 -20 28 -21 31 -1 17 96 79 123 79 16 0 47 13 70 30 23 16 75 38 117 48
l75 19 3 88 c2 57 -1 92 -9 101 -9 11 -9 18 -1 26 9 9 12 324 12 1245 l0 1233
-314 0 c-268 0 -315 -2 -320 -15 -3 -8 -24 -18 -47 -21 -49 -8 -79 -34 -79
-68 0 -48 -40 -67 -97 -45 -19 7 -29 7 -31 0 -2 -6 -11 -11 -20 -11 -12 0 -13
3 -5 11 8 8 7 15 -4 27 -7 10 -22 28 -32 42 -18 23 -21 24 -45 10 -15 -7 -29
-25 -32 -39 -9 -43 -20 -56 -50 -59 -47 -6 -53 -16 -36 -67 15 -48 26 -53 58
-31 11 8 52 18 90 21 l71 7 31 -33 c25 -27 31 -41 28 -66 -3 -18 1 -34 7 -36
19 -6 -3 -27 -29 -27 -15 0 -24 -6 -24 -15 0 -9 8 -14 23 -12 18 2 23 -4 25
-27 5 -41 -12 -52 -32 -22 -23 36 -35 32 -42 -15 -5 -29 -13 -43 -28 -49 -12
-4 -28 -15 -34 -23 -18 -21 -87 -31 -121 -18 -17 8 -32 25 -40 46 -7 19 -18
36 -24 36 -7 1 -16 2 -22 4 -5 1 -14 3 -20 3 -5 1 2 13 17 27 25 23 47 71 37
79 -2 2 -23 6 -46 10 l-42 6 -38 -57 c-40 -61 -66 -73 -71 -35 -4 30 -42 29
-70 -1 -17 -18 -22 -36 -22 -76 0 -42 -5 -57 -25 -77 -32 -32 -31 -45 4 -76
16 -15 31 -32 33 -40 4 -11 11 -11 40 0 19 6 41 12 49 12 8 0 32 20 54 44 22
25 51 46 64 48 22 3 26 -3 38 -47 17 -63 18 -132 3 -150 -18 -21 -44 -19 -101
11 -28 14 -58 23 -66 19 -9 -3 -27 2 -40 11 -29 18 -33 16 -53 -39 -19 -51
-53 -60 -99 -26 -26 19 -35 20 -68 12 -46 -12 -79 -2 -87 25 -10 30 -37 49
-82 56 l-41 6 6 -37 c5 -32 11 -38 45 -47 38 -11 48 -21 60 -58 3 -11 15 -18
31 -18 14 0 34 -9 46 -21 18 -18 20 -29 15 -77 -3 -32 -8 -78 -10 -104 -6 -60
-13 -71 -40 -64 -48 12 -63 -2 -68 -62 -4 -40 -10 -59 -23 -67 -36 -20 -95
-78 -95 -92 0 -12 10 -13 54 -8 53 7 55 6 70 -23 8 -16 28 -35 45 -41 61 -26
65 -108 6 -141 -16 -9 -36 -29 -44 -45 -12 -25 -12 -33 1 -55 10 -18 12 -34 6
-49 -7 -20 -13 -22 -41 -18 -83 15 -98 21 -109 41 -6 11 -20 31 -31 43 -24 27
-57 116 -57 154 0 21 -5 27 -24 27 -13 0 -33 9 -45 21 -22 22 -28 37 -11 26 6
-4 10 10 10 34 0 22 4 42 9 45 14 9 0 59 -25 89 -13 16 -24 33 -24 37 0 22
-68 84 -122 111 l-58 29 0 59 c0 58 -1 61 -39 87 -21 16 -42 37 -47 48 -5 12
-28 32 -52 45 -50 27 -72 62 -52 86 10 12 9 23 -8 57 -11 24 -30 51 -41 60
-12 10 -21 27 -21 38 0 27 35 60 63 60 27 0 67 34 67 56 0 13 8 14 39 9 39 -6
40 -6 59 39 24 53 53 65 113 47 44 -13 59 -9 59 19 0 53 38 65 105 33 31 -15
37 -15 45 -3 14 22 12 51 -6 71 -29 32 -29 92 -1 144 l26 46 -34 -7 c-49 -9
-85 2 -85 26 0 11 -10 25 -22 31 -13 6 -36 23 -51 38 -24 22 -29 23 -37 11 -5
-8 -10 -22 -10 -31 0 -19 -37 -54 -67 -63 -15 -5 -28 -1 -42 13 -24 24 -18 54
17 81 l25 20 -288 0 c-248 0 -291 -2 -306 -16 -16 -14 -20 -14 -48 0 -22 12
-59 16 -136 16 l-105 0 0 -50 c0 -36 4 -50 14 -50 7 0 19 -6 25 -14 14 -17
-10 -46 -37 -46 -20 -1 -51 -25 -74 -58 -13 -19 -14 -31 -5 -63 20 -81 -26
-113 -100 -68 -18 12 -41 19 -51 16 -9 -3 -32 -10 -50 -16 -40 -12 -61 6 -81
73 -14 50 -68 106 -101 106 -43 0 -18 32 43 55 34 13 47 23 47 37 0 11 5 28
10 38 12 22 76 38 92 22 12 -12 118 -4 133 9 5 5 -65 9 -165 9 l-175 0 3 -55
c6 -93 -41 -115 -98 -47 -25 30 -30 43 -26 70 4 26 1 32 -14 32 -12 0 -27 -17
-44 -52 -15 -29 -37 -71 -50 -93 -13 -22 -27 -51 -31 -63 -6 -22 -5 -23 15
-12 11 6 35 10 53 8 27 -2 32 -7 32 -28 0 -47 -93 -70 -112 -27 -9 19 -17 22
-69 20 -62 -1 -145 -15 -204 -32 -19 -6 -52 -11 -73 -11 -27 0 -44 -7 -60 -24
-29 -30 -82 -39 -321 -49 -113 -5 -117 -7 -144 -54 -6 -9 -24 -9 -77 -1 -39 6
-76 12 -82 14 -24 6 -13 39 22 64 42 31 46 46 23 90 -10 19 -18 42 -18 51 0
24 -19 36 -69 42 -24 3 -57 15 -72 26 -22 17 -37 20 -68 15 -32 -5 -43 -2 -61
16 -18 18 -21 30 -17 61 l5 39 -228 0 -229 0 -3 -27 c-4 -37 -53 -63 -75 -40
-8 8 -16 26 -16 41 l-2 26 -460 0 c-317 -1 -455 -4 -442 -11 11 -7 17 -22 17
-49 0 -69 -58 -109 -127 -86 -19 6 -23 4 -23 -12 0 -11 -6 -23 -12 -25 -10 -4
-10 -8 1 -15 17 -12 4 -35 -15 -28 -17 7 -64 -13 -64 -27 0 -6 -15 -29 -32
-53 -37 -49 -70 -57 -109 -25 -23 18 -24 26 -29 178 -4 87 -7 -1776 -8 -4139z
m6353 4222 c-6 -9 -9 -9 -16 1 -10 17 0 34 13 21 6 -6 7 -16 3 -22z m-5297
-37 c2 -18 7 -33 13 -33 5 0 9 -9 9 -19 0 -11 8 -27 17 -36 15 -16 18 -15 34
7 16 21 19 22 34 7 23 -22 9 -49 -25 -49 -16 0 -32 5 -35 10 -3 6 -15 10 -25
10 -10 0 -27 11 -37 23 -10 13 -28 29 -41 36 -44 23 -21 80 32 77 16 -1 22 -8
24 -33z m3248 12 c4 -8 4 -22 0 -30 -4 -12 -10 -13 -31 -3 -37 17 -32 48 7 48
10 0 21 -7 24 -15z m178 -7 c25 -36 20 -56 -20 -73 -20 -8 -45 -15 -55 -15
-37 0 -47 60 -17 98 18 21 75 15 92 -10z m-2956 -60 c-2 -17 -11 -36 -20 -42
-44 -27 -79 48 -37 78 32 22 61 4 57 -36z m-725 4 c37 -33 9 -142 -36 -142 -7
0 -28 -11 -47 -25 -45 -33 -58 -32 -114 11 -43 32 -47 39 -44 72 3 32 9 40 48
61 92 49 154 56 193 23z m4098 -42 c10 -6 25 -23 33 -39 18 -34 10 -48 -44
-80 -95 -57 -164 17 -91 97 31 33 66 41 102 22z m-818 -80 c8 -61 -1 -75 -37
-59 -19 9 -30 10 -34 2 -4 -5 -28 -13 -54 -16 -43 -6 -48 -5 -48 13 0 11 3 20
8 20 4 0 36 25 72 55 73 62 84 61 93 -15z m-2523 -6 c0 -3 -5 -14 -11 -25 -8
-16 -13 -18 -25 -8 -14 12 -19 41 -8 52 7 7 44 -10 44 -19z m-359 -21 c16 -42
-11 -93 -48 -93 -35 1 -73 32 -73 59 0 24 53 61 88 61 15 0 26 -9 33 -27z
m1849 17 c0 -5 -8 -10 -17 -10 -15 0 -16 2 -3 10 19 12 20 12 20 0z m345 -8
c-3 -3 -11 0 -18 7 -9 10 -8 11 6 5 10 -3 15 -9 12 -12z m-3065 -52 c62 -44
77 -153 33 -240 -25 -47 -33 -55 -73 -67 -25 -7 -55 -11 -67 -8 -26 6 -53 31
-53 50 0 22 50 75 71 75 28 0 34 27 15 66 -22 47 -21 120 2 133 25 15 41 13
72 -9z m1100 -51 l0 -51 32 6 c18 3 43 14 57 24 37 24 59 23 120 -5 59 -28 91
-55 91 -78 0 -25 -74 -54 -152 -60 -40 -3 -97 -8 -126 -11 -47 -5 -57 -3 -78
17 -13 12 -24 26 -24 31 0 5 -9 22 -21 37 -14 19 -19 36 -15 49 10 30 75 92
97 92 16 0 19 -8 19 -51z m2723 2 c22 -48 22 -53 -6 -79 -31 -29 -50 -15 -53
40 -4 80 29 103 59 39z m-3499 -1 c20 -7 26 -16 26 -40 0 -47 25 -49 69 -6 40
39 74 46 107 22 19 -15 18 -16 -15 -81 -32 -63 -48 -77 -113 -99 -18 -5 -25
-26 -10 -26 4 0 27 -18 51 -40 23 -22 46 -40 51 -40 12 0 22 -30 25 -72 2 -36
1 -38 -27 -38 -37 0 -88 -48 -88 -84 0 -14 -9 -49 -20 -77 -12 -28 -19 -54
-16 -56 10 -11 -28 -112 -60 -160 l-35 -51 31 -67 c24 -51 30 -77 28 -113 l-3
-47 -55 -7 c-30 -3 -75 -9 -100 -13 -25 -4 -63 -2 -86 4 -35 9 -44 18 -63 60
-16 34 -21 57 -17 78 6 26 2 35 -25 59 -64 58 -77 75 -89 120 -11 38 -19 49
-49 61 -34 15 -36 14 -56 -11 -11 -14 -28 -26 -37 -26 -9 0 -19 -4 -22 -9 -3
-5 -15 -11 -26 -14 -19 -5 -20 0 -20 79 l0 84 35 0 c21 0 35 5 35 13 0 7 9 18
20 25 12 7 25 23 30 37 15 38 43 48 73 25 14 -11 34 -20 45 -20 11 0 36 -7 55
-15 20 -8 44 -12 54 -9 35 11 63 27 63 36 0 5 9 18 19 29 18 20 21 20 48 6 15
-8 43 -21 61 -27 29 -12 35 -11 56 9 13 13 39 30 57 39 19 9 35 24 37 34 2 9
-11 41 -28 72 -25 44 -37 56 -56 56 -37 0 -114 81 -114 120 0 34 38 80 65 80
14 0 15 8 9 45 -6 41 -4 46 17 54 31 13 33 13 63 1z m1337 -25 c19 -13 49 -31
67 -39 21 -10 32 -22 32 -35 0 -18 -6 -21 -47 -21 -26 0 -61 -5 -80 -12 -18
-6 -36 -9 -39 -5 -15 15 -13 106 2 122 20 20 25 19 65 -10z m2425 -55 c52 -37
58 -68 17 -99 -38 -31 -69 -36 -98 -17 -21 14 -25 24 -25 63 0 48 20 83 47 83
8 0 34 -14 59 -30z m-2245 -58 c12 -5 14 -13 8 -29 -5 -13 -13 -23 -18 -23
-10 0 -41 39 -41 52 0 10 29 9 51 0z m4334 -22 c0 -8 -8 -16 -17 -18 -13 -2
-18 3 -18 18 0 15 5 20 18 18 9 -2 17 -10 17 -18z m-2225 -47 c0 -13 -3 -13
-15 -3 -8 7 -12 16 -9 21 8 13 24 1 24 -18z m2085 -37 c21 -31 5 -66 -28 -66
-44 0 -62 43 -31 74 22 23 41 20 59 -8z m-5004 -16 c27 -15 25 -58 -3 -69 -39
-15 -107 32 -94 64 6 18 67 21 97 5z m5159 -62 c-1 -18 -7 -46 -15 -63 l-13
-30 -1 28 c-1 16 -6 37 -12 48 -7 15 -7 24 2 35 21 25 39 17 39 -18z m313 7
c33 -32 29 -115 -5 -115 -24 0 -78 63 -78 90 0 15 3 30 7 33 12 13 61 7 76 -8z
m-159 -11 c27 -10 18 -31 -14 -36 -35 -5 -47 6 -30 27 14 17 21 18 44 9z
m-5409 -116 c5 -20 22 -46 37 -58 23 -18 26 -25 18 -41 -15 -27 -40 -24 -88
12 -47 34 -58 61 -43 103 9 22 16 27 38 24 22 -2 30 -10 38 -40z m4925 12 c15
-28 5 -55 -25 -68 -31 -14 -72 1 -81 30 -15 48 82 83 106 38z m292 -32 c-9 -9
-12 -7 -12 12 0 19 3 21 12 12 9 -9 9 -15 0 -24z m325 -50 c-3 -7 -5 -2 -5 12
0 14 2 19 5 13 2 -7 2 -19 0 -25z m-5437 -8 c8 -5 11 -12 8 -16 -10 -9 -38 3
-38 16 0 12 10 13 30 0z m108 -22 c17 -17 15 -48 -3 -48 -17 0 -39 36 -30 50
8 13 18 13 33 -2z m32 -4 c0 -8 -4 -12 -10 -9 -5 3 -10 10 -10 16 0 5 5 9 10
9 6 0 10 -7 10 -16z m4485 -19 c126 0 145 -11 145 -84 0 -59 29 -90 66 -71 12
7 34 10 49 6 22 -6 26 -11 23 -39 -3 -30 -6 -32 -38 -31 -19 1 -44 3 -54 5
-16 3 -22 -4 -28 -38 -6 -29 -15 -44 -29 -48 -40 -13 -62 32 -38 78 10 18 7
25 -27 54 -44 37 -95 43 -145 17 -17 -8 -47 -14 -67 -12 -33 3 -37 7 -40 32
-3 23 3 34 28 54 29 23 30 25 13 38 -10 7 -26 14 -37 14 -16 0 -17 2 -5 16 20
24 52 33 68 20 8 -6 56 -11 116 -11z m-231 -1 c22 -8 20 -37 -3 -58 -11 -10
-23 -31 -26 -46 -9 -41 -62 -110 -84 -110 -31 0 -55 102 -32 138 10 17 102 80
118 81 6 1 18 -2 27 -5z m-246 -96 c24 -24 8 -78 -24 -78 -15 0 -44 27 -44 41
0 11 37 49 48 49 4 0 13 -5 20 -12z m886 -14 c9 -8 16 -31 16 -49 0 -19 5 -37
10 -40 20 -12 11 -55 -15 -67 -32 -14 -55 3 -55 42 0 15 -7 33 -15 40 -30 25
-8 90 30 90 7 0 21 -7 29 -16z m-5618 -29 c-1 -14 -5 -28 -9 -31 -11 -11 -47
8 -47 25 0 23 9 31 36 31 18 0 22 -5 20 -25z m792 -108 c12 -11 22 -26 22 -34
0 -7 5 -13 10 -13 6 0 10 -7 10 -15 0 -8 9 -15 20 -15 32 0 80 -29 80 -48 0
-9 -7 -50 -17 -89 -9 -40 -14 -75 -11 -79 14 -13 72 -6 84 10 8 11 14 13 19 7
11 -18 31 -12 45 13 7 13 21 27 32 30 20 5 25 3 86 -27 40 -20 133 -22 216 -6
52 11 58 10 71 -7 13 -18 15 -18 27 -2 19 25 145 14 153 -13 4 -12 16 -19 31
-19 17 0 24 -5 24 -20 0 -11 4 -20 9 -20 14 0 20 -50 7 -58 -22 -13 -70 -106
-58 -110 7 -2 12 -12 12 -23 0 -20 -47 -49 -68 -42 -8 3 -12 -1 -11 -8 4 -18
-23 -59 -38 -59 -8 0 -10 -11 -6 -34 3 -21 1 -36 -7 -41 -7 -5 -11 -4 -8 1 3
5 2 18 -2 29 -7 18 -9 17 -19 -10 -12 -31 -63 -68 -84 -60 -6 3 -20 -6 -30
-19 -11 -14 -25 -22 -33 -19 -8 3 -14 1 -14 -5 0 -13 -106 -34 -195 -39 -38
-2 -77 -7 -85 -10 -8 -3 -21 -5 -28 -4 -7 1 -15 -5 -18 -14 -4 -9 -13 -14 -20
-11 -9 3 -16 -4 -20 -19 -7 -28 -30 -40 -38 -19 -9 22 -25 16 -32 -12 -4 -15
-12 -23 -20 -20 -9 3 -15 -6 -20 -29 -3 -19 -5 -38 -3 -41 2 -4 -6 -11 -19
-15 -13 -5 -21 -13 -18 -18 13 -21 -41 -38 -60 -19 -3 4 -12 4 -20 1 -8 -3
-25 4 -38 16 l-23 22 -12 -29 c-7 -16 -23 -39 -37 -51 -18 -16 -24 -31 -24
-64 0 -39 4 -47 41 -77 23 -18 53 -52 68 -75 l27 -42 28 24 c24 20 37 23 85
21 42 -2 56 -7 56 -18 0 -11 -16 -17 -63 -21 -55 -5 -67 -10 -88 -35 -22 -27
-23 -27 -24 -8 0 32 -78 142 -112 160 -28 14 -43 16 -122 13 -28 -1 -28 -2
-24 -50 4 -43 3 -49 -13 -49 -14 0 -19 7 -19 25 0 34 -25 32 -38 -2 -23 -62
-42 -131 -50 -183 -7 -54 -8 -55 -37 -52 -17 2 -38 12 -48 23 -22 23 -40 24
-72 3 -16 -10 -51 -16 -114 -17 -53 -1 -91 -6 -92 -12 -1 -15 -17 28 -18 48
-1 10 7 21 17 24 25 9 32 23 32 65 0 49 12 77 49 115 37 39 39 51 7 63 -14 5
-30 18 -36 30 -6 11 -19 20 -29 20 -31 0 -30 10 5 78 39 77 42 104 14 139 -28
36 -25 57 11 87 34 29 65 39 100 34 23 -3 24 -6 21 -80 -3 -54 0 -78 8 -78 17
0 60 47 60 65 0 9 10 46 22 83 12 37 23 73 24 80 6 23 46 12 86 -23 41 -38 41
-38 187 -36 49 1 75 -5 114 -25 48 -24 52 -24 64 -8 21 29 55 127 55 157 0 15
13 54 29 87 16 32 29 66 29 74 0 18 -25 22 -35 6 -6 -10 -71 12 -89 30 -5 5
-1 38 10 79 21 82 12 109 -25 72 -23 -23 -52 -27 -83 -10 -16 9 -24 7 -44 -12
l-23 -22 28 -33 c16 -18 34 -49 41 -69 8 -23 21 -40 37 -46 19 -7 23 -14 18
-30 -4 -12 2 -38 14 -64 28 -59 27 -89 -4 -109 -34 -23 -40 -21 -95 25 -40 33
-55 41 -79 37 -23 -3 -32 0 -37 14 -6 21 -14 22 -63 7 -31 -9 -42 -7 -81 14
-42 22 -45 26 -48 70 -3 41 0 48 25 64 16 11 47 18 78 19 72 1 95 11 95 39 0
31 -13 38 -43 24 -22 -10 -33 -7 -87 27 -34 21 -66 46 -71 56 -14 26 11 64 57
85 32 16 35 16 62 -4 26 -19 31 -20 61 -7 18 8 53 14 76 14 52 0 75 8 75 25 0
8 9 17 20 20 14 4 20 15 20 34 0 35 19 52 48 44 24 -6 29 6 10 25 -25 25 -49
167 -31 185 7 8 66 -26 101 -56z m3963 11 c30 -55 29 -88 -4 -154 -20 -40 -37
-64 -48 -64 -28 0 -109 95 -109 127 1 40 21 70 60 93 48 26 86 26 101 -2z
m-5513 -32 c1 -19 -3 -38 -8 -41 -6 -4 -10 13 -10 40 0 53 16 54 18 1z m1252
-26 c33 -32 50 -100 26 -100 -8 0 -16 6 -19 14 -3 8 -21 17 -39 21 -35 7 -88
25 -88 31 0 2 5 14 11 28 8 17 22 26 43 29 17 2 32 5 33 5 1 1 16 -11 33 -28z
m4538 4 c33 -23 29 -69 -8 -104 -39 -36 -38 -47 5 -52 45 -5 54 1 79 54 17 34
27 44 49 46 17 2 36 -3 47 -13 10 -9 35 -21 56 -27 92 -25 87 -51 -30 -163
-52 -50 -108 -100 -125 -113 -33 -25 -38 -41 -19 -60 8 -8 18 -7 40 5 39 24
52 9 42 -53 -5 -36 -15 -56 -38 -77 -51 -47 -60 -54 -91 -70 -16 -8 -43 -27
-58 -41 -43 -39 -73 -34 -124 22 -46 50 -53 84 -18 90 28 6 45 21 45 43 0 20
35 44 50 34 6 -3 10 -15 10 -26 0 -14 7 -19 30 -19 27 0 30 3 30 34 0 18 -9
55 -21 81 -15 35 -21 67 -20 116 1 91 -10 119 -48 119 -52 0 -79 16 -86 51 -6
28 -3 36 19 56 19 16 34 21 55 17 23 -5 32 -2 40 14 15 28 40 52 54 52 7 0 23
-7 35 -16z m511 -58 c11 -20 9 -32 -13 -88 -14 -35 -26 -72 -26 -82 0 -9 -11
-28 -25 -42 -14 -14 -33 -36 -41 -50 -13 -19 -24 -23 -56 -22 -32 1 -44 -4
-68 -30 -28 -32 -81 -44 -94 -23 -8 12 30 58 54 66 15 5 20 15 20 43 0 46 8
59 40 63 19 3 32 18 56 64 29 57 98 125 128 125 7 0 18 -11 25 -24z m-4504
-26 c3 -5 -2 -26 -11 -47 -15 -37 -16 -37 -27 -15 -17 36 18 94 38 62z m22
-72 c-3 -7 -5 -2 -5 12 0 14 2 19 5 13 2 -7 2 -19 0 -25z m4928 -135 c18 -19
38 -28 59 -28 28 0 31 -3 29 -29 -3 -43 -21 -54 -91 -60 -61 -5 -65 -3 -99 28
-61 55 -41 115 38 116 26 0 44 -7 64 -27z m-1094 -14 c34 -37 36 -55 8 -89
l-21 -25 -28 33 c-45 54 -55 79 -40 97 20 24 49 18 81 -16z m827 -11 c3 -14
-3 -18 -27 -18 -31 0 -47 13 -36 31 11 16 59 6 63 -13z m-6025 -88 c25 0 45
-34 50 -85 3 -27 6 -51 6 -52 1 -2 15 -3 31 -3 17 0 33 -6 36 -14 3 -8 18 -19
34 -26 16 -7 31 -18 34 -26 7 -18 -62 -74 -91 -74 -27 0 -56 28 -49 47 3 8 -1
31 -10 51 -9 20 -17 43 -18 49 -3 18 -38 42 -53 36 -7 -3 -16 3 -20 13 -3 11
-22 37 -41 58 -32 36 -34 40 -17 52 15 11 24 10 56 -6 21 -11 44 -20 52 -20z
m147 0 c0 -25 -4 -30 -25 -30 -20 0 -25 5 -25 23 0 28 7 37 32 37 13 0 18 -8
18 -30z m5591 10 c27 -15 24 -48 -7 -62 -22 -10 -28 -10 -39 6 -14 19 -10 45
9 58 14 10 14 10 37 -2z m-6152 -25 c2 -11 11 -25 20 -32 9 -7 12 -13 6 -12
-5 1 -18 -1 -27 -5 -22 -10 -58 10 -58 32 0 41 51 55 59 17z m5499 -27 c2 -36
-2 -54 -19 -77 -29 -39 -42 -43 -77 -26 -36 18 -53 55 -45 97 9 52 20 59 82
56 l56 -3 3 -47z m-5309 13 c15 -10 18 -68 3 -83 -14 -14 -66 -26 -86 -19 -21
8 -47 63 -37 79 16 26 92 40 120 23z m2401 -1 c0 -5 -2 -10 -4 -10 -3 0 -8 5
-11 10 -3 6 -1 10 4 10 6 0 11 -4 11 -10z m307 -32 c-3 -8 -6 -5 -6 6 -1 11 2
17 5 13 3 -3 4 -12 1 -19z m-162 -8 c3 -5 1 -10 -4 -10 -6 0 -11 5 -11 10 0 6
2 10 4 10 3 0 8 -4 11 -10z m265 -76 c0 -10 -10 -13 -32 -12 -28 3 -34 -1 -36
-20 -4 -27 -30 -41 -42 -23 -9 16 43 68 73 73 28 5 37 1 37 -18z m-290 6 c0
-5 -2 -10 -4 -10 -3 0 -8 5 -11 10 -3 6 -1 10 4 10 6 0 11 -4 11 -10z m425
-44 c16 4 33 -1 50 -14 15 -12 33 -18 41 -15 9 3 14 -1 14 -12 0 -9 11 -30 25
-47 30 -36 31 -48 6 -48 -11 0 -23 -4 -26 -10 -3 -5 -1 -10 6 -10 8 0 7 -6 -3
-17 -9 -10 -19 -28 -22 -40 -5 -14 -15 -23 -27 -23 -10 0 -19 -5 -19 -10 0 -6
-11 -15 -24 -21 -14 -7 -22 -17 -19 -25 10 -26 -34 -15 -52 12 -13 21 -19 24
-26 13 -6 -10 -11 -5 -20 19 -9 27 -15 32 -33 27 -20 -6 -20 -5 -3 8 12 10 16
22 12 40 -5 17 -2 26 8 30 10 4 13 13 10 26 -4 14 -1 21 10 21 13 0 28 26 31
55 1 6 -8 10 -19 10 -11 1 -26 4 -33 9 -8 5 -20 2 -31 -8 -17 -16 -41 -22 -41
-10 0 3 4 14 10 24 8 15 20 18 69 16 54 -2 58 -1 53 18 -4 20 -4 20 12 -2 13
-16 23 -21 41 -16z m2368 -81 c11 -7 34 -38 53 -67 46 -71 43 -96 -18 -128
-66 -36 -95 -66 -112 -117 -14 -41 -12 -103 3 -103 19 0 41 29 51 67 6 24 20
52 32 63 l22 20 24 -23 c35 -33 25 -79 -32 -134 -50 -48 -70 -53 -86 -22 -9
16 -17 19 -38 14 -15 -4 -49 -9 -77 -10 -31 -2 -68 -12 -98 -28 -40 -22 -52
-24 -77 -15 -17 5 -30 13 -30 18 0 4 -20 28 -44 54 -40 43 -44 53 -50 115 -7
67 -6 68 25 99 27 26 32 39 33 79 l1 48 53 3 c48 3 53 1 62 -22 9 -24 12 -25
62 -19 63 7 142 52 164 94 16 32 47 38 77 14z m-2513 -31 c0 -8 -4 -12 -10 -9
-5 3 -10 10 -10 16 0 5 5 9 10 9 6 0 10 -7 10 -16z m-2809 -34 c14 0 11 -64
-4 -84 -9 -12 -20 -16 -33 -12 -21 6 -50 46 -34 46 5 0 10 11 10 24 0 25 15
37 38 30 8 -2 18 -4 23 -4z m6309 -35 c0 -8 -7 -15 -15 -15 -16 0 -20 12 -8
23 11 12 23 8 23 -8z m-2705 -35 c3 -5 1 -10 -4 -10 -6 0 -11 5 -11 10 0 6 2
10 4 10 3 0 8 -4 11 -10z m-1915 -102 c0 -15 5 -30 12 -34 8 -5 9 -2 5 11 -8
19 10 48 24 40 4 -3 5 -13 2 -22 -5 -12 -3 -14 6 -8 15 8 31 -10 31 -36 0 -12
-7 -14 -30 -11 -28 4 -39 -6 -23 -22 11 -11 12 -96 2 -96 -5 0 -8 -8 -7 -17 1
-10 0 -31 -1 -48 -2 -38 -16 -17 -24 38 -5 30 -3 37 11 38 15 1 15 2 1 6 -21
5 -35 71 -20 86 17 17 13 31 -4 17 -12 -10 -17 -8 -26 13 -10 21 -8 33 6 63
19 40 35 32 35 -18z m96 14 c43 -37 88 -115 110 -190 14 -49 21 -61 33 -57 36
14 71 17 71 6 0 -6 7 -11 15 -11 8 0 15 -4 15 -10 0 -5 -7 -10 -15 -10 -8 0
-15 -4 -15 -9 0 -6 -20 -13 -45 -17 -44 -6 -56 -16 -35 -29 14 -9 13 -82 -2
-91 -24 -15 -88 -22 -88 -9 0 7 18 15 40 19 l40 6 -6 43 c-18 128 -78 289
-126 340 -21 22 -38 42 -38 44 0 9 18 -1 46 -25z m-1026 -1 c0 -6 -4 -13 -10
-16 -5 -3 -10 1 -10 9 0 9 5 16 10 16 6 0 10 -4 10 -9z m5940 -6 c0 -16 -43
-31 -59 -20 -25 15 -11 35 24 35 24 0 35 -5 35 -15z m-6388 -55 c0 -5 1 -16 2
-22 1 -7 9 -19 19 -26 27 -21 22 -61 -10 -73 -40 -15 -57 0 -66 61 -7 40 -6
55 5 61 18 12 48 11 50 -1z m-32 -196 c0 -11 -14 -35 -32 -53 -28 -29 -37 -32
-71 -28 -51 7 -87 41 -87 81 0 49 13 58 81 65 60 6 65 5 86 -19 12 -14 22 -34
23 -46z m2885 66 c-33 -14 -901 -71 -1045 -68 l-85 1 115 9 c672 55 1059 77
1015 58z m2333 -22 c14 -18 9 -143 -7 -162 -9 -10 -29 -16 -56 -16 -74 0 -98
56 -40 94 15 10 25 26 25 41 0 13 10 31 22 39 27 19 42 20 56 4z m882 -50 c10
-24 15 -47 11 -51 -15 -15 -43 -3 -64 25 -20 27 -20 28 -2 48 26 29 34 25 55
-22z m-3321 18 c22 -8 31 -15 23 -20 -14 -9 -16 -46 -2 -46 5 0 7 -6 4 -14 -3
-8 -1 -17 5 -21 7 -4 11 6 11 25 0 21 4 30 13 27 6 -2 11 -12 9 -21 -2 -11 5
-20 19 -23 l23 -6 -22 -8 c-28 -10 -29 -33 -2 -26 26 7 50 -30 25 -39 -20 -8
-19 -41 3 -53 15 -8 15 -13 4 -31 -14 -22 -8 -60 9 -60 6 0 7 -5 3 -11 -4 -8
0 -9 15 -4 23 7 28 -4 9 -23 -20 -20 2 -13 24 8 19 17 19 20 5 20 -18 0 -20
13 -7 45 7 19 8 19 15 2 7 -16 9 -15 21 9 8 14 14 34 14 43 0 11 9 16 33 16
26 0 33 -4 35 -23 2 -12 8 -20 13 -17 12 8 12 -22 -1 -45 -8 -16 -7 -18 4 -14
11 4 13 -3 10 -39 -4 -35 -2 -46 12 -51 12 -5 14 -13 10 -32 -6 -24 -5 -26 14
-21 12 3 19 3 16 0 -3 -3 1 -12 9 -20 17 -16 11 -87 -8 -111 -8 -10 -7 -16 7
-24 13 -7 15 -13 6 -23 -7 -8 -9 -19 -5 -26 4 -6 3 -14 -3 -18 -14 -8 -21
-151 -9 -151 5 0 5 -6 -1 -13 -6 -7 -10 -26 -9 -42 1 -15 -4 -30 -11 -32 -8
-3 -11 3 -10 18 3 26 -52 64 -64 45 -14 -20 -9 -38 8 -32 12 5 15 2 10 -9 -4
-10 -2 -14 5 -9 6 4 15 1 19 -7 6 -8 1 -16 -12 -23 -12 -6 -30 -27 -41 -46
-11 -19 -24 -38 -30 -42 -12 -7 -15 -103 -5 -133 7 -17 3 -20 -23 -21 -17 -1
-38 -9 -47 -19 -16 -17 -16 -17 1 -12 20 7 20 7 7 -27 -8 -21 -7 -26 6 -26 12
0 15 -7 12 -25 -3 -14 -1 -25 5 -25 5 0 7 -13 4 -29 -4 -19 -2 -31 6 -34 7 -2
8 -8 4 -13 -11 -11 -26 15 -27 46 -1 19 -6 12 -22 -27 -11 -29 -25 -50 -30
-47 -6 4 -14 0 -19 -7 -6 -9 -9 -10 -9 -2 0 7 8 17 18 22 16 10 16 10 0 11 -9
0 -21 -7 -26 -16 -8 -15 -10 -15 -15 0 -4 10 -12 13 -23 9 -12 -4 -15 -3 -10
5 4 7 2 12 -3 12 -20 0 -26 -5 -23 -17 2 -9 -4 -10 -20 -4 -19 7 -22 14 -20
46 3 33 2 36 -16 31 -16 -5 -22 0 -31 25 -6 18 -13 30 -16 27 -8 -7 6 -68 16
-68 4 0 15 -14 23 -32 19 -37 19 -38 6 -38 -5 0 -10 7 -10 15 0 8 -6 15 -13
15 -7 0 -18 12 -24 28 -11 27 -11 27 -18 5 l-7 -23 -20 26 c-11 14 -27 23 -34
20 -8 -3 -14 1 -14 9 0 8 5 15 10 15 11 0 14 33 3 43 -3 4 -11 -1 -18 -10 -7
-9 -17 -13 -24 -9 -9 6 -9 11 -1 21 8 10 8 19 0 34 -16 32 -33 26 -25 -9 4
-19 3 -30 -4 -30 -6 0 -11 7 -11 15 0 8 -6 24 -12 35 -11 17 -10 22 1 29 18
12 7 27 -34 47 -23 11 -36 25 -40 45 -4 16 -13 29 -21 29 -18 0 -18 -9 3 -32
9 -10 13 -21 9 -25 -9 -10 -25 15 -33 50 -3 15 -9 27 -13 27 -9 0 -9 32 0 45
12 16 5 50 -15 81 -11 16 -18 39 -16 52 2 16 -3 22 -18 22 -12 0 -21 5 -21 10
0 6 11 10 25 10 16 0 25 6 25 15 0 18 -41 20 -58 3 -9 -9 -12 -7 -12 9 0 11
-18 41 -40 66 -22 25 -40 50 -40 56 0 6 -9 11 -20 11 -35 0 -100 36 -100 55 0
4 11 4 24 1 23 -6 24 -4 20 35 -4 31 -2 40 8 37 7 -3 12 -16 10 -29 l-2 -24
14 25 c20 32 20 40 0 40 -11 0 -14 5 -10 16 3 9 6 20 6 25 0 6 13 15 29 20 15
6 33 20 39 33 8 18 22 25 56 30 30 5 51 15 61 29 13 19 17 20 25 7 9 -13 10
-13 10 1 0 29 40 61 67 54 18 -4 29 0 43 17 11 13 19 29 20 36 0 7 5 10 10 7
16 -10 25 25 12 46 -10 15 -7 23 16 44 15 14 37 25 49 25 12 0 25 5 28 10 3 6
-1 10 -9 10 -9 0 -16 5 -16 10 0 6 -6 10 -13 10 -7 0 -14 13 -15 29 -4 47 25
59 158 68 8 1 31 -4 49 -11z m-3250 -101 c16 -8 31 -22 35 -30 8 -22 8 -50 -1
-42 -3 4 -12 2 -19 -4 -6 -5 -24 -7 -38 -3 -23 5 -26 11 -26 50 0 48 6 52 49
29z m6794 -23 c34 18 37 -4 7 -42 -36 -45 -60 -56 -91 -40 -42 23 0 98 45 80
13 -4 29 -4 39 2z m-3396 -17 c-4 -8 -2 -17 3 -20 13 -8 12 -26 0 -45 -6 -10
-12 -12 -19 -5 -11 11 3 85 16 85 3 0 3 -7 0 -15z m1049 -123 c0 -40 -3 -94
-7 -120 -4 -26 -12 -74 -17 -107 -6 -33 -24 -90 -41 -127 -17 -37 -37 -82 -44
-100 -8 -18 -36 -57 -62 -86 -67 -74 -226 -151 -318 -154 -75 -2 -112 4 -154
26 -78 40 -62 95 32 111 32 5 60 15 62 22 3 7 -10 21 -27 31 l-31 19 38 5 c21
3 62 20 89 37 28 17 63 31 77 31 25 0 37 16 37 51 0 27 23 24 53 -7 l26 -26
31 23 c17 13 42 48 56 78 33 69 28 122 -21 203 -32 55 -49 128 -32 144 12 12
57 -18 57 -37 0 -10 7 -24 15 -33 8 -8 15 -18 15 -21 0 -4 8 -19 18 -33 41
-59 47 -178 13 -264 -20 -53 0 -28 30 37 42 91 71 239 63 320 -4 35 -4 72 0
81 6 16 9 15 24 -7 12 -17 17 -46 18 -97z m-926 98 c0 -5 -4 -10 -10 -10 -5 0
-10 5 -10 10 0 6 5 10 10 10 6 0 10 -4 10 -10z m-2304 -16 c-3 -9 -6 -36 -6
-62 0 -57 -15 -45 -23 19 -7 49 -3 59 21 59 9 0 12 -6 8 -16z m304 -144 c1 -8
8 0 16 18 18 41 49 45 39 5 -11 -47 -55 -134 -71 -140 -7 -3 -14 -13 -14 -23
0 -10 -6 -23 -14 -29 -8 -7 -18 -26 -21 -42 -4 -16 -11 -31 -16 -34 -5 -4 -9
-17 -9 -30 0 -12 -7 -25 -15 -29 -21 -8 -19 -32 7 -55 l21 -20 -27 -11 c-21
-8 -25 -14 -20 -34 4 -18 -1 -28 -24 -44 -42 -30 -110 -100 -116 -120 -3 -9
-3 12 -1 48 6 78 23 138 63 218 33 66 131 220 169 266 17 20 23 37 19 53 -3
12 -8 35 -11 51 l-5 27 14 -30 c9 -16 16 -37 16 -45z m-1216 54 c22 -8 20 -30
-4 -56 -16 -17 -22 -19 -35 -8 -20 17 -19 47 3 59 21 13 17 12 36 5z m3086
-14 c0 -5 -5 -10 -11 -10 -5 0 -7 5 -4 10 3 6 8 10 11 10 2 0 4 -4 4 -10z
m200 -10 c0 -5 -2 -10 -4 -10 -3 0 -8 5 -11 10 -3 6 -1 10 4 10 6 0 11 -4 11
-10z m-1650 -45 l-8 -40 -1 36 c0 20 2 39 6 42 11 11 11 4 3 -38z m-1533 10
c40 -20 49 -53 21 -82 -28 -30 -37 -29 -71 6 -27 29 -28 48 -4 79 12 15 17 15
54 -3z m1268 -24 c-3 -6 -11 -8 -17 -5 -6 4 -5 9 3 15 16 10 23 4 14 -10z
m-1676 -25 c17 -20 -2 -56 -29 -56 -17 0 -20 7 -20 45 0 41 2 45 18 36 10 -5
24 -17 31 -25z m278 12 c28 -10 33 -17 35 -48 3 -79 6 -91 24 -104 10 -8 40
-17 67 -20 49 -7 97 -40 97 -68 0 -21 -48 -105 -75 -132 -29 -29 -31 -46 -9
-88 21 -40 26 -260 7 -279 -7 -7 -13 -21 -13 -31 0 -11 -11 -29 -23 -41 -31
-28 -43 -52 -52 -102 -4 -22 -11 -46 -17 -53 -6 -7 -8 -30 -5 -51 3 -27 0 -47
-11 -63 -12 -16 -16 -39 -14 -74 4 -49 2 -52 -25 -62 -15 -6 -47 -28 -69 -50
-23 -22 -48 -42 -55 -44 -12 -4 -11 -10 3 -35 20 -35 8 -69 -33 -92 -44 -24
-61 -9 -58 51 l3 53 -52 -3 -52 -4 0 221 0 221 28 0 c32 0 102 -31 118 -51 6
-8 14 -36 18 -64 4 -38 13 -56 36 -77 17 -16 34 -28 38 -28 4 0 23 13 41 28
33 27 33 28 26 89 -6 57 -10 64 -43 83 -48 29 -111 50 -148 50 -81 0 -114 77
-114 262 l0 123 26 12 c31 15 44 9 44 -18 0 -10 9 -24 20 -31 33 -21 23 -52
-37 -113 -24 -24 -33 -42 -33 -66 l0 -34 51 4 c50 3 52 2 100 -49 27 -29 49
-56 49 -61 0 -16 15 -9 51 24 42 39 59 82 59 148 0 26 5 51 10 54 6 4 7 28 4
60 -6 49 -4 58 20 90 15 19 34 35 43 35 13 0 11 6 -10 28 -19 20 -27 39 -27
64 0 20 -4 40 -10 43 -13 8 -37 63 -45 102 -5 28 -11 32 -47 38 -34 6 -44 4
-55 -10 -11 -16 -9 -21 13 -42 15 -14 22 -28 18 -35 -4 -7 -8 -62 -8 -122 l-1
-110 -53 -13 c-48 -12 -56 -12 -78 4 -26 19 -84 164 -84 210 0 24 55 73 83 73
23 0 30 16 17 41 -17 31 -4 86 23 95 12 4 44 22 70 40 54 37 65 40 114 22z
m4709 -43 c24 -37 6 -75 -36 -75 -24 0 -31 5 -36 26 -8 32 13 74 37 74 10 0
26 -11 35 -25z m1579 15 c-3 -5 -10 -10 -16 -10 -5 0 -9 5 -9 10 0 6 7 10 16
10 8 0 12 -4 9 -10z m-5480 -43 c9 -28 25 -129 30 -191 2 -26 11 -56 19 -65 9
-10 16 -26 16 -37 0 -10 12 -41 26 -68 14 -26 24 -50 21 -52 -2 -2 -17 -5 -33
-7 -16 -2 -38 -7 -49 -12 -74 -30 -91 -35 -124 -35 -60 0 -83 18 -96 77 -14
62 -29 83 -59 83 -21 0 -71 29 -52 30 5 0 0 11 -13 23 -24 26 -20 57 8 57 28
0 41 22 41 71 0 57 11 67 84 79 50 8 116 43 116 61 0 9 31 17 47 11 6 -2 14
-13 18 -25z m950 -87 c-9 -27 -20 -50 -25 -50 -21 0 -19 23 6 72 32 62 43 50
19 -22z m387 32 c-7 -2 -12 -8 -12 -13 0 -6 10 -3 22 5 12 9 35 16 50 16 l28
0 -22 -42 c-12 -24 -41 -62 -65 -86 -24 -23 -43 -47 -43 -52 0 -6 -8 -10 -19
-10 -10 0 -24 -7 -31 -15 -7 -8 -21 -15 -32 -15 -10 0 -16 -5 -13 -10 4 -6 -7
-13 -24 -16 -17 -4 -28 -10 -25 -15 6 -10 -41 -23 -59 -16 -8 3 -20 1 -28 -3
-9 -6 -20 -3 -31 7 -14 12 -25 14 -50 6 -26 -7 -40 -5 -65 10 -18 10 -33 22
-33 27 0 4 28 13 62 20 34 8 83 24 110 37 26 13 52 23 57 23 4 0 25 13 46 30
20 16 41 28 45 25 4 -2 13 7 21 22 16 30 98 85 113 75 6 -3 5 -7 -2 -10z
m1408 -64 c0 -5 -4 -8 -10 -8 -5 0 -10 10 -10 23 0 18 2 19 10 7 5 -8 10 -18
10 -22z m1511 -41 c-10 -27 -44 -51 -55 -40 -14 14 -4 43 21 63 32 25 48 14
34 -23z m-4071 1 c0 -16 -3 -19 -11 -11 -6 6 -8 16 -5 22 11 17 16 13 16 -11z
m530 -38 c3 -4 39 -23 80 -43 45 -22 66 -37 53 -37 -12 0 -24 4 -27 9 -3 4
-27 16 -53 26 -26 10 -54 23 -62 29 -7 6 -19 11 -25 12 -6 0 -19 2 -29 2 -10
1 -15 7 -12 13 7 11 66 2 75 -11z m-533 -12 c-3 -8 -6 -5 -6 6 -1 11 2 17 5
13 3 -3 4 -12 1 -19z m4604 5 c-6 -10 -19 -39 -30 -65 -20 -49 -49 -68 -37
-25 3 12 6 29 6 39 0 20 40 68 58 68 9 0 9 -5 3 -17z m-2091 -17 c0 -3 -4 -8
-10 -11 -5 -3 -10 -1 -10 4 0 6 5 11 10 11 6 0 10 -2 10 -4z m180 -20 c0 -3
-4 -8 -10 -11 -5 -3 -10 -1 -10 4 0 6 5 11 10 11 6 0 10 -2 10 -4z m-2360 -55
c0 -20 -49 -64 -64 -58 -14 6 -14 10 -4 27 7 11 18 20 24 20 7 0 15 7 18 16 6
15 26 11 26 -5z m3558 -23 c-3 -31 -1 -33 35 -36 l38 -3 -58 -58 c-87 -86
-123 -134 -117 -158 5 -17 0 -21 -28 -25 -38 -6 -47 3 -40 38 3 15 -2 32 -13
44 -15 16 -16 24 -7 47 6 16 13 44 14 63 3 35 3 35 52 35 45 0 51 3 85 42 20
23 37 42 39 43 1 0 1 -15 0 -32z m132 -18 c0 -5 -5 -10 -11 -10 -5 0 -7 5 -4
10 3 6 8 10 11 10 2 0 4 -4 4 -10z m236 -18 c6 -4 13 -15 17 -24 5 -15 0 -18
-31 -18 -30 0 -45 -7 -68 -32 -16 -18 -38 -38 -48 -43 -16 -9 -17 -14 -7 -34
10 -18 18 -22 37 -17 13 3 35 9 49 12 36 9 58 -12 43 -40 -24 -44 -102 -88
-135 -75 -13 5 -23 14 -23 22 0 7 -13 28 -29 47 l-28 35 -52 -25 c-29 -13 -62
-36 -74 -52 -12 -15 -25 -28 -28 -28 -10 0 0 90 12 113 29 53 68 75 188 103
53 12 75 22 78 35 3 11 17 19 37 22 17 2 36 4 41 5 6 1 15 -2 21 -6z m452 -99
c44 -16 135 -11 159 9 7 5 17 6 24 2 15 -9 -27 -33 -58 -34 -13 0 -23 -4 -23
-8 0 -5 -19 -14 -42 -21 -87 -26 -88 -27 -38 -49 25 -10 53 -22 63 -25 18 -7
23 -22 8 -31 -5 -3 -24 1 -43 8 -32 14 -36 13 -51 -5 -20 -22 -26 -23 -92 -6
-40 11 -49 17 -49 35 0 12 2 23 4 24 11 3 86 -14 95 -22 6 -5 17 -5 24 -1 9 6
-1 14 -31 26 -24 10 -50 19 -58 20 -30 3 -65 18 -89 36 -34 27 -77 24 -97 -6
-26 -40 -73 -70 -87 -56 -9 10 -2 21 31 49 23 20 42 43 42 50 0 7 14 12 39 12
22 0 43 5 46 10 9 15 169 3 223 -17z m-2378 -83 c0 -15 -38 -32 -45 -20 -3 5
-4 14 -1 18 7 11 46 13 46 2z m-65 -10 c3 -5 1 -10 -4 -10 -6 0 -11 5 -11 10
0 6 2 10 4 10 3 0 8 -4 11 -10z m1175 -25 c-7 -8 -17 -15 -22 -15 -5 0 -2 7 6
16 9 8 16 21 17 27 0 8 2 8 6 -1 3 -7 -1 -19 -7 -27z m-4046 -1 c11 -4 16 -19
16 -50 0 -25 9 -62 20 -85 13 -24 18 -48 15 -60 -7 -20 -42 -39 -70 -39 -24 0
-46 45 -56 112 -7 53 -6 68 8 96 17 31 35 38 67 26z m2879 -1 c9 -15 -12 -50
-33 -56 -20 -5 -21 -5 -5 19 9 14 13 29 10 34 -3 6 1 10 9 10 8 0 17 -3 19 -7z
m-2166 -67 c-3 -8 -1 -16 5 -18 7 -3 8 -17 4 -42 -9 -50 -26 -35 -31 28 -3 36
-1 46 12 46 9 0 13 -6 10 -14z m-112 -6 c10 17 25 11 25 -9 0 -11 -8 -21 -17
-23 -33 -6 -73 4 -73 19 0 8 4 12 9 8 5 -3 13 -1 16 5 5 8 11 8 20 0 9 -8 15
-8 20 0z m2278 -35 c-3 -9 -8 -14 -10 -11 -3 3 -2 9 2 15 9 16 15 13 8 -4z
m-43 -27 c0 -16 -3 -19 -11 -11 -6 6 -8 16 -5 22 11 17 16 13 16 -11z m-2530
-6 c21 -17 21 -19 5 -35 -9 -9 -23 -17 -32 -17 -10 0 -14 -6 -10 -20 4 -15 -7
-31 -40 -60 -25 -22 -51 -40 -58 -40 -14 0 -25 22 -25 48 0 22 40 62 61 62 36
0 49 12 49 46 0 39 16 44 50 16z m3135 -156 c-4 -83 -8 -158 -7 -166 3 -132
11 -261 16 -269 4 -6 2 -19 -4 -30 -14 -27 -13 -34 5 -27 9 3 15 0 15 -9 0 -8
-6 -15 -14 -15 -7 0 -16 -11 -18 -25 -3 -14 -1 -25 3 -25 17 0 9 -30 -8 -31
-17 -1 -17 -2 0 -6 18 -5 24 -23 6 -23 -6 0 -8 -8 -4 -19 3 -10 -1 -24 -10
-31 -14 -11 -14 -15 0 -36 10 -16 11 -25 4 -30 -8 -4 -7 -9 2 -15 11 -7 10 -9
-4 -9 -15 0 -17 -6 -13 -35 3 -19 2 -35 -3 -35 -5 0 -16 -12 -26 -26 -9 -15
-12 -23 -6 -20 20 13 12 -33 -9 -51 -21 -19 -10 -46 16 -36 19 7 18 -6 -3 -30
-17 -19 -17 -20 6 -14 l23 6 -23 -27 c-13 -15 -27 -28 -32 -30 -14 -7 4 -21
20 -15 9 3 14 2 11 -3 -2 -5 -13 -28 -23 -52 -12 -28 -23 -41 -32 -38 -8 3
-11 1 -8 -5 4 -5 16 -7 28 -4 21 6 22 6 3 -9 -11 -9 -25 -16 -31 -16 -7 0 -20
-10 -31 -22 -10 -13 -12 -17 -4 -10 8 6 20 12 28 12 12 0 12 -3 2 -15 -17 -20
-1 -19 22 2 10 9 18 11 18 6 0 -6 -6 -16 -14 -23 -8 -6 -16 -21 -18 -32 -2
-14 -11 -22 -26 -23 -29 -2 -55 -25 -28 -25 27 0 9 -18 -27 -26 -17 -3 -43
-15 -56 -25 -13 -11 -32 -19 -42 -19 -10 0 -34 -14 -53 -31 -28 -24 -39 -28
-53 -20 -16 9 -15 11 10 20 15 6 27 15 27 21 0 12 -27 13 -34 1 -3 -4 -28 -6
-56 -3 -31 3 -50 1 -50 -6 0 -5 -15 -15 -32 -21 l-33 -11 24 20 c18 16 20 20
7 20 -10 0 -14 5 -11 10 4 6 16 10 27 8 12 -2 23 3 25 10 6 15 -18 16 -52 0
-22 -10 -28 -9 -35 3 -5 8 -15 15 -22 15 -7 1 -19 2 -25 3 -7 0 -13 8 -13 17
0 10 6 14 15 10 8 -3 15 0 15 6 0 7 -13 9 -35 5 -19 -3 -35 -2 -35 4 0 14 39
16 80 5 21 -6 22 -5 8 4 -10 6 -18 15 -18 20 0 6 8 10 18 11 14 0 14 2 -3 8
-27 11 -53 2 -33 -11 8 -6 4 -7 -12 -3 -14 3 -43 -1 -65 -11 l-40 -16 25 24
c14 13 27 23 30 22 4 -2 11 6 18 16 10 17 7 17 -36 -5 -25 -13 -49 -21 -52
-18 -3 3 0 8 6 10 6 2 20 11 30 19 18 14 16 15 -19 9 -27 -4 -37 -3 -32 4 3 6
13 11 21 11 12 0 13 4 3 22 -7 13 -14 18 -16 11 -3 -7 -11 -9 -19 -6 -11 4 -8
11 13 29 30 26 26 32 -7 12 -15 -9 -23 -10 -28 -2 -4 6 -14 13 -22 16 -12 5
-12 7 4 13 10 5 21 3 25 -3 4 -7 12 -6 25 4 20 14 16 18 -19 14 -16 -1 -18 1
-7 11 17 18 15 30 -3 23 -8 -4 -15 -1 -15 5 0 14 23 14 37 0 7 -7 12 -1 16 20
4 18 13 31 22 31 8 0 15 4 15 10 0 5 5 9 11 7 6 -1 13 3 16 10 3 7 -3 9 -18 6
-14 -4 -20 -2 -18 6 3 7 9 12 14 12 6 0 14 7 18 15 4 8 15 14 23 14 10 0 13 7
8 25 -5 19 -2 25 11 25 13 0 15 -6 10 -32 l-6 -33 17 29 c11 21 19 25 27 17 6
-6 18 -11 26 -11 11 0 9 5 -7 16 -12 8 -26 13 -31 9 -6 -3 -15 11 -20 32 -9
31 -8 40 4 49 8 6 15 21 15 33 0 14 4 20 12 15 8 -5 9 -2 5 10 -4 10 -7 22 -7
27 0 5 -4 9 -10 9 -5 0 -10 -6 -10 -14 0 -8 -5 -18 -10 -21 -13 -8 -2 44 13
63 8 10 7 16 -4 23 -8 5 -9 9 -4 9 6 0 2 7 -8 14 -17 13 -16 15 9 35 15 12 34
19 41 16 9 -3 11 -1 6 8 -13 22 -12 39 3 33 20 -8 17 4 -8 33 -13 14 -16 21
-8 15 21 -16 60 -24 60 -13 0 5 -15 16 -32 24 -18 8 -23 12 -12 10 16 -4 29 3
46 23 13 16 30 26 37 24 10 -3 12 1 7 13 -5 14 -2 16 17 11 20 -5 47 18 183
152 172 169 222 238 264 364 17 51 26 65 38 61 13 -5 14 -26 7 -157z m891 137
c-4 -16 -10 -44 -14 -63 -5 -26 -13 -36 -30 -38 -27 -4 -27 -5 -3 49 10 24 21
52 24 62 11 29 30 20 23 -10z m-3602 -28 c3 -8 1 -15 -4 -15 -6 0 -10 7 -10
15 0 8 2 15 4 15 2 0 6 -7 10 -15z m2106 -17 c0 -4 -4 -8 -10 -8 -5 0 -10 5
-10 10 0 17 -28 11 -39 -7 -6 -11 -11 -13 -11 -5 0 26 23 40 47 29 13 -6 23
-14 23 -19z m1910 -8 c0 -5 -25 -10 -55 -10 -30 0 -55 5 -55 10 0 6 25 10 55
10 30 0 55 -4 55 -10z m-254 -7 c-3 -4 -14 -7 -24 -8 -9 -1 -33 -5 -52 -9 -35
-7 -35 -7 -10 8 24 15 100 23 86 9z m-1679 -60 c-3 -10 -5 -4 -5 12 0 17 2 24
5 18 2 -7 2 -21 0 -30z m1543 -74 c0 -21 -9 -29 -26 -22 -14 5 -20 54 -7 66 8
9 32 -23 33 -44z m-1542 6 c-3 -3 -9 2 -12 12 -6 14 -5 15 5 6 7 -7 10 -15 7
-18z m1711 -18 c36 -24 76 -49 87 -55 34 -18 39 -57 10 -95 -39 -53 -58 -96
-48 -113 5 -9 13 -14 18 -12 5 1 23 -19 41 -47 17 -27 50 -71 74 -98 52 -58
56 -98 16 -133 -32 -27 -35 -44 -8 -44 32 0 91 -40 91 -62 0 -10 -11 -43 -25
-72 -18 -38 -35 -58 -66 -75 -39 -22 -50 -23 -119 -6 -39 10 -90 -39 -101 -95
-13 -73 -39 -136 -67 -162 -37 -34 -108 -60 -142 -53 -35 8 -41 29 -34 119 4
53 11 77 30 102 21 27 23 35 13 52 -21 33 -60 49 -107 44 -36 -3 -43 -8 -48
-31 -3 -14 -9 -36 -14 -48 -7 -17 10 -59 84 -208 120 -238 142 -264 185 -209
16 20 21 41 21 88 0 50 6 70 30 111 16 28 30 56 30 63 0 8 9 26 20 42 17 24
25 27 57 23 95 -11 141 -25 161 -48 12 -14 32 -25 44 -25 13 0 34 -9 48 -20
33 -26 40 -25 86 10 48 36 55 36 91 6 20 -17 34 -22 44 -15 21 13 59 11 59 -3
0 -17 -50 -59 -62 -52 -5 3 -24 -6 -42 -20 -54 -41 -127 -76 -158 -76 -24 0
-30 5 -34 30 -7 34 -23 38 -59 14 -18 -12 -37 -14 -73 -9 l-49 6 -46 -51 c-45
-50 -51 -70 -21 -70 17 0 18 -16 3 -59 -14 -39 5 -66 55 -75 18 -4 58 -22 89
-40 104 -63 491 -256 512 -256 6 0 37 -13 70 -30 33 -16 103 -45 155 -65 52
-20 111 -42 130 -50 74 -28 196 -65 216 -65 12 0 32 -9 45 -21 l24 -21 -30 7
-30 7 32 -30 c18 -17 52 -43 75 -57 24 -15 34 -24 23 -20 -11 4 -47 16 -80 27
-33 12 -106 38 -162 59 -56 22 -107 39 -115 38 -15 0 -17 1 147 -69 66 -28
124 -56 130 -61 5 -5 17 -9 28 -9 10 0 16 -4 12 -9 -3 -6 4 -15 15 -21 23 -12
27 -40 5 -40 -16 0 -20 -12 -9 -23 4 -4 16 3 26 16 13 14 19 17 18 7 -6 -38 0
-62 14 -57 10 4 19 -8 29 -39 14 -44 14 -44 -9 -44 -23 0 -23 -1 -7 -20 10
-11 28 -20 40 -20 23 0 30 -10 16 -23 -3 -4 -17 0 -30 8 -19 13 -23 13 -23 1
0 -7 9 -16 20 -19 11 -3 20 -13 20 -23 0 -16 -2 -15 -20 4 -12 12 -26 22 -32
22 -9 0 -9 -3 0 -12 16 -16 15 -45 0 -51 -10 -3 -8 -10 5 -25 11 -11 16 -26
12 -31 -10 -18 -25 -13 -35 12 -8 21 -9 21 -9 -5 -1 -14 5 -28 12 -31 9 -3 9
-7 0 -17 -7 -8 -9 -20 -3 -35 5 -12 4 -28 -1 -36 -5 -8 -9 -10 -9 -6 0 5 -5 5
-11 1 -8 -5 -8 -8 0 -14 14 -8 -6 -60 -23 -60 -6 -1 -1 -9 12 -19 36 -31 27
-46 -14 -22 -20 12 -39 19 -42 16 -3 -3 0 -5 7 -5 7 0 11 -6 8 -14 -3 -8 5
-18 19 -25 20 -9 34 -31 19 -31 -18 0 -56 27 -61 43 -4 13 -9 16 -17 8 -7 -7
-6 -16 6 -29 21 -23 22 -36 2 -28 -20 7 -19 -3 3 -27 13 -16 14 -19 2 -15 -8
2 -22 25 -30 51 -9 30 -21 47 -31 47 -17 0 -62 43 -54 52 3 3 -1 8 -10 12 -12
4 -15 1 -11 -12 6 -16 1 -17 -51 -12 -32 4 -61 3 -64 -2 -3 -5 -13 -6 -22 -2
-12 4 -18 -2 -23 -21 -5 -22 -2 -31 16 -45 15 -11 19 -19 11 -24 -16 -10 -14
-26 4 -26 8 0 15 -4 15 -10 0 -5 -4 -10 -9 -10 -10 0 -2 -48 10 -56 17 -10 9
-34 -12 -34 -17 0 -19 -3 -10 -14 8 -10 9 -16 1 -21 -17 -11 -11 -27 9 -20 11
3 21 0 24 -9 8 -21 -4 -28 -22 -13 -14 11 -14 10 -2 -6 7 -9 23 -17 35 -17 29
-1 62 -46 46 -65 -8 -10 -6 -18 10 -33 15 -14 20 -27 15 -41 -5 -16 -2 -21 11
-21 10 0 14 -3 11 -7 -4 -3 -2 -12 4 -19 12 -15 -5 -29 -26 -20 -10 3 -17 -3
-21 -19 -5 -20 -9 -22 -24 -12 -10 6 -16 15 -13 20 3 5 -3 7 -13 6 -11 -2 -25
0 -31 4 -8 5 -13 3 -13 -3 0 -6 -8 -10 -17 -8 -14 2 -18 -3 -16 -26 2 -27 1
-27 -12 -10 -8 11 -15 15 -15 9 0 -5 -5 -3 -10 5 -9 13 -11 13 -20 0 -12 -19
21 -56 58 -63 35 -7 101 6 84 16 -6 5 -12 12 -12 18 0 5 9 4 20 -3 16 -10 24
-10 40 0 13 8 20 8 20 2 0 -6 8 -10 17 -8 11 2 23 -8 31 -26 13 -26 13 -30 -3
-38 -15 -9 -15 -11 4 -25 21 -14 20 -33 0 -33 -6 0 -8 3 -5 8 2 4 -19 7 -47 7
-29 0 -54 5 -56 10 -5 11 -33 34 -42 35 -17 0 -18 -35 -2 -52 16 -18 16 -19
-5 -25 -12 -3 -22 -9 -22 -14 0 -16 44 -10 85 11 42 22 75 26 75 10 0 -5 7
-10 15 -10 17 0 20 -16 5 -25 -5 -3 -8 -20 -5 -38 5 -34 -15 -67 -49 -80 -17
-7 -17 -9 -2 -32 9 -14 14 -30 10 -36 -3 -6 4 -20 16 -31 21 -20 40 -59 40
-81 0 -7 -7 -4 -14 6 -19 25 -29 21 -22 -8 4 -14 2 -25 -4 -25 -5 0 -10 -4
-10 -10 0 -5 5 -9 11 -7 6 1 18 -9 27 -22 16 -24 16 -24 -8 -10 -34 19 -70 51
-70 61 0 12 -47 58 -59 58 -5 0 -7 9 -4 20 4 14 0 20 -11 20 -9 0 -19 8 -23
18 -9 25 -44 62 -60 62 -7 0 -13 7 -13 15 0 8 -4 16 -10 16 -5 1 -14 2 -19 3
-19 2 -108 66 -134 95 -15 17 -33 31 -41 31 -8 0 -16 7 -20 15 -3 8 -18 20
-33 27 -32 13 -153 12 -166 -1 -5 -5 -16 -7 -23 -4 -9 3 -14 -2 -14 -15 0 -11
-7 -23 -16 -26 -8 -3 -13 -10 -10 -15 4 -5 1 -11 -5 -13 -6 -2 -8 -14 -4 -31
4 -15 12 -26 18 -24 12 4 49 -29 65 -58 7 -13 7 -26 1 -37 -6 -10 -7 -23 -3
-29 4 -8 0 -7 -15 0 -15 8 -27 9 -40 1 -14 -7 -23 -6 -33 3 -30 28 -88 15 -88
-20 0 -9 9 -12 28 -10 15 2 33 0 40 -6 8 -6 12 -6 12 1 0 6 8 9 18 7 9 -2 29
-4 45 -4 22 -1 27 -6 27 -26 0 -14 5 -25 10 -25 15 0 60 -47 53 -54 -3 -3 5
-16 19 -29 23 -21 25 -29 18 -65 -4 -23 -5 -44 -2 -47 11 -10 9 -49 -2 -61 -6
-6 -22 -9 -34 -7 -13 1 -33 -3 -45 -11 -12 -7 -32 -13 -44 -11 -13 1 -23 -2
-23 -7 0 -4 -9 -8 -21 -8 -11 0 -17 4 -14 10 13 21 -7 31 -26 14 -16 -15 -19
-15 -19 -2 0 9 -7 18 -15 22 -8 3 -15 13 -15 21 0 12 -6 15 -20 10 -13 -4 -31
0 -46 10 -13 9 -29 13 -34 10 -6 -3 -10 0 -10 8 0 14 -27 32 -43 28 -4 0 -10
5 -13 13 -3 8 -11 13 -18 10 -7 -3 -31 13 -54 36 -23 22 -47 40 -53 40 -6 0
-9 7 -5 15 3 10 -6 20 -30 31 -19 9 -39 25 -45 36 -7 13 -16 17 -30 13 -14 -5
-19 -2 -19 12 0 19 -18 43 -32 43 -4 0 -3 -11 2 -25 6 -16 6 -25 0 -25 -6 0
-15 11 -20 25 -10 27 -30 34 -30 10 0 -8 -5 -15 -10 -15 -6 0 -8 11 -4 26 5
19 4 25 -5 20 -6 -4 -11 -15 -11 -24 0 -13 -2 -14 -9 -3 -6 10 -10 10 -16 1
-4 -6 -13 -9 -21 -6 -7 3 -16 1 -19 -4 -3 -5 6 -12 20 -16 27 -7 33 -19 13
-28 -9 -4 -8 -5 2 -5 31 2 40 -1 40 -16 0 -8 -4 -15 -10 -15 -5 0 -10 -6 -10
-14 0 -9 7 -13 18 -11 21 4 46 -13 55 -37 3 -10 15 -18 25 -18 11 0 25 -6 31
-14 6 -7 21 -12 34 -11 12 1 14 0 5 -2 -10 -2 -18 -8 -18 -13 0 -16 12 -40 20
-40 5 0 21 -5 35 -10 21 -8 25 -13 16 -24 -19 -22 3 -63 37 -71 21 -4 34 -16
42 -36 7 -16 17 -29 22 -29 6 0 5 -7 -2 -15 -11 -13 -8 -15 13 -15 20 0 25 -4
20 -16 -4 -11 -13 -14 -29 -10 -17 5 -24 2 -24 -9 0 -32 -30 -14 -68 43 -32
48 -82 82 -82 56 0 -9 -7 -14 -17 -12 -12 3 -17 12 -16 26 3 25 0 26 -28 12
-14 -8 -19 -7 -19 1 0 29 -64 52 -73 27 -3 -7 -10 1 -17 17 -10 27 -13 28 -24
13 -12 -16 -15 -16 -49 2 -24 13 -38 16 -43 9 -4 -8 -9 -7 -14 2 -7 10 -11 10
-24 0 -17 -14 -40 -6 -30 11 5 7 0 9 -14 6 -14 -4 -22 -2 -22 7 0 13 -49 20
-209 28 -36 2 -67 9 -69 15 -4 14 35 35 57 29 9 -2 22 2 29 9 17 19 -11 44
-50 44 -21 0 -31 6 -35 20 -3 12 -14 20 -26 20 -20 0 -20 0 -2 14 19 13 17 16
-24 62 -25 27 -45 50 -46 52 -1 1 0 -9 3 -23 3 -21 1 -24 -13 -19 -10 4 -15
14 -12 25 5 20 -13 30 -58 34 -16 1 -37 3 -45 4 -11 1 -16 11 -15 34 0 24 5
33 20 35 73 9 95 16 92 26 -2 6 -14 11 -26 11 -12 0 -25 5 -29 11 -4 5 -22 16
-41 24 -18 7 -48 26 -65 42 -17 15 -36 28 -43 28 -22 0 -14 20 12 30 29 11 34
35 6 27 -26 -6 -62 30 -42 43 8 4 11 15 7 25 -3 10 -1 24 6 33 11 12 10 17 -6
26 -10 6 -28 18 -39 27 -19 15 -20 18 -5 33 10 9 24 13 35 9 15 -5 16 -3 6 8
-15 15 -17 49 -4 49 5 0 8 -8 7 -17 0 -12 6 -18 19 -19 15 -1 16 0 3 3 -10 3
-18 9 -18 14 0 5 8 9 18 9 13 0 14 2 3 9 -7 5 -9 11 -4 14 5 3 20 -4 33 -16
17 -16 33 -21 56 -19 24 3 36 -2 49 -20 11 -14 15 -17 12 -5 -4 9 -2 17 3 17
6 0 10 -4 10 -10 0 -5 10 -10 23 -10 13 0 32 -7 43 -15 10 -8 27 -15 37 -15 9
0 25 -4 35 -9 9 -5 32 -16 50 -23 18 -7 30 -18 28 -24 -2 -6 8 -10 25 -9 16 1
29 -3 29 -8 0 -5 6 -4 14 2 10 8 16 9 21 1 3 -6 12 -7 18 -3 6 4 30 8 52 10
22 2 47 6 55 10 28 11 49 13 55 3 9 -14 45 12 45 32 0 21 16 24 23 6 3 -10 7
-10 20 1 16 12 21 9 18 -11 -2 -12 6 -9 23 7 12 13 20 14 36 5 11 -6 25 -8 30
-5 6 3 10 1 10 -4 0 -15 37 -14 44 2 5 9 7 9 12 0 3 -7 12 -9 21 -6 11 4 14 2
9 -5 -10 -17 22 -15 40 2 8 8 14 19 14 25 0 6 12 9 28 7 15 -2 21 -1 15 1 -27
9 -11 22 25 20 30 -2 37 1 36 16 -1 13 10 21 42 29 39 11 60 28 34 28 -19 0
-10 15 15 27 15 6 25 7 25 1 0 -5 5 -6 10 -3 19 12 -1 25 -38 25 l-37 0 33 16
c39 20 41 34 6 34 -24 0 -25 2 -13 17 12 14 12 16 -2 11 -9 -4 -23 2 -32 13
-9 10 -29 19 -44 19 -29 1 -107 52 -96 64 3 3 -6 6 -20 6 -18 0 -25 4 -21 14
8 21 -41 48 -73 40 -25 -7 -27 -6 -15 9 12 14 8 19 -28 43 -24 16 -37 30 -31
32 22 7 -1 22 -25 16 -14 -4 -24 -2 -24 5 0 6 -6 11 -14 11 -7 0 -19 7 -26 15
-16 20 6 20 80 1 56 -15 75 -13 83 8 7 18 35 207 42 289 4 37 10 67 14 67 4 0
35 -11 69 -25 71 -29 72 -29 72 -12 0 6 -43 34 -95 61 -53 27 -98 53 -102 59
-4 7 1 8 13 3 10 -4 32 -10 47 -13 42 -8 100 -40 119 -66 15 -19 18 -19 18 -4
0 26 -70 91 -160 147 -44 27 -84 50 -90 50 -5 0 -10 4 -10 10 0 5 -7 6 -17 3
-11 -4 -14 -3 -9 6 10 15 -11 41 -28 35 -7 -3 -20 6 -29 20 -16 24 -69 56 -93
56 -8 0 -13 9 -11 23 1 14 -3 21 -11 19 -12 -2 -60 16 -102 38 -9 4 -15 22
-15 46 0 22 -5 39 -10 39 -5 0 -10 -4 -11 -10 0 -5 -2 -19 -3 -30 -1 -14 -7
-8 -22 23 -22 48 -34 55 -25 15 5 -24 5 -25 -5 -10 -7 13 -8 27 -1 45 6 15 13
52 17 82 7 61 23 137 61 280 39 152 64 288 64 350 0 53 -9 86 -45 165 -22 48
-135 121 -135 87 0 -5 27 -87 61 -183 84 -240 91 -197 -116 -704 -51 -126
-114 -293 -140 -370 l-46 -140 -72 -70 c-83 -80 -127 -131 -127 -144 0 -6 -25
-26 -55 -46 -68 -46 -215 -188 -215 -208 0 -9 -3 -17 -7 -19 -5 -1 -19 -23
-32 -48 -29 -54 -51 -81 -61 -75 -5 3 -29 40 -54 83 -25 42 -69 104 -98 137
-29 34 -69 85 -87 115 -60 96 -66 100 -138 100 -59 0 -67 3 -101 34 -20 19
-52 44 -71 56 -20 12 -65 39 -101 61 -36 22 -86 52 -112 67 -26 15 -48 30 -48
33 0 14 99 34 157 31 34 -1 65 3 68 8 3 6 1 10 -5 10 -6 0 -8 5 -5 10 3 6 15
10 26 10 12 0 19 7 19 20 0 23 51 36 103 26 75 -14 194 -87 217 -132 23 -45
81 -114 96 -114 8 0 14 -8 14 -18 0 -10 11 -24 24 -31 13 -7 23 -20 22 -29 -1
-10 12 -21 34 -29 19 -6 29 -12 21 -12 -11 -1 -9 -5 5 -15 23 -17 44 -4 44 26
0 14 5 18 15 14 12 -4 13 -2 6 12 -8 15 -9 40 -3 118 2 24 39 39 57 24 6 -5
21 -6 34 -3 22 5 23 4 16 -26 -7 -31 -6 -32 22 -26 49 11 55 15 50 29 -3 8 3
22 14 32 14 13 18 25 14 44 -4 18 -1 31 10 40 9 7 13 21 10 31 -3 9 -1 20 5
24 6 3 8 10 5 14 -2 5 7 21 22 35 20 20 24 29 15 38 -9 9 -8 15 1 26 9 11 9
16 0 19 -6 2 6 22 28 44 37 37 39 44 41 104 2 71 4 76 33 93 11 6 14 12 8 12
-20 0 -15 24 10 50 12 14 21 25 19 25 -2 0 -1 12 3 27 4 15 10 27 14 26 16 -3
58 23 75 46 10 14 27 26 36 26 10 0 20 7 24 15 3 9 12 12 22 8 11 -4 15 -2 11
4 -9 14 15 63 31 63 8 0 10 8 7 23 -5 17 2 32 24 56 35 37 37 43 16 35 -8 -4
-15 -2 -15 3 0 6 -10 15 -22 21 -18 8 -19 11 -5 11 17 1 25 21 8 21 -4 0 -6
11 -3 25 2 14 8 22 13 19 5 -3 6 2 3 10 -4 10 -1 16 10 16 9 0 13 6 10 15 -4
10 -15 12 -37 8 -18 -3 -33 -10 -35 -15 -2 -4 -8 -8 -14 -8 -6 0 -3 9 7 20 10
11 24 20 31 20 7 0 15 4 18 9 3 4 -6 6 -19 3 -20 -3 -24 -1 -19 12 3 9 14 16
24 16 10 0 28 9 41 21 24 20 24 20 2 16 -15 -3 -20 -1 -16 9 3 8 9 14 14 14 5
0 4 12 -2 27 -8 21 -6 30 11 47 11 12 23 36 26 54 4 18 10 32 15 32 10 0 12
83 2 93 -3 4 -8 22 -10 39 l-3 33 14 -30 c7 -16 18 -42 24 -57 7 -16 18 -28
25 -28 17 0 29 59 21 100 -4 15 -1 30 4 34 12 7 52 -40 52 -62 0 -8 11 -25 25
-38 14 -13 25 -34 25 -49 0 -26 14 -33 25 -14 4 6 13 8 21 5 11 -4 14 5 14 37
0 53 48 113 95 119 29 3 30 5 42 80 6 42 15 83 20 91 25 42 67 79 116 101 62
27 88 54 41 41 -73 -18 -274 9 -274 37 0 5 5 18 10 29 8 15 7 19 -5 19 -19 0
-19 20 -2 45 17 22 40 11 32 -16 -5 -14 -3 -17 9 -13 9 3 16 10 16 15 0 26
153 -15 215 -57 11 -8 28 -14 38 -14 13 0 17 -5 13 -15 -7 -18 10 -20 21 -2 4
6 13 28 20 47 10 28 10 37 0 45 -7 6 -20 22 -29 37 -10 14 -25 29 -35 32 -10
3 -33 36 -51 72 -30 63 -32 68 -17 90 24 37 67 31 144 -19z m-3405 18 c11 -8
16 -15 12 -15 -5 0 -3 -7 4 -15 11 -14 14 -13 24 7 27 54 77 24 91 -54 6 -31
4 -38 -15 -48 -13 -7 -38 -10 -56 -7 -26 4 -36 2 -44 -12 -5 -10 -23 -24 -40
-31 -19 -8 -29 -18 -26 -26 8 -20 -8 -25 -37 -11 -32 14 -36 24 -47 100 -10
66 1 110 24 101 8 -3 17 0 21 5 3 6 10 9 15 6 5 -3 11 -1 15 5 9 14 37 12 59
-5z m186 5 c0 -5 7 -7 15 -4 20 8 31 -22 15 -41 -7 -8 -10 -29 -8 -45 5 -36
-4 -45 -31 -30 -27 14 -34 42 -21 90 10 35 30 56 30 30z m1455 -50 c-3 -5 -12
-10 -18 -10 -7 0 -6 4 3 10 19 12 23 12 15 0z m-1896 -49 c51 -48 39 -75 -33
-73 -63 3 -84 53 -38 90 24 18 37 15 71 -17z m-822 -7 c2 -7 -4 -21 -15 -32
-18 -18 -26 -50 -36 -145 -2 -16 -25 -48 -61 -84 -57 -57 -59 -58 -109 -56
-79 3 -96 -9 -94 -73 1 -44 -3 -59 -23 -80 -19 -21 -24 -35 -22 -74 1 -27 -2
-52 -6 -55 -13 -7 -2 -43 15 -49 8 -3 26 -1 41 5 19 7 38 6 72 -5 25 -8 57
-16 71 -18 20 -2 24 -8 21 -28 -5 -38 -6 -122 0 -149 3 -20 -5 -30 -50 -62
-30 -21 -63 -51 -74 -68 -18 -30 -22 -31 -87 -31 -79 0 -100 -14 -81 -56 6
-14 11 -40 11 -59 l0 -33 -58 5 c-41 4 -67 1 -88 -10 -43 -22 -80 -12 -93 26
-22 60 -8 92 44 101 31 6 57 25 50 36 -3 4 -29 11 -59 14 -59 8 -71 16 -82 60
-4 16 -15 31 -25 33 -18 5 -19 20 -19 250 l0 245 28 -6 c15 -4 44 -9 64 -12
31 -6 39 -12 52 -45 16 -40 35 -49 55 -25 30 36 61 114 61 154 0 75 96 192
157 192 10 0 34 -14 53 -30 49 -43 75 -48 100 -19 17 20 19 33 15 76 -9 75 20
112 100 125 31 6 66 -3 72 -18z m2480 4 c-3 -8 -6 -5 -6 6 -1 11 2 17 5 13 3
-3 4 -12 1 -19z m-1317 -97 c-7 -14 -7 -20 2 -23 7 -3 8 -10 4 -17 -7 -11 -10
-11 -17 0 -5 9 -11 6 -20 -14 -7 -15 -27 -36 -46 -47 -22 -13 -33 -27 -33 -42
-1 -29 -16 -49 -57 -73 -18 -11 -33 -24 -33 -30 -1 -5 -12 4 -25 20 l-25 30 0
-32 c0 -37 60 -167 90 -195 11 -10 20 -22 20 -26 0 -12 -30 -95 -47 -132 -23
-50 -21 -135 5 -192 12 -26 22 -52 22 -57 0 -22 76 -91 122 -110 51 -22 70
-48 74 -101 9 -133 16 -186 26 -220 11 -35 15 -39 38 -33 29 7 60 31 60 48 0
6 10 25 23 42 18 25 23 43 21 85 -1 29 0 60 2 69 10 37 173 62 193 31 11 -18
76 -52 99 -52 41 0 40 -10 -22 -178 -7 -18 -18 -38 -24 -44 -6 -6 -8 -16 -6
-23 3 -7 1 -16 -5 -20 -6 -3 -11 -25 -12 -48 0 -33 -2 -38 -9 -22 -6 14 -9 15
-10 5 -1 -9 -5 -6 -10 8 -10 24 -4 52 12 52 5 0 6 5 3 11 -4 6 3 21 16 35 l22
24 -25 0 c-31 0 -80 -21 -213 -92 -55 -29 -127 -62 -160 -74 -111 -40 -130
-49 -177 -79 -48 -30 -174 -117 -194 -134 -6 -5 -30 -20 -53 -33 -23 -12 -68
-37 -99 -55 -71 -40 -107 -58 -154 -77 -21 -8 -38 -20 -38 -25 0 -6 -11 -11
-25 -11 -13 0 -32 -8 -42 -18 -22 -23 -80 -57 -112 -67 -22 -7 -81 -42 -108
-65 -7 -5 -18 -10 -25 -11 -7 0 -26 -9 -43 -19 -63 -39 -190 -103 -210 -105
-11 -1 -26 -3 -33 -4 -7 0 -11 -5 -8 -9 3 -5 -33 -28 -80 -51 -46 -24 -105
-58 -129 -77 -45 -34 -45 -34 -65 -14 -11 11 -26 17 -35 14 -23 -9 -18 -18 16
-31 24 -9 29 -16 24 -32 -7 -25 14 -151 26 -151 5 0 9 9 9 20 0 18 2 19 22 8
20 -10 21 -13 6 -16 -12 -2 -18 -12 -17 -30 0 -15 3 -21 6 -13 5 11 7 11 14 0
7 -11 9 -11 9 3 0 9 -6 19 -12 22 -7 3 -2 3 12 0 14 -4 26 -7 28 -9 1 -1 3
-47 4 -103 2 -59 7 -100 13 -99 5 1 11 -9 13 -23 2 -14 8 -31 14 -37 7 -9 5
-15 -6 -19 -24 -9 -49 26 -33 45 10 11 9 13 -3 9 -8 -2 -18 -22 -21 -44 -3
-21 -7 -29 -8 -16 -1 26 -18 29 -25 5 -6 -24 -14 -83 -21 -168 -4 -38 -10 -99
-15 -133 -5 -35 -6 -70 -4 -77 7 -18 -25 -85 -40 -85 -15 0 -17 63 -2 72 7 5
5 8 -6 8 -19 0 -25 16 -8 22 12 4 31 103 24 122 -3 8 2 38 10 66 9 29 14 56
11 59 -5 9 13 89 28 119 6 12 16 22 24 22 17 0 16 10 -2 34 -8 11 -15 31 -15
45 0 45 -20 101 -36 101 -8 0 -12 5 -9 10 4 6 11 8 16 4 6 -3 7 5 4 23 -11 48
-14 53 -32 53 -14 0 -15 -2 -5 -9 10 -6 9 -10 -7 -14 -12 -3 -21 -10 -21 -16
0 -14 17 -14 25 -1 10 17 25 11 25 -10 0 -11 -7 -20 -15 -20 -11 0 -15 -11
-15 -36 0 -27 -4 -35 -14 -31 -8 3 -22 -3 -32 -14 -9 -10 -12 -19 -6 -19 15 0
2 -40 -18 -53 -10 -6 -16 -17 -13 -24 3 -7 0 -13 -6 -13 -6 0 -11 -6 -11 -14
0 -8 -14 -26 -30 -40 -17 -14 -29 -31 -28 -38 2 -8 -5 -12 -19 -11 -16 2 -21
-2 -17 -11 3 -8 -4 -19 -16 -26 -15 -8 -20 -8 -16 -1 10 15 0 14 -34 -4 -21
-11 -30 -23 -30 -40 0 -14 -5 -25 -11 -25 -5 0 -7 -4 -4 -10 3 -5 -3 -30 -15
-55 -12 -27 -18 -54 -14 -69 3 -13 1 -27 -5 -30 -8 -5 -11 119 -11 428 0 420
1 436 19 446 31 16 76 12 105 -11 30 -23 66 -18 66 10 0 21 -17 37 -44 42 -12
3 -25 20 -34 46 -14 36 -14 48 -2 85 7 24 19 50 25 58 6 8 19 34 29 57 10 23
24 44 31 47 6 2 25 35 41 73 27 66 33 74 63 92 8 5 18 36 22 71 8 57 7 63 -14
81 -12 10 -27 18 -33 19 -10 0 -74 -84 -74 -98 0 -5 -5 -13 -11 -19 -6 -6 -12
-46 -14 -89 -2 -67 -6 -81 -25 -96 -12 -10 -31 -18 -41 -18 -25 0 -39 -30 -39
-84 0 -34 -7 -56 -27 -85 -16 -22 -31 -40 -35 -41 -5 0 -8 52 -8 115 0 98 2
115 16 115 9 0 27 26 46 68 17 37 36 71 44 75 36 21 -10 109 -67 127 l-40 13
3 151 c2 94 7 150 13 149 6 -1 18 -5 27 -8 15 -6 18 -1 18 30 0 46 34 105 61
105 11 0 36 -7 56 -15 19 -8 43 -15 53 -15 10 0 23 -7 30 -15 7 -8 20 -15 30
-15 33 0 45 -43 31 -115 -6 -36 -9 -70 -6 -75 4 -6 23 -10 44 -10 48 0 89 -20
93 -45 2 -16 9 -19 35 -17 40 4 70 -11 106 -55 16 -18 44 -40 63 -48 47 -19
61 -53 45 -106 -8 -27 -9 -45 -3 -51 15 -15 51 8 58 37 10 41 29 49 53 24 22
-24 82 -49 118 -49 33 0 58 -30 78 -95 20 -61 34 -73 68 -58 12 6 35 16 51 22
22 9 26 14 17 25 -7 8 -8 17 -3 20 5 3 10 34 11 69 2 73 -22 117 -65 117 -13
0 -50 13 -81 30 -31 17 -61 30 -68 30 -7 0 -19 10 -27 22 -13 19 -23 22 -66
20 -54 -2 -114 24 -126 55 -8 20 21 53 46 53 16 0 23 11 19 34 -1 4 5 45 13
90 29 158 1 205 -122 206 -58 0 -76 4 -92 20 -35 35 -35 65 -1 117 17 26 37
65 43 88 6 22 15 45 20 52 5 6 8 28 7 50 -4 55 22 88 77 102 42 11 49 10 90
-14 23 -14 50 -35 58 -47 9 -12 50 -39 92 -59 73 -36 79 -37 110 -24 22 9 38
26 48 49 23 56 62 73 185 82 58 4 116 6 129 5 27 -3 29 20 7 63 -19 36 -19 56
0 56 9 0 25 9 37 20 12 11 31 20 42 20 27 0 91 23 94 33 9 33 -38 58 -95 50
-55 -7 -99 17 -108 59 -6 27 -3 35 20 54 15 12 45 25 66 28 41 7 58 26 61 73
3 33 44 72 76 73 12 0 22 4 22 9 0 15 63 71 80 71 10 0 37 15 61 33 51 37 86
55 112 56 14 1 16 -3 7 -18z m60 -6 c0 -2 -10 -10 -22 -16 -21 -11 -22 -11 -9
4 13 16 31 23 31 12z m-636 -22 c9 -22 -10 -41 -25 -26 -13 13 -5 43 10 43 5
0 12 -8 15 -17z m336 -35 c0 -15 -19 -8 -29 11 -14 25 0 37 16 15 7 -10 13
-21 13 -26z m1665 -28 c3 -5 1 -10 -4 -10 -6 0 -11 5 -11 10 0 6 2 10 4 10 3
0 8 -4 11 -10z m2170 -12 c48 -22 41 -88 -9 -88 -29 0 -43 11 -55 42 -9 23 -7
30 12 43 26 18 20 18 52 3z m-734 -65 c-5 -10 -27 -39 -50 -65 -23 -25 -41
-49 -41 -52 0 -15 -106 -186 -117 -190 -17 -7 -17 27 -1 72 11 29 10 35 -5 43
-9 6 -17 16 -17 24 0 15 96 100 157 138 23 14 44 31 48 37 3 5 13 10 21 10 11
0 12 -5 5 -17z m-1274 -178 c-14 -30 -27 -32 -27 -4 0 11 4 18 9 14 5 -3 12
-1 16 5 12 19 13 10 2 -15z m2253 0 c10 -12 10 -21 2 -40 -12 -25 -27 -30 -56
-19 -16 6 -22 54 -9 67 12 12 50 7 63 -8z m-5042 -16 c72 -25 36 -129 -45
-129 -45 0 -56 74 -17 114 15 14 28 26 29 26 1 0 16 -5 33 -11z m5467 -265
c29 -19 33 -36 8 -33 -10 1 -26 -1 -36 -6 -27 -11 -55 18 -37 39 16 20 34 20
65 0z m-579 -88 c22 -35 14 -68 -19 -84 -24 -12 -31 -11 -51 2 -28 18 -40 59
-26 86 16 30 75 27 96 -4z m-1136 0 c0 -3 -4 -8 -10 -11 -5 -3 -10 -1 -10 4 0
6 5 11 10 11 6 0 10 -2 10 -4z m1648 -34 c27 -20 32 -31 30 -56 -3 -28 -7 -31
-39 -34 -47 -4 -79 32 -79 90 0 37 1 38 28 32 15 -4 42 -18 60 -32z m-3621
-209 c-19 -44 -35 -68 -41 -63 -3 3 -8 25 -12 48 l-7 42 36 0 c36 0 36 0 24
-27z m836 20 c-7 -2 -19 -2 -25 0 -7 3 -2 5 12 5 14 0 19 -2 13 -5z m1167 -21
c0 -4 -9 -13 -20 -20 -22 -13 -27 -3 -8 16 14 14 28 16 28 4z m1640 -25 c0
-20 -21 -37 -45 -37 -23 0 -31 29 -11 42 18 13 56 9 56 -5z m-119 -37 c44 -24
1 -100 -57 -100 -28 0 -35 4 -40 26 -5 19 0 32 22 55 30 31 44 35 75 19z
m-1511 -80 c0 -5 -4 -10 -10 -10 -5 0 -10 5 -10 10 0 6 5 10 10 10 6 0 10 -4
10 -10z m-640 -96 c0 -2 -13 -10 -30 -19 -31 -16 -33 -16 -25 7 4 11 55 23 55
12z m-303 -20 c-3 -3 -12 -4 -19 -1 -8 3 -5 6 6 6 11 1 17 -2 13 -5z m833 -44
c0 -5 -5 -10 -11 -10 -5 0 -7 5 -4 10 3 6 8 10 11 10 2 0 4 -4 4 -10z m-3723
-12 c4 -7 6 -23 4 -35 -1 -13 2 -23 8 -23 6 0 11 -4 11 -10 0 -5 -6 -10 -13
-10 -8 0 -13 -10 -13 -22 1 -22 -3 -23 -64 -21 -58 1 -65 3 -68 22 -2 12 3 28
11 36 9 8 17 18 19 23 4 11 71 52 85 52 6 0 15 -6 20 -12z m1232 -238 c-65
-62 -89 -72 -48 -22 19 24 91 78 108 81 2 1 -25 -26 -60 -59z m2747 11 c-6
-46 -34 -137 -35 -116 -1 16 32 165 37 165 3 0 2 -22 -2 -49z m-1955 -74 c4
-5 11 -7 16 -4 6 4 21 -8 34 -26 30 -39 99 -156 99 -167 0 -4 7 -13 15 -20 8
-7 15 -19 15 -27 0 -8 -18 7 -40 32 -22 25 -40 43 -40 40 0 -10 22 -49 30 -55
7 -4 50 -77 50 -83 0 -2 -19 -3 -43 -5 -57 -2 -132 -38 -237 -111 -47 -33
-114 -75 -150 -92 -36 -17 -73 -36 -82 -40 -10 -5 -24 -9 -32 -9 -19 0 -118
-41 -137 -57 -8 -7 -19 -13 -22 -13 -4 0 -7 38 -7 84 0 62 4 89 15 100 8 8 57
35 107 61 51 26 102 55 113 64 14 12 28 16 45 11 16 -4 36 -1 55 9 17 9 41 18
54 21 18 4 25 12 25 33 1 15 -3 27 -9 27 -6 0 -12 12 -13 28 -1 15 -9 32 -18
39 -14 10 -14 14 1 42 15 30 35 42 35 21 0 -5 5 -10 11 -10 7 0 9 12 5 35 -8
41 6 72 37 85 24 9 58 3 68 -13z m2029 -137 c0 -5 -4 -10 -10 -10 -5 0 -10 5
-10 10 0 6 5 10 10 10 6 0 10 -4 10 -10z m2220 -14 c0 -14 -4 -27 -10 -31 -5
-3 -8 7 -7 25 2 36 17 41 17 6z m-3040 -136 c0 5 11 10 25 10 14 0 25 -4 25
-10 0 -5 -9 -10 -20 -10 -11 0 -20 -4 -20 -10 0 -5 6 -10 13 -10 10 0 13 -31
8 -70 -1 -3 -10 -6 -20 -6 -11 0 -17 5 -13 10 6 11 10 56 4 56 -2 0 -12 -5
-22 -10 -17 -9 -19 -7 -18 24 1 31 3 34 20 25 12 -6 18 -6 18 1z m-995 -20 c3
-5 1 -10 -4 -10 -6 0 -11 5 -11 10 0 6 2 10 4 10 3 0 8 -4 11 -10z m973 -88
c2 -7 -3 -12 -12 -12 -9 0 -16 7 -16 16 0 17 22 14 28 -4z m-2108 -166 c0 -3
-4 -8 -10 -11 -5 -3 -10 -1 -10 4 0 6 5 11 10 11 6 0 10 -2 10 -4z m-12 -76
c-7 -11 -15 -15 -17 -9 -2 6 3 15 10 20 20 12 21 11 7 -11z m-70 -68 c-31 -40
-48 -52 -48 -33 0 16 42 61 51 55 6 -3 5 -12 -3 -22z m62 9 c0 -12 -29 -35
-36 -28 -11 10 5 37 21 37 8 0 15 -4 15 -9z m-40 -61 c0 -5 -4 -10 -10 -10 -5
0 -10 5 -10 10 0 6 5 10 10 10 6 0 10 -4 10 -10z m1477 -165 c8 -8 13 -20 11
-26 -2 -5 -13 1 -26 15 -23 28 -11 37 15 11z m-1347 -25 c0 -11 -4 -20 -10
-20 -5 0 -10 9 -10 20 0 11 5 20 10 20 6 0 10 -9 10 -20z m1612 -30 c28 -28
43 -48 34 -44 -19 7 -47 32 -80 72 -35 40 -6 23 46 -28z m-3068 -55 c3 -8 2
-15 -3 -15 -5 0 -11 -10 -14 -22 -9 -33 -20 -14 -12 21 7 33 19 40 29 16z
m3214 -1 c28 -13 51 -34 39 -34 -13 0 -77 31 -82 40 -9 14 7 12 43 -6z m380 4
c1 -5 2 -16 2 -26 0 -22 -36 -27 -44 -6 -3 8 -15 14 -26 14 -11 0 -20 6 -20
13 0 13 83 18 88 5z m96 -15 c4 -11 10 -12 19 -5 13 10 49 10 57 -1 7 -9 -56
-42 -97 -51 -27 -6 -32 -5 -27 8 3 8 -1 23 -10 31 -16 17 -22 40 -8 31 4 -2
14 -1 22 4 17 10 37 3 44 -17z m123 1 c-3 -3 -12 -4 -19 -1 -8 3 -5 6 6 6 11
1 17 -2 13 -5z m-3293 -105 c-2 -44 -9 -89 -15 -100 -9 -18 -21 -75 -34 -169
-6 -40 -27 -144 -33 -160 -3 -8 -6 -26 -8 -40 -1 -14 -7 -50 -13 -80 -6 -30
-13 -71 -15 -90 -7 -43 -17 -90 -52 -240 -15 -63 -27 -125 -28 -137 -1 -13 -6
-23 -11 -23 -6 0 -16 46 -23 103 -6 56 -16 122 -21 147 -5 25 -16 79 -24 120
-16 75 -10 107 14 83 10 -10 14 -51 18 -170 1 -13 7 -23 15 -23 21 0 83 250
73 291 -3 12 -2 30 4 40 13 26 17 148 4 153 -5 3 -3 9 7 15 9 7 19 32 23 62 5
35 10 47 16 38 5 -8 9 -12 10 -9 0 3 2 13 4 23 2 13 -1 17 -11 13 -8 -3 -14
-1 -14 5 0 5 7 12 15 15 8 4 13 10 10 15 -3 4 3 24 14 45 11 20 17 43 14 52
-4 9 -2 13 4 9 7 -5 9 1 6 14 -4 14 0 25 10 30 8 5 19 23 22 40 12 54 23 13
19 -72z m2461 90 c11 -17 -1 -21 -15 -4 -8 9 -8 15 -2 15 6 0 14 -5 17 -11z
m-285 -19 c0 -5 -5 -10 -11 -10 -5 0 -7 5 -4 10 3 6 8 10 11 10 2 0 4 -4 4
-10z m315 0 c3 -5 1 -10 -4 -10 -6 0 -11 5 -11 10 0 6 2 10 4 10 3 0 8 -4 11
-10z m232 -16 c-3 -3 -12 -4 -19 -1 -8 3 -5 6 6 6 11 1 17 -2 13 -5z m38 -14
c3 -5 2 -10 -4 -10 -5 0 -13 5 -16 10 -3 6 -2 10 4 10 5 0 13 -4 16 -10z
m2635 0 c0 -5 -2 -10 -4 -10 -3 0 -8 5 -11 10 -3 6 -1 10 4 10 6 0 11 -4 11
-10z m-2564 -35 c10 -8 15 -14 9 -14 -5 0 -19 6 -29 14 -11 8 -15 15 -10 15 6
0 19 -7 30 -15z m-3439 -37 c-3 -8 -6 -5 -6 6 -1 11 2 17 5 13 3 -3 4 -12 1
-19z m6273 -34 c0 -8 -4 -12 -10 -9 -5 3 -10 10 -10 16 0 5 5 9 10 9 6 0 10
-7 10 -16z m-5330 -55 c0 -28 -5 -60 -11 -71 -6 -12 -11 -38 -11 -60 1 -21 -2
-38 -6 -38 -4 0 -8 -21 -9 -47 -1 -30 -7 -49 -17 -55 -9 -5 -16 -16 -16 -24 0
-8 -7 -17 -15 -20 -8 -4 -15 -16 -15 -29 0 -12 -13 -42 -30 -66 -16 -24 -30
-51 -30 -60 0 -9 -11 -33 -25 -52 -81 -121 -165 -345 -201 -540 -13 -71 -28
-145 -33 -166 -5 -20 -15 -61 -22 -91 -12 -55 -28 -90 -41 -90 -16 0 -18 43
-4 72 9 17 16 39 16 49 0 9 9 39 20 65 12 26 35 118 51 203 29 144 78 317 113
394 37 83 89 224 88 240 0 9 3 17 9 17 5 0 8 3 7 8 -5 17 14 82 24 82 5 0 8 7
4 15 -3 8 8 41 24 72 17 32 30 65 30 73 0 9 5 21 11 27 6 6 12 29 13 51 0 22
5 38 11 36 5 -2 16 9 23 26 22 48 42 39 42 -21z m4122 -26 c-6 -3 -10 -9 -6
-14 3 -5 0 -9 -5 -9 -15 0 -14 27 2 33 6 2 14 2 17 -1 3 -2 -1 -7 -8 -9z
m-1227 -23 c3 -6 -1 -7 -9 -4 -18 7 -21 14 -7 14 6 0 13 -4 16 -10z m-3910
-10 c3 -5 1 -10 -4 -10 -6 0 -11 5 -11 10 0 6 2 10 4 10 3 0 8 -4 11 -10z
m6374 -58 c1 -18 8 -46 16 -61 9 -17 13 -47 10 -77 -2 -27 1 -54 7 -62 9 -10
9 -15 0 -21 -7 -4 -10 -16 -7 -27 6 -17 6 -17 -5 -2 -11 17 -16 44 -25 118 -3
19 -8 47 -12 62 -11 37 -3 150 8 123 4 -11 8 -35 8 -53z m-6409 54 c0 -3 -4
-8 -10 -11 -5 -3 -10 -1 -10 4 0 6 5 11 10 11 6 0 10 -2 10 -4z m6191 -19 c-1
-12 -15 -9 -19 4 -3 6 1 10 8 8 6 -3 11 -8 11 -12z m-3411 -72 c-7 -8 -17 -15
-22 -15 -6 0 -5 7 2 15 7 8 17 15 22 15 6 0 5 -7 -2 -15z m240 -5 c0 -5 -4
-10 -10 -10 -5 0 -10 5 -10 10 0 6 5 10 10 10 6 0 10 -4 10 -10z m-2580 -70
c0 -19 -11 -26 -23 -14 -8 8 3 34 14 34 5 0 9 -9 9 -20z m2483 5 c-3 -9 -8
-14 -10 -11 -3 3 -2 9 2 15 9 16 15 13 8 -4z m-403 -16 c0 -5 5 -7 10 -4 6 3
10 4 10 1 0 -2 3 -11 6 -20 9 -22 -22 -21 -36 2 -9 16 -11 16 -21 -1 -11 -19
-29 -14 -29 8 0 13 17 21 48 24 6 0 12 -4 12 -10z m-229 -19 c11 0 19 -7 19
-17 0 -15 -2 -16 -10 -3 -5 8 -10 12 -12 10 -11 -14 -28 -63 -28 -78 1 -15 2
-16 13 -1 19 25 117 49 117 29 0 -6 7 -10 15 -10 11 0 14 -7 9 -25 -7 -27 4
-33 24 -13 9 9 12 8 12 -5 0 -13 5 -15 24 -7 19 7 26 5 31 -8 6 -15 8 -14 15
4 7 18 19 22 81 26 83 6 113 -7 124 -54 7 -32 29 -36 56 -12 11 10 25 13 38 9
27 -8 27 -25 1 -32 -11 -3 -20 -12 -20 -19 0 -17 27 -18 33 -1 4 9 6 9 6 0 1
-16 -19 -28 -49 -28 -18 0 -26 -6 -28 -23 -3 -22 18 -52 37 -52 14 0 14 -27 0
-36 -6 -3 -15 0 -20 7 -5 8 -19 14 -31 14 -29 0 -36 30 -13 55 23 26 11 60
-21 60 -22 0 -23 3 -14 20 7 14 7 20 0 20 -12 0 -35 -49 -45 -95 -7 -30 -7
-30 -16 -6 -5 13 -7 40 -4 60 5 34 4 35 -6 9 -7 -20 -18 -28 -34 -28 -31 0
-43 -20 -22 -35 10 -7 17 -20 17 -31 0 -14 -3 -15 -12 -6 -15 15 -28 15 -28 1
0 -16 -40 -49 -60 -49 -9 0 -23 -11 -30 -25 -7 -13 -17 -22 -21 -19 -5 3 -28
-8 -51 -23 -38 -25 -51 -29 -80 -24 -18 3 -23 0 -23 -11 0 -7 -15 -15 -32 -19
-18 -3 -33 -3 -33 1 0 15 -56 28 -75 18 -17 -10 -17 -12 5 -28 19 -14 21 -20
12 -36 -11 -18 -11 -18 -12 1 0 11 -10 26 -22 34 -20 12 -24 11 -45 -15 -13
-16 -23 -35 -23 -41 0 -7 -9 -13 -21 -13 -14 0 -19 5 -16 14 7 16 -16 24 -50
18 -26 -5 -31 -22 -8 -22 22 0 18 -18 -5 -25 -11 -4 -29 0 -42 9 -22 16 -92
21 -122 10 -25 -10 -19 -26 7 -19 14 5 19 4 12 -3 -5 -5 -23 -12 -39 -16 -22
-5 -27 -4 -23 7 3 7 -1 14 -8 14 -7 0 -10 -8 -7 -19 3 -14 0 -17 -12 -12 -10
4 -16 1 -16 -9 0 -9 -13 -17 -32 -20 -119 -20 -154 -29 -164 -42 -6 -8 -16
-15 -23 -15 -6 0 -11 -7 -11 -15 0 -19 -49 -51 -73 -47 -15 3 -18 0 -13 -13 4
-12 1 -16 -17 -13 -13 2 -21 -2 -20 -9 2 -7 -2 -13 -7 -13 -12 0 -13 50 -2 68
5 7 15 10 23 7 9 -3 21 11 37 45 13 27 32 54 42 60 11 6 17 16 14 25 -4 10 0
15 12 15 17 0 17 1 -1 13 -28 21 0 31 30 11 l26 -17 -12 27 c-11 23 -10 28 7
41 10 8 27 15 37 15 9 0 17 7 17 15 0 8 4 15 10 15 5 0 30 19 54 43 58 56 81
68 114 61 l27 -6 -25 21 c-19 16 -21 21 -9 21 9 0 19 7 23 15 3 8 13 15 22 15
23 0 11 24 -14 28 -22 3 -32 22 -12 22 17 0 11 45 -8 57 -14 8 -18 19 -14 43
4 26 6 29 14 16 14 -24 25 -19 32 14 5 27 9 30 31 24 14 -3 25 -2 25 4 0 14
57 35 76 28 9 -4 23 -1 31 5 10 9 20 9 39 -2 18 -9 27 -10 32 -2 4 6 22 8 40
5 27 -4 33 -8 29 -23 -6 -23 -3 -23 28 -3 14 9 25 23 25 30 0 17 -12 18 -27 3
-8 -8 -13 -8 -17 0 -4 6 4 15 20 21 21 8 31 7 45 -6 11 -10 22 -14 26 -11 3 4
12 2 20 -5 11 -8 17 -8 26 2 9 10 9 11 -1 6 -7 -4 -20 -2 -29 5 -14 12 -13 14
8 20 13 4 30 5 37 3 8 -2 22 -4 33 -4z m656 -22 c-3 -8 -6 -5 -6 6 -1 11 2 17
5 13 3 -3 4 -12 1 -19z m-2507 -43 c0 -27 -5 -45 -11 -45 -8 0 -8 -5 1 -15 10
-12 9 -15 -8 -15 -23 0 -35 32 -22 64 5 11 11 29 14 39 10 33 26 17 26 -28z
m2183 20 c-3 -9 -8 -14 -10 -11 -3 3 -2 9 2 15 9 16 15 13 8 -4z m323 -40 c-3
-13 1 -26 7 -28 7 -2 9 -8 5 -12 -5 -5 -16 -1 -27 9 -16 15 -19 15 -24 1 -4
-9 -1 -15 8 -15 8 0 15 -4 15 -10 0 -13 -5 -13 -82 9 -59 17 -67 17 -72 4 -5
-13 -10 -12 -26 6 -26 31 -16 54 21 46 16 -4 44 -1 64 6 27 10 38 10 47 1 15
-15 32 -16 23 -2 -11 18 5 31 26 20 13 -8 18 -18 15 -35z m-406 26 c0 -6 -4
-13 -10 -16 -5 -3 -10 1 -10 9 0 9 5 16 10 16 6 0 10 -4 10 -9z m135 -1 c3 -5
1 -10 -4 -10 -6 0 -11 5 -11 10 0 6 2 10 4 10 3 0 8 -4 11 -10z m345 -30 c0
-5 -7 -10 -15 -10 -18 0 -9 -29 14 -47 22 -16 33 -6 19 17 -18 29 0 37 20 9 9
-13 16 -27 14 -31 -1 -5 3 -8 9 -8 6 0 8 9 4 20 -6 18 -3 20 19 14 15 -3 32
-1 41 6 8 6 22 9 32 6 10 -3 35 -8 56 -10 54 -7 61 -15 32 -37 -13 -11 -29
-18 -34 -15 -5 3 -14 -1 -21 -9 -7 -8 -22 -15 -34 -15 -17 0 -18 -2 -6 -10 21
-14 36 -12 54 6 17 17 21 8 7 -15 -5 -7 -19 -14 -32 -15 -18 -1 -25 -8 -27
-28 -3 -29 -16 -37 -26 -15 -3 6 -4 0 -1 -14 3 -19 0 -29 -12 -33 -25 -10 -36
8 -22 35 36 70 37 66 -6 71 -25 2 -31 -1 -33 -19 -4 -27 -24 -31 -21 -5 3 31
-1 32 -22 11 -11 -11 -18 -27 -15 -34 3 -8 1 -17 -4 -20 -6 -4 -10 0 -10 9 0
8 -6 17 -12 20 -10 3 -9 8 4 18 24 20 25 57 3 101 -17 33 -17 39 -5 47 20 13
30 12 30 0z m-55 -60 c3 -5 1 -10 -4 -10 -6 0 -11 5 -11 10 0 6 2 10 4 10 3 0
8 -4 11 -10z m-2525 -10 c0 -5 -5 -10 -11 -10 -5 0 -7 5 -4 10 3 6 8 10 11 10
2 0 4 -4 4 -10z m-276 -82 c-11 -65 -29 -61 -30 7 -1 68 4 81 24 61 12 -12 13
-25 6 -68z m2719 56 c-3 -9 -9 -12 -12 -7 -3 4 -10 11 -15 16 -5 4 0 7 12 7
15 0 20 -4 15 -16z m-1123 -18 c0 -3 -4 -8 -10 -11 -5 -3 -10 -1 -10 4 0 6 5
11 10 11 6 0 10 -2 10 -4z m2005 -36 c10 -11 38 -26 62 -32 24 -5 43 -14 43
-19 0 -5 6 -9 14 -9 7 0 21 -16 30 -35 10 -20 22 -33 27 -29 13 7 49 -24 49
-43 0 -7 -5 -13 -11 -13 -5 0 -7 -5 -4 -10 4 -6 11 -8 16 -5 5 4 15 0 23 -8
12 -12 12 -16 -5 -28 -26 -18 -24 -29 6 -29 16 0 25 -6 25 -15 0 -8 5 -15 10
-15 6 0 10 -5 10 -10 0 -6 -11 -8 -25 -4 -25 6 -35 -8 -15 -21 6 -3 10 -12 10
-18 0 -8 -3 -7 -9 2 -5 7 -14 10 -20 7 -6 -4 -11 -4 -10 1 4 23 -3 33 -25 33
-14 0 -28 5 -31 10 -3 6 -1 10 4 10 6 0 11 7 11 16 0 10 -6 14 -14 11 -10 -4
-13 -1 -10 7 3 7 -2 16 -12 20 -13 5 -14 9 -4 21 7 9 10 18 7 21 -9 9 -27 -6
-27 -22 0 -8 -5 -12 -10 -9 -6 4 -8 11 -4 16 7 13 -25 38 -48 39 -10 0 -25 11
-34 24 -8 14 -21 23 -29 20 -15 -6 -45 33 -45 59 0 13 -5 17 -19 12 -10 -3
-24 1 -31 10 -11 13 -8 16 20 21 17 4 34 13 37 20 7 19 17 17 38 -6z m-1050
-20 c3 -5 2 -10 -4 -10 -5 0 -13 5 -16 10 -3 6 -2 10 4 10 5 0 13 -4 16 -10z
m85 0 c0 -5 -4 -10 -10 -10 -5 0 -10 5 -10 10 0 6 5 10 10 10 6 0 10 -4 10
-10z m50 -1 c0 -5 -4 -7 -10 -4 -5 3 -10 1 -10 -6 0 -7 -3 -10 -6 -6 -8 7 4
27 17 27 5 0 9 -5 9 -11z m102 -24 c-2 -14 -6 -25 -8 -25 -2 0 -4 11 -4 25 0
14 4 25 9 25 4 0 6 -11 3 -25z m-266 -32 c-11 -11 -17 4 -9 23 7 18 8 18 11 1
2 -10 1 -21 -2 -24z m404 7 c0 -14 -5 -18 -17 -13 -17 6 -17 6 0 -11 13 -14
26 -17 52 -12 39 8 47 -5 12 -21 -18 -9 -23 -19 -25 -59 -1 -31 -7 -51 -17
-57 -8 -4 -15 -17 -15 -28 0 -11 -7 -22 -16 -26 -15 -6 -15 -7 0 -19 17 -12
16 -14 -3 -33 -18 -18 -19 -21 -4 -29 15 -9 14 -13 -3 -43 -11 -19 -28 -34
-37 -34 -28 0 -37 -18 -28 -58 8 -32 6 -37 -9 -37 -29 0 -43 -25 -30 -51 11
-20 10 -21 -9 -16 -20 5 -31 -8 -11 -15 5 -2 11 -14 12 -27 2 -19 -3 -26 -21
-31 -27 -6 -41 -30 -19 -31 7 0 2 -5 -12 -10 -20 -8 -22 -12 -10 -19 17 -10
17 -10 -30 -40 -19 -12 -28 -20 -19 -17 21 7 14 -29 -7 -37 -17 -7 -18 -33 -1
-39 20 -6 -12 -37 -39 -37 -26 0 -30 -10 -14 -26 7 -7 4 -16 -10 -29 -11 -10
-20 -26 -20 -35 0 -10 -9 -20 -21 -23 -12 -3 -18 -10 -15 -16 4 -5 -2 -14 -11
-20 -16 -9 -16 -12 -3 -21 12 -8 9 -10 -12 -10 -24 0 -28 -4 -28 -30 0 -20 -9
-40 -25 -56 -14 -14 -25 -27 -25 -29 0 -6 -39 -45 -44 -45 -3 0 -7 10 -9 23
-3 15 -5 11 -6 -12 -1 -31 -3 -33 -14 -18 -7 10 -21 17 -32 16 -35 -4 -55 1
-55 11 0 6 10 8 24 4 16 -4 25 -1 29 10 4 9 13 13 22 10 8 -3 15 -1 15 5 0 10
-21 16 -43 12 -4 -1 6 23 23 54 22 40 29 62 24 82 -4 22 -3 25 5 13 7 -10 11
-11 11 -2 0 6 5 12 11 12 6 0 9 -9 6 -20 -7 -27 2 -25 12 3 6 17 4 25 -11 35
-18 13 -18 15 13 38 26 19 29 25 16 30 -24 9 -21 27 2 21 20 -5 32 15 35 58 0
11 7 26 14 34 7 7 11 20 8 27 -6 17 8 18 36 3 11 -6 22 -8 26 -5 7 7 -39 42
-50 38 -17 -5 -6 14 19 32 23 17 26 18 35 2 13 -23 31 -20 25 4 -3 11 -1 20 4
20 5 0 9 5 9 10 0 6 -12 10 -26 10 -31 0 -28 23 4 28 13 2 22 11 22 21 0 9 6
23 12 29 10 10 7 12 -12 10 -16 -2 -25 3 -28 15 -2 10 3 17 11 17 15 0 98 35
109 46 8 8 -16 34 -31 34 -5 0 -17 9 -25 21 -8 12 -19 18 -25 15 -5 -4 -12 -2
-16 4 -10 15 -36 12 -50 -7 -11 -15 -14 -15 -38 3 -29 21 -36 40 -11 30 9 -4
22 -2 29 4 6 5 45 11 86 12 56 2 80 7 94 20 14 14 15 18 4 20 -8 0 -18 2 -24
3 -5 2 -20 3 -32 4 -29 1 -31 31 -3 31 11 0 20 5 20 10 0 6 11 8 25 4 16 -4
25 -2 25 5 0 7 10 5 25 -5 24 -16 27 -16 40 2 9 11 12 30 9 47 -5 25 4 35 20
20 13 -13 36 -11 36 3 0 8 -13 17 -30 21 -21 4 -30 11 -30 26 0 11 -8 26 -17
33 -11 8 -13 13 -5 14 20 0 13 17 -10 23 -26 7 -16 21 15 22 15 0 22 6 22 20
0 17 6 19 48 16 37 -2 47 1 47 13 0 9 8 16 20 16 13 0 20 -7 20 -20z m-200 6
c0 -11 -19 -15 -25 -6 -3 5 1 10 9 10 9 0 16 -2 16 -4z m-2755 -148 c-9 -5
-12 -14 -8 -21 11 -18 10 -68 -2 -64 -16 6 -8 190 10 217 7 11 11 -4 13 -54 2
-55 0 -71 -13 -78z m3562 136 c-3 -3 -12 -4 -19 -1 -8 3 -5 6 6 6 11 1 17 -2
13 -5z m-1163 -49 c-4 -8 -8 -15 -10 -15 -2 0 -4 7 -4 15 0 8 4 15 10 15 5 0
7 -7 4 -15z m216 -6 c0 -5 -4 -9 -10 -9 -5 0 -10 7 -10 16 0 8 5 12 10 9 6 -3
10 -10 10 -16z m97 -35 c-9 -9 -28 6 -21 18 4 6 10 6 17 -1 6 -6 8 -13 4 -17z
m-52 6 c3 -5 1 -10 -4 -10 -6 0 -11 5 -11 10 0 6 2 10 4 10 3 0 8 -4 11 -10z
m345 -20 c0 -5 -5 -10 -11 -10 -5 0 -7 5 -4 10 3 6 8 10 11 10 2 0 4 -4 4 -10z
m2464 -11 c-6 -11 -24 -2 -24 11 0 5 7 7 15 4 8 -4 12 -10 9 -15z m-574 -9 c0
-5 -4 -10 -10 -10 -5 0 -10 5 -10 10 0 6 5 10 10 10 6 0 10 -4 10 -10z m-5062
-40 c30 -28 28 -30 -12 -11 -18 9 -32 19 -29 24 7 12 18 8 41 -13z m2920 -30
c1 -31 -14 -41 -24 -15 -7 18 2 45 14 45 5 0 9 -13 10 -30z m-558 -6 c0 -8
-10 -14 -22 -14 l-22 0 22 -20 c26 -25 27 -30 6 -30 -8 0 -12 5 -9 10 3 6 -1
11 -9 11 -51 4 -76 3 -76 -3 0 -5 7 -8 16 -8 8 0 12 -5 8 -11 -10 -17 -28 7
-30 41 -1 25 3 30 35 37 45 11 81 5 81 -13z m600 -20 c0 -16 -16 -19 -25 -4
-8 13 4 32 16 25 5 -4 9 -13 9 -21z m3365 -4 c-3 -5 -12 -10 -18 -10 -7 0 -6
4 3 10 19 12 23 12 15 0z m-6162 -30 c7 -27 -11 -36 -28 -14 -10 14 -10 21 -2
26 19 12 24 10 30 -12z m4015 -19 c-5 -25 -85 -25 -91 0 -3 10 -1 19 4 19 5 0
9 -5 9 -12 0 -8 5 -7 16 3 20 21 66 13 62 -10z m2162 14 c7 -9 19 -14 26 -11
7 3 13 -3 13 -15 1 -10 1 -28 2 -39 0 -22 15 -27 22 -7 8 23 19 -2 21 -48 1
-25 6 -49 12 -53 15 -9 37 -79 30 -91 -4 -5 -2 -21 4 -35 5 -14 7 -26 3 -26
-15 0 -111 142 -106 158 3 6 -3 12 -12 12 -11 0 -15 5 -12 14 7 19 -22 59 -39
52 -24 -9 -23 9 2 21 13 6 24 7 24 2 0 -5 4 -9 10 -9 14 0 0 63 -18 78 -9 6
-11 12 -5 12 6 0 16 -7 23 -15z m-3950 -5 c0 -5 -4 -10 -10 -10 -5 0 -10 5
-10 10 0 6 5 10 10 10 6 0 10 -4 10 -10z m257 -122 c-17 -10 -31 7 -23 28 6
16 8 16 20 -2 11 -14 11 -21 3 -26z m-393 -19 c-4 -8 -9 -7 -15 2 -5 9 -10 5
-14 -14 -10 -38 -25 -34 -25 7 0 28 4 35 23 38 24 4 42 -15 31 -33z m-64 -9
c0 -4 -7 -10 -15 -13 -16 -7 -29 8 -20 23 6 10 35 2 35 -10z m-90 -2 c-14 -5
-33 -14 -42 -19 -13 -7 -18 -5 -18 4 0 21 11 27 49 26 34 0 35 -1 11 -11z
m200 8 c0 -3 -4 -8 -10 -11 -5 -3 -10 -1 -10 4 0 6 5 11 10 11 6 0 10 -2 10
-4z m520 -31 c0 -8 -4 -15 -9 -15 -5 0 -11 7 -15 15 -3 9 0 15 9 15 8 0 15 -7
15 -15z m-865 -45 c10 0 15 -3 11 -7 -4 -5 -13 -8 -18 -8 -6 0 -13 -6 -16 -13
-3 -9 3 -13 14 -12 11 1 31 2 46 1 22 -1 25 -5 20 -23 -5 -21 -4 -22 11 -9 9
7 17 20 17 27 0 8 7 14 15 14 18 0 19 -12 3 -29 -11 -11 -7 -12 18 -7 24 5 33
3 37 -8 4 -10 1 -16 -8 -16 -8 0 -15 -5 -15 -11 0 -6 10 -8 23 -5 20 6 20 5 2
-3 -11 -5 -27 -12 -35 -16 -34 -14 -59 -32 -53 -38 3 -4 -3 -7 -15 -7 -12 0
-22 6 -22 14 0 19 -21 25 -50 14 l-25 -10 23 -11 c12 -5 22 -13 22 -17 0 -7
-38 -23 -51 -21 -4 0 -9 -9 -12 -19 -6 -24 19 -40 63 -40 38 0 37 -24 -1 -27
-31 -2 -109 -23 -132 -35 -13 -7 -24 -5 -35 5 -20 17 -42 12 -42 -9 0 -12 -4
-12 -25 2 -14 9 -24 22 -22 28 5 14 -46 36 -82 36 -29 -1 -71 -31 -71 -52 -1
-8 -4 -7 -11 5 -14 24 -39 21 -40 -5 0 -14 -7 -4 -16 25 -19 56 -12 67 45 67
36 0 40 7 15 25 -14 11 -13 13 11 19 31 8 60 32 69 59 4 9 13 17 22 17 9 0 25
9 37 19 11 11 38 23 59 26 22 4 43 14 48 23 9 16 12 16 39 0 34 -20 52 -9 52
32 0 38 10 43 35 20 12 -11 30 -20 40 -20z m771 -29 c-4 -5 6 -19 21 -31 l28
-21 -30 6 c-40 9 -51 21 -35 40 14 16 25 21 16 6z m-606 -11 c0 -5 -7 -10 -16
-10 -8 0 -12 5 -9 10 3 6 10 10 16 10 5 0 9 -4 9 -10z m48 -38 c2 -13 -2 -22
-10 -22 -7 0 -14 11 -14 25 -2 31 20 28 24 -3z m3012 -17 c0 -8 6 -12 14 -9 8
3 24 1 35 -6 17 -9 21 -8 21 5 0 17 16 20 25 5 3 -5 15 -10 25 -10 30 0 150
-63 150 -79 0 -9 8 -12 28 -8 18 4 35 -1 51 -14 13 -11 22 -22 19 -24 -3 -3
-11 1 -18 9 -10 13 -14 13 -26 1 -17 -17 -18 -28 -1 -22 6 2 24 0 39 -4 16 -4
30 -3 33 2 10 15 27 10 23 -8 -5 -25 -159 -76 -173 -57 -14 19 -44 11 -66 -17
-15 -20 -19 -21 -19 -6 0 18 -11 21 -46 11 -15 -4 -20 -11 -17 -25 3 -10 9
-16 14 -13 5 3 9 -2 9 -10 0 -9 -4 -16 -8 -16 -9 0 -7 -78 3 -110 3 -11 11
-20 16 -20 5 0 9 -7 9 -15 0 -8 7 -15 15 -15 17 0 20 -26 4 -36 -6 -3 -16 -1
-22 5 -7 7 -14 7 -23 0 -9 -8 -11 -5 -7 10 3 13 1 21 -7 21 -7 0 -10 8 -7 20
3 11 1 20 -4 20 -13 0 -40 59 -39 83 3 37 0 48 -10 42 -5 -3 -10 1 -10 10 0
18 -38 54 -57 55 -21 0 -15 16 12 30 27 14 33 30 12 30 -19 0 -17 68 2 75 14
5 14 7 1 15 -12 8 -13 13 -3 29 10 15 9 22 -2 31 -17 14 -20 30 -5 30 6 0 10
-7 10 -15z m-3040 -45 c0 -5 -5 -10 -11 -10 -5 0 -7 5 -4 10 3 6 8 10 11 10 2
0 4 -4 4 -10z m-20 -29 c0 -6 -4 -13 -10 -16 -5 -3 -10 1 -10 9 0 9 5 16 10
16 6 0 10 -4 10 -9z m-92 -113 c-6 -18 -28 -21 -28 -4 0 9 7 16 16 16 9 0 14
-5 12 -12z m2818 -28 c8 0 14 -2 14 -4 0 -2 3 -11 6 -20 4 -11 1 -16 -10 -16
-16 0 -37 39 -35 63 1 7 3 4 6 -5 2 -10 11 -18 19 -18z m-2896 10 c0 -5 -5
-10 -11 -10 -5 0 -7 5 -4 10 3 6 8 10 11 10 2 0 4 -4 4 -10z m2830 0 c0 -5 -2
-10 -4 -10 -3 0 -8 5 -11 10 -3 6 -1 10 4 10 6 0 11 -4 11 -10z m-3185 -9 c3
-5 1 -12 -5 -16 -5 -3 -10 1 -10 9 0 18 6 21 15 7z m63 -3 c10 -10 15 -10 22
2 8 12 10 11 10 -6 0 -17 -5 -21 -24 -19 -30 4 -46 13 -46 26 0 13 24 11 38
-3z m2868 -5 c16 -21 18 -53 5 -53 -6 0 -13 5 -16 10 -4 6 -11 8 -16 5 -16
-11 -9 7 9 21 16 13 16 13 -1 14 -10 0 -15 5 -12 10 9 14 16 12 31 -7z m374 2
c0 -8 -4 -15 -9 -15 -5 0 -11 7 -15 15 -3 9 0 15 9 15 8 0 15 -7 15 -15z
m-130 -25 c0 -5 -5 -10 -11 -10 -5 0 -7 5 -4 10 3 6 8 10 11 10 2 0 4 -4 4
-10z m740 -18 c22 -22 27 -31 18 -40 -9 -9 -8 -12 5 -12 15 0 16 -3 7 -20 -8
-14 -17 -19 -30 -15 -29 9 -34 -14 -6 -25 14 -5 26 -17 26 -26 0 -12 6 -15 23
-11 22 6 21 6 -3 -14 -14 -13 -26 -16 -28 -10 -2 6 -9 11 -16 11 -7 0 -18 12
-25 26 -9 21 -14 24 -26 14 -15 -12 -35 -6 -35 11 0 6 4 8 9 5 5 -4 6 4 3 16
-5 19 -7 20 -10 5 -4 -21 -33 -19 -40 2 -3 9 0 11 8 6 9 -6 11 1 6 26 -4 25
-4 29 3 14 5 -11 10 -15 10 -8 1 6 10 15 21 18 11 3 20 12 20 19 0 11 19 36
27 36 2 0 17 -13 33 -28z m-700 8 c0 -5 -4 -10 -10 -10 -5 0 -10 5 -10 10 0 6
5 10 10 10 6 0 10 -4 10 -10z m-2394 -13 c4 -3 1 -13 -5 -21 -10 -11 -19 -12
-42 -4 -41 14 -38 37 5 35 19 -2 38 -6 42 -10z m-312 -6 c4 -5 0 -12 -6 -15
-9 -3 -7 -9 6 -20 22 -18 17 -30 -8 -20 -10 4 -16 17 -16 35 0 28 13 39 24 20z
m216 1 c0 -13 -12 -22 -22 -16 -10 6 -1 24 13 24 5 0 9 -4 9 -8z m1794 -25
c11 -8 17 -20 14 -27 -3 -10 -8 -9 -20 4 -20 19 -39 21 -56 4 -9 -9 -12 -9
-12 3 0 9 3 19 7 22 11 11 48 8 67 -6z m356 3 c0 -5 -5 -10 -11 -10 -5 0 -7 5
-4 10 3 6 8 10 11 10 2 0 4 -4 4 -10z m95 1 c8 -14 -13 -24 -33 -16 -14 5 -14
7 -2 15 19 12 27 12 35 1z m-2670 -42 c-4 -6 -7 -26 -7 -45 0 -27 -4 -34 -19
-34 -11 0 -19 7 -19 16 0 8 5 12 10 9 6 -3 10 0 10 9 0 8 -5 16 -11 18 -8 3
-6 10 5 21 19 19 41 23 31 6z m-1755 -20 c0 -4 -7 -6 -15 -3 -8 4 -15 10 -15
15 0 4 7 6 15 3 8 -4 15 -10 15 -15z m4024 6 c3 -8 16 -15 28 -15 23 0 23 0
-2 -13 -18 -10 -32 -11 -47 -4 -26 12 -28 18 -11 35 16 16 25 15 32 -3z m421
-19 c12 -12 12 -15 -3 -22 -14 -6 -11 -8 13 -13 17 -3 29 -11 27 -16 -5 -16
-52 -5 -75 16 -20 18 -20 19 -1 20 10 0 13 3 7 6 -7 2 -13 9 -13 14 0 14 30
11 45 -5z m45 -1 c0 -8 -4 -15 -8 -15 -5 0 -9 7 -9 15 0 8 4 15 9 15 4 0 8 -7
8 -15z m685 -5 c3 -5 1 -10 -4 -10 -6 0 -11 5 -11 10 0 6 2 10 4 10 3 0 8 -4
11 -10z m52 -12 c-3 -8 -6 -5 -6 6 -1 11 2 17 5 13 3 -3 4 -12 1 -19z m225 0
c-7 -7 -12 -8 -12 -2 0 14 12 26 19 19 2 -3 -1 -11 -7 -17z m-5427 2 c3 -5 2
-10 -4 -10 -5 0 -13 5 -16 10 -3 6 -2 10 4 10 5 0 13 -4 16 -10z m5250 -10 c3
-5 2 -10 -4 -10 -5 0 -13 5 -16 10 -3 6 -2 10 4 10 5 0 13 -4 16 -10z m-3579
-32 c-1 -13 -7 -32 -14 -43 -9 -17 -11 -14 -7 20 2 22 4 41 4 43 1 1 5 2 10 2
5 0 9 -10 7 -22z m3648 3 c26 -29 34 -72 20 -116 -12 -39 -13 -39 -15 -10 -1
17 -1 46 0 65 2 28 -3 39 -26 57 -19 16 -23 23 -12 23 9 0 23 -8 33 -19z
m-3354 -6 c11 -13 10 -18 -6 -29 -18 -14 -18 -15 -1 -33 9 -11 17 -25 17 -32
0 -7 8 -11 18 -10 39 4 62 -2 62 -15 0 -8 7 -16 15 -20 8 -3 15 -15 15 -26 0
-17 -3 -19 -17 -11 -12 6 -20 5 -28 -4 -5 -7 -24 -16 -42 -20 -27 -5 -31 -4
-27 12 2 10 0 25 -5 33 -8 12 -13 11 -30 -9 -16 -19 -23 -21 -40 -11 -14 7
-21 7 -21 0 0 -5 -4 -10 -10 -10 -18 0 -11 18 10 25 11 3 20 10 20 15 0 5 -16
2 -36 -6 l-35 -15 3 28 c3 26 6 28 48 28 35 0 44 4 41 15 -3 14 -8 42 -10 63
-1 5 -13 7 -28 6 -47 -3 -74 1 -69 10 3 5 26 7 50 6 31 -2 46 1 50 11 7 19 40
18 56 -1z m-360 -12 c-1 -14 -34 -50 -52 -56 -13 -5 -18 -1 -18 13 0 13 7 20
20 20 11 0 20 7 20 15 0 8 7 15 15 15 8 0 15 -3 15 -7z m114 -13 c-21 -8 -37
-3 -29 10 3 4 15 6 27 2 21 -5 21 -6 2 -12z m3576 10 c11 -8 7 -9 -15 -4 -37
8 -45 14 -19 14 10 0 26 -5 34 -10z m-3120 -4 c0 -2 -9 -6 -20 -9 -11 -3 -18
-1 -14 4 5 9 34 13 34 5z m2445 -6 c-3 -5 -11 -10 -16 -10 -6 0 -7 5 -4 10 3
6 11 10 16 10 6 0 7 -4 4 -10z m814 6 c-12 -10 -60 -16 -54 -6 3 5 18 10 32
10 15 0 24 -2 22 -4z m-3583 -70 c-2 -6 -5 -3 -5 8 -1 12 -6 16 -16 12 -9 -3
-15 0 -15 8 0 8 6 16 13 19 13 4 30 -30 23 -47z m-106 34 c0 -5 -9 -10 -21
-10 -11 0 -17 5 -14 10 3 6 13 10 21 10 8 0 14 -4 14 -10z m-421 -19 c16 -10
5 -34 -12 -25 -7 3 -4 -1 7 -10 18 -14 17 -15 -7 -21 -26 -7 -44 -36 -32 -54
3 -5 1 -12 -5 -16 -6 -4 -10 4 -10 19 0 14 -4 27 -10 31 -17 11 26 85 49 85 3
0 12 -4 20 -9z m4078 3 c-3 -3 -12 -4 -19 -1 -8 3 -5 6 6 6 11 1 17 -2 13 -5z
m-3622 -14 c-3 -5 -11 -10 -16 -10 -6 0 -7 5 -4 10 3 6 11 10 16 10 6 0 7 -4
4 -10z m378 -10 c-3 -11 -9 -17 -15 -14 -5 3 -4 12 3 20 16 19 18 18 12 -6z
m3042 10 c-3 -5 -10 -10 -16 -10 -5 0 -9 5 -9 10 0 6 7 10 16 10 8 0 12 -4 9
-10z m-3495 -4 c0 -3 -4 -8 -10 -11 -5 -3 -10 -1 -10 4 0 6 5 11 10 11 6 0 10
-2 10 -4z m410 -16 c0 -5 -5 -10 -11 -10 -5 0 -7 5 -4 10 3 6 8 10 11 10 2 0
4 -4 4 -10z m-350 -25 c0 -14 -4 -25 -10 -25 -11 0 -14 33 -3 43 11 11 13 8
13 -18z m-60 -15 c0 -5 -7 -10 -15 -10 -8 0 -15 5 -15 10 0 6 7 10 15 10 8 0
15 -4 15 -10z m-45 -40 c3 -5 1 -10 -4 -10 -6 0 -11 5 -11 10 0 6 2 10 4 10 3
0 8 -4 11 -10z m3555 -4 c0 -9 -30 -14 -35 -6 -4 6 3 10 14 10 12 0 21 -2 21
-4z"/>
<path d="M670 8070 c0 -5 7 -10 16 -10 8 0 12 5 9 10 -3 6 -10 10 -16 10 -5 0
-9 -4 -9 -10z"/>
<path d="M1518 7158 c-6 -51 6 -78 32 -78 26 0 26 29 0 80 -11 22 -22 40 -24
40 -2 0 -6 -19 -8 -42z"/>
<path d="M1094 6209 c-8 -14 11 -33 25 -25 6 4 11 14 11 22 0 16 -26 19 -36 3z"/>
<path d="M3365 6029 c-10 -15 3 -25 16 -12 7 7 7 13 1 17 -6 3 -14 1 -17 -5z"/>
<path d="M3330 5910 c0 -5 5 -10 10 -10 6 0 10 5 10 10 0 6 -4 10 -10 10 -5 0
-10 -4 -10 -10z"/>
<path d="M3434 5802 c4 -7 3 -19 -4 -27 -7 -8 -7 -15 -1 -19 15 -10 25 34 11
48 -10 8 -11 8 -6 -2z"/>
<path d="M3296 5755 c4 -8 12 -15 20 -15 20 0 17 7 -6 20 -16 9 -18 8 -14 -5z"/>
<path d="M3367 5750 c-9 -11 -26 -20 -38 -20 -17 0 -20 -5 -16 -21 9 -33 -9
-69 -34 -69 -15 0 -19 -4 -15 -16 4 -11 -3 -19 -24 -27 -16 -6 -30 -14 -30
-18 0 -13 33 -20 44 -9 5 5 19 10 30 10 19 0 19 0 1 -14 -21 -15 -14 -46 10
-46 9 0 14 4 10 9 -3 5 17 29 45 52 27 23 50 46 50 51 0 5 -4 6 -10 3 -5 -3
-10 -2 -10 3 0 5 -12 22 -27 37 -27 26 -27 27 -8 41 10 8 27 14 37 14 11 0 18
7 18 20 0 11 -3 20 -8 20 -4 0 -15 -9 -25 -20z m-17 -119 c0 -5 -7 -12 -16
-15 -8 -3 -12 -11 -8 -17 4 -7 1 -10 -7 -7 -8 3 -15 14 -17 26 -3 18 2 22 22
22 14 0 26 -4 26 -9z"/>
<path d="M3607 5729 c-21 -12 -22 -35 -1 -43 12 -5 14 -1 9 15 -5 14 -3 19 3
15 6 -3 13 -2 16 3 9 15 -7 21 -27 10z"/>
<path d="M2715 5720 c-3 -5 -2 -10 4 -10 5 0 13 5 16 10 3 6 2 10 -4 10 -5 0
-13 -4 -16 -10z"/>
<path d="M3215 5670 c-3 -5 -2 -10 4 -10 5 0 13 5 16 10 3 6 2 10 -4 10 -5 0
-13 -4 -16 -10z"/>
<path d="M2824 5635 c0 -14 6 -25 12 -25 6 0 17 -7 25 -16 10 -13 10 -17 -1
-24 -8 -5 -11 -12 -7 -16 8 -9 36 25 37 44 0 8 -9 16 -20 19 -11 3 -20 14 -20
24 0 11 -6 19 -14 19 -9 0 -13 -10 -12 -25z"/>
<path d="M2731 5634 c0 -11 3 -14 6 -6 3 7 2 16 -1 19 -3 4 -6 -2 -5 -13z"/>
<path d="M3425 5600 c-3 -5 -1 -10 4 -10 6 0 11 5 11 10 0 6 -2 10 -4 10 -3 0
-8 -4 -11 -10z"/>
<path d="M3478 5573 c7 -3 16 -2 19 1 4 3 -2 6 -13 5 -11 0 -14 -3 -6 -6z"/>
<path d="M3617 5563 c-4 -3 -7 -11 -7 -17 0 -6 5 -5 12 2 6 6 9 14 7 17 -3 3
-9 2 -12 -2z"/>
<path d="M3350 5539 c0 -5 5 -7 10 -4 6 3 10 8 10 11 0 2 -4 4 -10 4 -5 0 -10
-5 -10 -11z"/>
<path d="M3585 5540 c3 -5 8 -10 11 -10 2 0 4 5 4 10 0 6 -5 10 -11 10 -5 0
-7 -4 -4 -10z"/>
<path d="M2877 5533 c-11 -10 13 -33 34 -33 22 0 24 11 7 28 -13 13 -31 16
-41 5z"/>
<path d="M3511 5494 c0 -11 3 -14 6 -6 3 7 2 16 -1 19 -3 4 -6 -2 -5 -13z"/>
<path d="M3280 5480 c0 -5 5 -10 11 -10 5 0 7 5 4 10 -3 6 -8 10 -11 10 -2 0
-4 -4 -4 -10z"/>
<path d="M3600 5478 c0 -18 18 -34 28 -24 3 4 -2 14 -11 23 -16 16 -17 16 -17
1z"/>
<path d="M3580 5427 c0 -7 9 -13 20 -14 11 -1 20 4 20 10 0 7 -9 13 -20 14
-11 1 -20 -4 -20 -10z"/>
<path d="M3580 5385 c0 -8 4 -15 10 -15 5 0 7 7 4 15 -4 8 -8 15 -10 15 -2 0
-4 -7 -4 -15z"/>
<path d="M2996 5295 c4 -15 2 -25 -5 -25 -13 0 -10 -42 4 -52 17 -13 35 -9 35
7 0 8 -7 15 -15 15 -8 0 -15 5 -15 10 0 6 6 10 14 10 8 0 18 5 21 10 11 18 -6
50 -26 50 -16 0 -18 -5 -13 -25z"/>
<path d="M3560 5274 c0 -8 5 -12 10 -9 6 4 8 11 5 16 -9 14 -15 11 -15 -7z"/>
<path d="M3434 4849 c0 -22 12 -25 19 -5 3 8 0 16 -6 19 -7 3 -13 -3 -13 -14z"/>
<path d="M3298 4843 c7 -3 16 -2 19 1 4 3 -2 6 -13 5 -11 0 -14 -3 -6 -6z"/>
<path d="M4270 5524 c-44 -15 -78 -39 -69 -48 2 -2 15 -7 29 -10 20 -5 35 2
70 33 48 43 41 49 -30 25z"/>
<path d="M4010 5435 c-8 -10 -10 -19 -4 -25 5 -5 14 1 21 16 12 27 2 32 -17 9z"/>
<path d="M3527 4239 c3 -10 9 -16 14 -13 13 8 11 21 -5 27 -10 4 -12 0 -9 -14z"/>
<path d="M3555 4100 c-3 -5 -1 -10 4 -10 6 0 11 5 11 10 0 6 -2 10 -4 10 -3 0
-8 -4 -11 -10z"/>
<path d="M3533 4060 c-3 -11 -10 -17 -15 -14 -5 3 -4 -3 4 -15 18 -29 24 -26
25 14 1 39 -6 46 -14 15z"/>
<path d="M3480 3906 c0 -9 5 -16 10 -16 6 0 10 4 10 9 0 6 -4 13 -10 16 -5 3
-10 -1 -10 -9z"/>
<path d="M3405 3790 c-3 -5 -2 -10 4 -10 5 0 13 5 16 10 3 6 2 10 -4 10 -5 0
-13 -4 -16 -10z"/>
<path d="M3424 3765 c-10 -8 -14 -15 -8 -15 6 0 17 7 24 15 16 19 9 19 -16 0z"/>
<path d="M3455 3710 c-3 -5 -2 -10 4 -10 5 0 13 5 16 10 3 6 2 10 -4 10 -5 0
-13 -4 -16 -10z"/>
<path d="M3472 3675 c-7 -8 -9 -15 -4 -15 5 0 15 7 22 15 16 19 -1 19 -18 0z"/>
<path d="M3655 3670 c-3 -6 1 -7 9 -4 18 7 21 14 7 14 -6 0 -13 -4 -16 -10z"/>
<path d="M3900 3608 c0 -4 4 -8 9 -8 6 0 12 4 15 8 3 5 -1 9 -9 9 -8 0 -15 -4
-15 -9z"/>
<path d="M3975 3607 c-11 -7 -22 -15 -25 -18 -3 -3 -10 -8 -15 -10 -26 -10
-125 -75 -125 -81 0 -17 31 -6 62 22 18 17 37 30 43 30 5 0 28 16 50 35 41 35
45 42 10 22z"/>
<path d="M4020 3604 c0 -8 5 -12 10 -9 6 3 10 10 10 16 0 5 -4 9 -10 9 -5 0
-10 -7 -10 -16z"/>
<path d="M3850 3600 c-24 -8 -23 -8 8 -9 17 -1 32 4 32 9 0 11 -5 11 -40 0z"/>
<path d="M3788 3563 c12 -2 30 -2 40 0 9 3 -1 5 -23 4 -22 0 -30 -2 -17 -4z"/>
<path d="M3710 3536 c0 -2 9 -6 20 -9 11 -3 20 -1 20 4 0 5 -9 9 -20 9 -11 0
-20 -2 -20 -4z"/>
<path d="M3702 3503 c-12 -2 -20 -9 -17 -14 4 -5 14 -5 25 1 12 6 21 7 25 0 7
-11 35 -2 35 11 0 9 -26 10 -68 2z"/>
<path d="M4572 3899 c-7 -10 -8 -19 -3 -19 13 0 33 28 23 33 -4 3 -13 -3 -20
-14z"/>
<path d="M4545 3750 c-3 -5 -1 -10 4 -10 6 0 11 5 11 10 0 6 -2 10 -4 10 -3 0
-8 -4 -11 -10z"/>
<path d="M4520 3484 c0 -8 5 -12 10 -9 6 3 10 10 10 16 0 5 -4 9 -10 9 -5 0
-10 -7 -10 -16z"/>
<path d="M4185 2929 c-9 -14 -2 -20 14 -10 8 6 9 11 3 15 -6 3 -14 1 -17 -5z"/>
<path d="M6080 2910 c8 -5 20 -10 25 -10 6 0 3 5 -5 10 -8 5 -19 10 -25 10 -5
0 -3 -5 5 -10z"/>
<path d="M4165 2891 c-7 -12 12 -24 25 -16 11 7 4 25 -10 25 -5 0 -11 -4 -15
-9z"/>
<path d="M6128 2893 c7 -3 16 -2 19 1 4 3 -2 6 -13 5 -11 0 -14 -3 -6 -6z"/>
<path d="M6178 2883 c6 -2 18 -2 25 0 6 3 1 5 -13 5 -14 0 -19 -2 -12 -5z"/>
<path d="M6228 2873 c7 -3 16 -2 19 1 4 3 -2 6 -13 5 -11 0 -14 -3 -6 -6z"/>
<path d="M4215 2860 c-3 -5 -1 -10 4 -10 6 0 11 5 11 10 0 6 -2 10 -4 10 -3 0
-8 -4 -11 -10z"/>
<path d="M4155 2830 c-3 -5 -2 -10 4 -10 5 0 13 5 16 10 3 6 2 10 -4 10 -5 0
-13 -4 -16 -10z"/>
<path d="M3995 2560 c-8 -12 20 -24 35 -15 6 3 8 11 5 16 -8 12 -32 12 -40 -1z"/>
<path d="M6655 2560 c3 -5 11 -10 16 -10 6 0 7 5 4 10 -3 6 -11 10 -16 10 -6
0 -7 -4 -4 -10z"/>
<path d="M3990 2480 c-13 -8 -12 -10 3 -10 9 0 17 5 17 10 0 12 -1 12 -20 0z"/>
<path d="M6640 2410 c0 -5 5 -10 11 -10 5 0 7 5 4 10 -3 6 -8 10 -11 10 -2 0
-4 -4 -4 -10z"/>
<path d="M6590 2160 c0 -5 5 -10 10 -10 6 0 10 5 10 10 0 6 -4 10 -10 10 -5 0
-10 -4 -10 -10z"/>
<path d="M6310 1781 c0 -5 5 -13 10 -16 6 -3 10 -2 10 4 0 5 -4 13 -10 16 -5
3 -10 2 -10 -4z"/>
<path d="M6170 1648 c0 -19 2 -20 10 -8 13 19 13 30 0 30 -5 0 -10 -10 -10
-22z"/>
<path d="M6200 1646 c0 -8 5 -18 10 -21 6 -3 10 3 10 14 0 12 -4 21 -10 21 -5
0 -10 -6 -10 -14z"/>
<path d="M6272 1640 c-7 -11 -8 -20 -3 -20 9 0 24 30 18 36 -1 2 -8 -6 -15
-16z"/>
<path d="M5265 1629 c-4 -6 -4 -13 -1 -16 8 -8 36 5 36 17 0 13 -27 13 -35 -1z"/>
<path d="M4350 1609 c0 -5 9 -9 20 -9 11 0 20 2 20 4 0 2 -9 6 -20 9 -11 3
-20 1 -20 -4z"/>
<path d="M5225 1610 c-3 -5 1 -10 9 -10 9 0 16 5 16 10 0 6 -4 10 -9 10 -6 0
-13 -4 -16 -10z"/>
<path d="M5354 1611 c3 -5 19 -11 35 -13 21 -3 28 -1 24 9 -3 7 -18 13 -35 13
-16 0 -27 -4 -24 -9z"/>
<path d="M5450 1602 c0 -5 7 -9 15 -9 8 0 15 4 15 9 0 4 -7 8 -15 8 -8 0 -15
-4 -15 -8z"/>
<path d="M6220 1594 c0 -14 3 -14 15 -4 8 7 15 14 15 16 0 2 -7 4 -15 4 -8 0
-15 -7 -15 -16z"/>
<path d="M4595 1499 c-19 -7 -18 -10 8 -13 6 -1 11 -7 10 -14 -4 -16 24 -15
30 1 7 19 -24 36 -48 26z"/>
<path d="M4664 1468 c-1 -29 0 -30 12 -13 15 20 14 37 -2 42 -5 2 -10 -11 -10
-29z"/>
<path d="M4740 1490 c0 -5 5 -10 10 -10 6 0 10 5 10 10 0 6 -4 10 -10 10 -5 0
-10 -4 -10 -10z"/>
<path d="M4700 1465 c0 -28 12 -32 30 -10 14 16 6 35 -16 35 -8 0 -14 -10 -14
-25z"/>
<path d="M4781 1458 c11 -21 -1 -24 -20 -5 -11 10 -13 10 -7 0 5 -8 1 -13 -9
-13 -9 0 -13 -5 -10 -10 5 -8 11 -7 21 1 10 8 14 8 14 0 0 -14 20 -14 40 -1
13 9 13 11 0 20 -13 8 -12 10 3 10 10 0 15 4 12 10 -3 5 -17 9 -30 8 -19 -2
-22 -5 -14 -20z"/>
<path d="M4665 1410 c4 -6 11 -8 16 -5 14 9 11 15 -7 15 -8 0 -12 -5 -9 -10z"/>
<path d="M5595 1272 c-7 -20 -1 -25 24 -17 26 8 27 21 2 28 -12 3 -22 -1 -26
-11z"/>
<path d="M4935 1270 c-3 -5 -1 -10 4 -10 6 0 11 5 11 10 0 6 -2 10 -4 10 -3 0
-8 -4 -11 -10z"/>
<path d="M4565 1091 c-3 -5 -1 -12 5 -16 5 -3 10 1 10 9 0 18 -6 21 -15 7z"/>
<path d="M5690 1089 c-19 -4 -39 -5 -44 -2 -5 3 -6 0 -4 -8 4 -10 18 -13 51
-11 26 2 47 -1 47 -6 0 -12 55 -35 71 -30 6 2 -11 17 -37 34 -41 25 -55 29
-84 23z"/>
<path d="M5690 980 c0 -5 7 -10 15 -10 8 0 15 5 15 10 0 6 -7 10 -15 10 -8 0
-15 -4 -15 -10z"/>
<path d="M5246 855 c-3 -9 0 -15 9 -15 8 0 15 7 15 15 0 8 -4 15 -9 15 -5 0
-11 -7 -15 -15z"/>
<path d="M5346 741 c-4 -5 -2 -12 3 -15 5 -4 12 -2 15 3 4 5 2 12 -3 15 -5 4
-12 2 -15 -3z"/>
<path d="M5350 699 c0 -5 5 -7 10 -4 6 3 10 8 10 11 0 2 -4 4 -10 4 -5 0 -10
-5 -10 -11z"/>
<path d="M82 4050 c-13 -22 -16 -70 -4 -70 18 0 32 26 32 57 0 38 -10 42 -28
13z"/>
<path d="M920 3257 c-16 -22 -30 -48 -30 -58 0 -14 6 -15 43 -7 86 19 92 19
131 -4 22 -13 39 -27 37 -33 -5 -20 80 -34 107 -17 19 13 6 34 -45 77 -40 34
-52 38 -92 36 -36 -1 -56 4 -84 23 l-36 25 -31 -42z"/>
<path d="M646 2871 c-3 -4 -26 -11 -52 -15 -59 -8 -114 -40 -107 -64 3 -11 -6
-23 -26 -35 -17 -10 -31 -21 -31 -25 1 -15 40 -53 49 -48 5 3 11 -1 15 -9 3
-8 12 -12 20 -9 9 3 20 -3 28 -15 17 -28 32 -26 77 10 37 29 53 63 65 137 9
50 -19 104 -38 73z"/>
<path d="M571 2479 c-42 -16 -15 -21 31 -5 31 11 36 15 18 15 -14 0 -36 -5
-49 -10z"/>
<path d="M322 2437 c-6 -7 -9 -23 -5 -35 6 -26 5 -25 38 -10 18 8 25 18 23 32
-4 25 -40 33 -56 13z"/>
<path d="M377 2193 c-3 -5 -2 -15 2 -22 7 -10 10 -10 16 -1 4 6 3 16 -3 22 -5
5 -12 6 -15 1z"/>
<path d="M481 2114 c0 -11 3 -14 6 -6 3 7 2 16 -1 19 -3 4 -6 -2 -5 -13z"/>
<path d="M450 2087 c0 -9 -3 -24 -6 -34 -5 -15 -4 -16 6 -3 9 12 10 9 7 -15
-2 -16 -2 -24 0 -17 3 6 8 12 13 12 13 0 8 43 -7 58 -11 11 -13 11 -13 -1z"/>
<path d="M2671 2854 c0 -11 3 -14 6 -6 3 7 2 16 -1 19 -3 4 -6 -2 -5 -13z"/>
<path d="M2160 1459 c0 -5 5 -7 10 -4 6 3 10 8 10 11 0 2 -4 4 -10 4 -5 0 -10
-5 -10 -11z"/>
<path d="M2680 1375 c0 -8 5 -15 10 -15 6 0 10 7 10 15 0 8 -4 15 -10 15 -5 0
-10 -7 -10 -15z"/>
<path d="M2795 1360 c3 -5 8 -10 11 -10 2 0 4 5 4 10 0 6 -5 10 -11 10 -5 0
-7 -4 -4 -10z"/>
<path d="M2750 1340 c0 -5 5 -10 10 -10 6 0 10 5 10 10 0 6 -4 10 -10 10 -5 0
-10 -4 -10 -10z"/>
<path d="M2660 1294 c0 -8 5 -12 10 -9 6 3 10 10 10 16 0 5 -4 9 -10 9 -5 0
-10 -7 -10 -16z"/>
<path d="M2550 1136 c0 -9 5 -16 10 -16 6 0 10 4 10 9 0 6 -4 13 -10 16 -5 3
-10 -1 -10 -9z"/>
<path d="M3190 1185 c0 -8 5 -15 10 -15 6 0 10 7 10 15 0 8 -4 15 -10 15 -5 0
-10 -7 -10 -15z"/>
<path d="M3223 1143 c9 -2 17 -11 17 -19 0 -8 10 -14 25 -14 14 0 28 -1 33 -2
4 -2 8 7 10 20 4 26 -13 29 -27 5 -10 -17 -10 -17 -11 0 0 13 -8 17 -32 16
-18 -1 -25 -3 -15 -6z"/>
<path d="M3065 840 c-3 -5 -1 -10 4 -10 6 0 11 5 11 10 0 6 -2 10 -4 10 -3 0
-8 -4 -11 -10z"/>
<path d="M3016 655 c4 -8 8 -15 10 -15 2 0 4 7 4 15 0 8 -4 15 -10 15 -5 0 -7
-7 -4 -15z"/>
<path d="M2875 450 c-3 -5 -1 -10 4 -10 6 0 11 5 11 10 0 6 -2 10 -4 10 -3 0
-8 -4 -11 -10z"/>
<path d="M2915 450 c-3 -5 1 -10 10 -10 9 0 13 5 10 10 -3 6 -8 10 -10 10 -2
0 -7 -4 -10 -10z"/>
<path d="M2970 415 c-7 -8 -9 -15 -6 -15 4 0 14 7 22 15 9 8 11 15 6 15 -5 0
-15 -7 -22 -15z"/>
<path d="M2855 380 c-3 -5 -2 -10 4 -10 5 0 13 5 16 10 3 6 2 10 -4 10 -5 0
-13 -4 -16 -10z"/>
<path d="M2830 326 c0 -2 7 -9 15 -16 12 -10 15 -10 15 4 0 9 -7 16 -15 16 -8
0 -15 -2 -15 -4z"/>
<path d="M2800 291 c0 -5 6 -14 14 -20 12 -10 13 -8 9 8 -5 21 -23 30 -23 12z"/>
<path d="M2755 180 c3 -5 8 -10 11 -10 2 0 4 5 4 10 0 6 -5 10 -11 10 -5 0 -7
-4 -4 -10z"/>
<path d="M2810 159 c0 -5 5 -7 10 -4 6 3 10 8 10 11 0 2 -4 4 -10 4 -5 0 -10
-5 -10 -11z"/>
<path d="M1790 580 c0 -5 5 -10 10 -10 6 0 10 5 10 10 0 6 -4 10 -10 10 -5 0
-10 -4 -10 -10z"/>
<path d="M1966 535 c5 -19 2 -25 -10 -25 -21 0 -21 -36 0 -44 16 -6 49 12 39
22 -7 7 15 32 27 32 6 0 8 -13 4 -31 -4 -22 -2 -29 7 -26 12 4 19 97 7 97 -3
0 -15 -7 -26 -15 -25 -19 -34 -19 -34 0 0 8 -5 15 -10 15 -6 0 -8 -11 -4 -25z"/>
<path d="M2060 459 c0 -5 5 -7 10 -4 6 3 10 8 10 11 0 2 -4 4 -10 4 -5 0 -10
-5 -10 -11z"/>
<path d="M5387 593 c-4 -3 -7 -13 -7 -22 1 -13 3 -13 11 2 11 19 8 33 -4 20z"/>
<path d="M5360 509 c0 -5 9 -9 19 -9 11 0 22 4 25 9 3 5 -6 9 -19 9 -14 0 -25
-4 -25 -9z"/>
<path d="M5422 450 c0 -14 2 -19 5 -12 2 6 2 18 0 25 -3 6 -5 1 -5 -13z"/>
<path d="M5430 329 c0 -5 5 -7 10 -4 6 3 10 8 10 11 0 2 -4 4 -10 4 -5 0 -10
-5 -10 -11z"/>
<path d="M5680 349 c0 -5 5 -7 10 -4 6 3 10 8 10 11 0 2 -4 4 -10 4 -5 0 -10
-5 -10 -11z"/>
<path d="M2340 64 c0 -14 3 -14 15 -4 8 7 15 14 15 16 0 2 -7 4 -15 4 -8 0
-15 -7 -15 -16z"/>
<path d="M1967 8560 c16 -19 36 -30 52 -30 14 0 46 -11 69 -25 24 -14 48 -22
53 -19 19 11 8 46 -23 75 -30 27 -39 29 -105 29 l-73 0 27 -30z"/>
<path d="M5258 8578 c9 -9 15 -9 24 0 9 9 7 12 -12 12 -19 0 -21 -3 -12 -12z"/>
<path d="M5801 8576 c-9 -11 -10 -20 -1 -35 18 -34 40 -26 40 14 0 37 -18 47
-39 21z"/>
<path d="M114 8500 c-25 -17 -33 -30 -39 -66 -3 -25 -4 -48 -2 -51 3 -2 21 -1
41 2 24 5 36 13 36 24 0 9 14 25 30 34 37 22 37 28 0 55 -35 26 -28 26 -66 2z"/>
<path d="M5110 8495 c-11 -13 -7 -15 26 -15 36 1 38 2 20 15 -25 19 -31 19
-46 0z"/>
<path d="M2272 8378 c-7 -7 -12 -19 -12 -27 0 -13 10 -15 51 -12 39 2 49 6 45
18 -3 8 -6 19 -6 24 0 13 -64 11 -78 -3z"/>
<path d="M5295 8250 c-18 -36 -7 -39 23 -7 26 27 28 37 7 37 -8 0 -21 -13 -30
-30z"/>
<path d="M5116 8023 c-14 -15 -4 -44 19 -55 33 -15 55 2 35 27 -18 21 -46 36
-54 28z"/>
<path d="M5234 7995 c-12 -31 34 -47 56 -20 15 18 13 21 -22 30 -21 5 -29 3
-34 -10z"/>
<path d="M5140 7888 c-14 -5 -42 -7 -62 -5 -34 5 -37 3 -43 -23 -7 -34 -28
-53 -77 -73 -21 -9 -38 -21 -38 -26 0 -14 27 -14 35 -1 9 14 61 12 73 -2 5 -7
13 -28 17 -45 6 -29 11 -33 39 -33 25 0 35 -6 44 -25 17 -36 15 -47 -13 -85
-29 -40 -25 -52 15 -37 23 9 36 8 64 -6 45 -21 52 -9 26 42 -11 22 -20 47 -20
56 0 9 -14 24 -30 33 -17 9 -33 28 -37 42 -3 14 -12 32 -20 42 -8 9 -13 31
-11 50 3 28 8 35 38 44 34 11 51 38 33 54 -4 4 -19 4 -33 -2z"/>
<path d="M5138 7066 c-10 -14 -13 -28 -8 -36 6 -9 12 -5 24 18 19 37 8 49 -16
18z"/>
<path d="M1685 2200 c-3 -5 -1 -10 4 -10 6 0 11 5 11 10 0 6 -2 10 -4 10 -3 0
-8 -4 -11 -10z"/>
<path d="M2560 2106 c0 -8 -10 -20 -21 -27 -17 -9 -19 -13 -8 -19 7 -5 17 -7
21 -4 4 3 17 0 29 -6 16 -9 19 -18 15 -36 -9 -34 3 -94 18 -94 20 0 66 -24 66
-35 0 -6 -6 -17 -12 -23 -16 -16 5 -32 39 -32 12 0 25 -5 28 -10 3 -6 33 -9
66 -9 33 1 65 -4 73 -10 11 -9 19 -9 34 0 16 10 26 10 46 1 29 -13 56 -7 56
13 0 7 5 15 11 17 17 6 16 51 -1 69 -8 8 -18 11 -21 6 -4 -5 -30 -4 -62 3 -31
6 -67 10 -79 8 -17 -2 -24 3 -26 19 -2 13 -8 20 -16 17 -8 -3 -22 5 -33 18
-18 23 -24 26 -73 36 -26 5 -51 30 -47 46 5 16 -41 54 -73 61 -23 5 -30 3 -30
-9z m150 -246 c-20 -13 -33 -13 -25 0 3 6 14 10 23 10 15 0 15 -2 2 -10z"/>
<path d="M3235 1900 c3 -5 8 -10 11 -10 2 0 4 5 4 10 0 6 -5 10 -11 10 -5 0
-7 -4 -4 -10z"/>
<path d="M3050 1860 c0 -5 5 -10 10 -10 6 0 10 5 10 10 0 6 -4 10 -10 10 -5 0
-10 -4 -10 -10z"/>
<path d="M2905 1770 c3 -5 8 -10 11 -10 2 0 4 5 4 10 0 6 -5 10 -11 10 -5 0
-7 -4 -4 -10z"/>
<path d="M2840 1720 c0 -5 4 -10 9 -10 6 0 13 5 16 10 3 6 -1 10 -9 10 -9 0
-16 -4 -16 -10z"/>
<path d="M1560 1575 c0 -11 -9 -35 -20 -53 -11 -18 -20 -39 -20 -46 0 -7 -6
-19 -14 -26 -8 -6 -13 -17 -10 -24 3 -7 -2 -19 -11 -26 -8 -7 -15 -19 -15 -26
0 -8 -4 -14 -10 -14 -5 0 -10 -9 -10 -19 0 -11 -7 -26 -15 -34 -8 -8 -24 -33
-35 -55 -12 -22 -28 -46 -36 -53 -8 -6 -14 -17 -14 -25 0 -7 -6 -19 -12 -26
-32 -34 -78 -98 -78 -107 0 -6 -4 -11 -9 -11 -6 0 -29 -27 -52 -60 -23 -33
-46 -60 -51 -60 -5 0 -6 -5 -3 -10 4 -6 1 -17 -5 -25 -27 -32 -51 -93 -55
-135 -4 -44 -40 -156 -57 -175 -4 -5 -8 -15 -8 -23 0 -8 -6 -28 -14 -45 -31
-67 -61 -207 -45 -207 14 0 210 253 221 285 1 5 15 22 30 37 52 53 175 285
218 411 13 37 27 67 32 67 4 0 8 10 8 23 0 13 5 28 12 35 6 6 12 26 13 44 3
32 17 78 33 108 5 8 17 49 27 90 10 41 22 80 27 87 5 7 7 21 3 32 -3 10 -1 22
5 26 5 3 10 19 10 35 0 23 -4 28 -20 27 -13 -1 -20 -8 -20 -22z"/>
<path d="M4470 14 c0 -8 5 -12 10 -9 6 3 10 10 10 16 0 5 -4 9 -10 9 -5 0 -10
-7 -10 -16z"/>
</g>
</svg>
