<?xml version="1.0" standalone="no"?>
<!DOCTYPE svg PUBLIC "-//W3C//DTD SVG 20010904//EN"
 "http://www.w3.org/TR/2001/REC-SVG-20010904/DTD/svg10.dtd">
<svg version="1.0" xmlns="http://www.w3.org/2000/svg"
 width="540.000000pt" height="858.000000pt" viewBox="0 0 540.000000 858.000000"
 preserveAspectRatio="xMidYMid meet">

<g transform="translate(0.000000,858.000000) scale(0.100000,-0.100000)"
fill="#000000" stroke="none">
<path d="M1206 8495 c-18 -234 -28 -325 -40 -375 -35 -143 -101 -387 -136
-501 -64 -211 -93 -358 -94 -491 0 -65 -5 -118 -9 -118 -21 0 -40 79 -40 165
0 78 5 106 41 215 45 138 114 392 108 398 -2 2 -7 -7 -11 -20 -4 -13 -32 -75
-63 -138 -103 -217 -154 -325 -196 -420 -23 -52 -60 -123 -83 -156 l-40 -61
43 -69 c56 -90 85 -135 138 -212 37 -52 45 -73 51 -129 4 -36 13 -87 21 -112
17 -57 17 -63 -1 -31 -8 14 -17 44 -21 67 -3 24 -10 41 -14 38 -4 -2 -15 24
-26 58 -11 37 -37 85 -64 122 -26 33 -67 92 -92 131 -49 76 -77 105 -51 52 9
-17 15 -46 14 -62 -9 -95 -3 -133 33 -221 50 -121 51 -124 26 -90 l-22 30 7
-30 c13 -58 -7 -16 -30 62 l-22 78 4 -220 c3 -160 0 -257 -12 -355 -8 -74 -16
-143 -17 -152 -1 -10 -6 -18 -10 -18 -5 0 -6 -19 -3 -42 4 -30 3 -37 -4 -23
-17 38 -33 201 -32 329 0 70 -2 127 -4 124 -2 -2 -8 -44 -14 -93 -5 -50 -15
-129 -21 -176 -9 -65 -10 -175 -2 -450 7 -253 7 -368 0 -377 -7 -7 -8 -36 -5
-70 3 -33 2 -51 -3 -42 -16 30 -42 284 -36 354 3 37 3 143 -1 235 l-7 166 -19
-75 c-13 -54 -19 -114 -19 -215 -2 -175 17 -580 31 -660 5 -33 17 -102 26
-154 12 -67 13 -97 6 -104 -6 -6 -11 -7 -12 -2 -1 13 -4 27 -29 110 -11 39
-35 131 -51 205 -30 127 -31 143 -26 282 6 165 -2 340 -14 332 -5 -3 -9 -67
-9 -142 -1 -288 -26 -776 -40 -767 -4 3 -13 -23 -20 -57 -9 -50 -14 -59 -22
-45 -6 12 -6 71 1 174 6 86 11 190 10 232 l-1 76 -14 -55 c-7 -30 -21 -128
-31 -217 -9 -90 -20 -163 -25 -163 -4 0 -16 12 -25 27 -15 22 -18 46 -16 128
1 55 9 122 17 150 20 64 13 69 -13 9 -15 -33 -23 -78 -28 -149 l-6 -101 34
-40 c19 -21 37 -41 40 -44 3 -3 26 -41 50 -85 25 -44 53 -92 63 -107 17 -25
17 -26 -1 -24 -18 3 -162 200 -163 222 0 6 -7 17 -15 24 -23 19 -9 -55 41
-210 3 -8 -6 4 -19 28 -12 24 -26 39 -30 35 -5 -4 -12 -1 -17 7 -7 11 -10 5
-9 -20 0 -19 3 -29 6 -22 10 26 22 9 49 -71 15 -45 53 -136 85 -201 61 -124
69 -143 44 -110 -10 13 -14 14 -15 5 0 -31 -33 16 -86 123 -30 61 -52 100 -50
86 3 -14 10 -50 16 -80 6 -31 37 -134 70 -230 33 -96 53 -166 44 -155 -14 19
-15 18 -9 -20 l6 -40 -21 45 c-12 25 -37 88 -56 140 -19 52 -39 99 -44 104
-13 13 -5 -76 9 -102 27 -50 11 -227 -34 -387 -25 -87 -16 -150 39 -274 46
-105 51 -139 14 -88 -11 15 -23 25 -28 22 -4 -3 -11 2 -14 11 -4 10 -2 13 7 9
6 -4 5 -1 -4 7 -8 7 -35 51 -60 98 -28 54 -45 78 -47 67 -2 -10 3 -33 12 -52
17 -36 22 -105 7 -105 -6 0 -7 -23 -4 -52 2 -29 5 -61 6 -70 1 -9 5 -15 8 -12
4 2 6 -8 5 -23 -2 -15 6 -42 17 -60 11 -19 17 -36 15 -38 -3 -3 -22 24 -43 60
-21 36 -39 65 -41 65 -2 0 -4 -18 -4 -39 0 -36 7 -47 74 -115 67 -69 84 -81
108 -77 5 0 7 -2 7 -7 -4 -22 3 -31 18 -25 11 4 14 3 9 -5 -4 -7 -3 -12 3 -12
15 0 101 -82 101 -97 0 -7 7 -13 16 -13 9 0 12 -5 8 -12 -4 -7 -3 -8 5 -4 7 4
26 -5 45 -21 18 -15 57 -45 87 -66 30 -20 73 -51 96 -67 24 -16 49 -45 56 -62
8 -18 28 -47 44 -65 17 -18 28 -34 26 -37 -9 -9 243 -207 271 -212 6 -1 20 -6
31 -10 20 -7 20 -7 1 14 -18 20 -16 52 2 52 5 0 49 -31 98 -68 137 -106 174
-124 243 -123 50 0 61 -3 82 -25 13 -15 58 -49 99 -77 41 -27 111 -84 155
-126 45 -42 104 -94 132 -116 58 -46 105 -110 101 -140 -2 -16 -12 -21 -45
-23 -27 -2 -43 -8 -43 -16 0 -16 90 -93 125 -106 40 -15 45 -13 45 24 0 58 45
72 68 22 12 -27 52 -39 126 -37 39 1 56 -4 75 -22 30 -26 88 -67 95 -67 7 0
159 -109 201 -143 17 -14 64 -83 104 -154 66 -115 147 -242 230 -360 51 -72
61 -99 61 -164 0 -138 34 -409 51 -409 4 0 9 -17 11 -37 2 -20 8 -38 13 -40 6
-2 28 36 50 84 43 96 86 172 97 173 4 0 4 -7 1 -17 -4 -11 -3 -14 5 -9 7 4 12
16 12 27 0 12 -4 17 -11 13 -6 -3 1 12 16 35 29 43 42 53 30 24 -3 -10 11 -2
32 18 49 48 68 56 127 58 52 1 128 30 161 61 11 10 40 29 65 42 41 21 46 27
53 73 5 28 15 65 23 83 8 18 14 53 14 78 0 31 7 54 20 71 11 14 20 33 20 43 0
9 11 23 25 30 16 8 25 22 25 37 0 13 5 23 10 23 6 0 10 7 10 15 0 8 38 54 84
103 132 138 146 154 146 168 0 8 6 14 13 14 7 0 57 45 112 100 55 55 94 100
86 100 -7 0 -51 -38 -97 -85 -46 -46 -84 -81 -84 -77 0 4 35 43 78 88 59 62
99 93 174 135 54 30 98 58 98 62 0 16 69 109 136 183 73 81 87 104 77 130 -6
17 -13 16 -84 -11 -77 -30 -119 -2 -119 79 0 45 26 66 83 66 45 0 49 2 142 95
52 53 97 106 100 118 3 13 -3 35 -17 56 -13 19 -28 43 -35 54 -6 11 -35 45
-65 75 -29 31 -41 46 -27 34 15 -13 31 -22 36 -20 12 4 52 -44 88 -105 31 -54
43 -56 25 -3 -6 19 -10 47 -8 61 3 24 -4 31 -45 54 -27 14 -53 35 -59 46 -6
11 -7 17 -3 13 5 -4 13 -3 20 2 8 7 23 -3 50 -30 22 -22 43 -40 47 -40 4 0 8
13 8 29 0 30 -14 41 -55 41 -13 0 -27 5 -30 11 -4 6 -13 8 -21 5 -7 -3 -19 3
-26 13 -7 10 -26 26 -41 36 -15 10 -26 20 -23 22 2 3 21 -7 42 -21 20 -14 42
-22 48 -19 5 4 -5 13 -22 22 -18 8 -32 18 -32 23 0 5 9 4 21 -3 12 -6 25 -7
30 -2 14 14 -19 52 -54 62 -29 8 -30 9 -6 10 14 1 34 -6 45 -14 28 -21 43 -18
17 4 -22 19 -22 19 -2 24 11 3 19 12 17 21 -2 8 25 48 59 89 34 40 65 85 68
100 9 34 25 45 25 18 0 -12 4 -21 8 -21 5 0 13 -10 19 -22 9 -20 10 -20 30 14
14 25 18 40 11 51 -12 23 -28 21 -28 -2 0 -11 -4 -23 -10 -26 -14 -8 -11 31 5
80 11 36 13 37 14 13 1 -16 5 -28 10 -28 5 0 11 -10 14 -22 4 -12 9 -20 12
-17 3 3 -2 22 -10 43 -16 39 -12 75 13 113 8 13 12 30 8 38 -3 9 0 15 10 15
12 0 15 -6 10 -24 -3 -14 -3 -32 0 -41 5 -13 10 -7 20 22 14 39 11 69 -5 59
-13 -8 -21 18 -10 35 7 12 9 11 9 -2 0 -20 28 -45 38 -35 4 4 -1 13 -11 20 -9
7 -17 18 -17 24 0 6 -6 15 -13 19 -7 4 -18 22 -25 38 -12 28 -10 27 22 -10
l34 -40 7 27 c5 20 1 35 -14 57 -12 16 -21 35 -21 43 1 8 4 7 11 -4 11 -21 49
-24 49 -5 1 32 13 94 21 109 5 10 5 18 -1 20 -6 2 0 32 14 71 24 70 22 87 -6
39 -9 -15 -27 -36 -39 -47 -13 -11 -3 7 22 40 25 33 62 87 82 120 20 34 52 81
71 105 20 25 36 49 36 53 0 5 -20 7 -45 6 -62 -4 -72 11 -29 40 24 17 50 25
82 25 39 1 47 4 49 21 1 17 1 17 -3 2 -3 -10 -9 -16 -12 -14 -4 2 -25 12 -48
22 -32 15 -43 27 -53 60 -7 22 -37 101 -66 175 -29 74 -67 173 -83 221 -17 47
-39 105 -50 130 -11 24 -26 62 -33 84 -6 22 -31 79 -55 127 -38 75 -48 89 -76
97 -18 5 -25 10 -15 10 21 1 20 -4 3 68 -8 32 -17 87 -21 123 l-6 65 29 -31
c20 -22 31 -46 36 -80 14 -92 27 -123 80 -186 29 -35 65 -81 79 -103 15 -22
27 -35 28 -30 0 6 6 -10 13 -35 12 -42 47 -164 85 -290 l16 -55 6 51 c4 28 28
101 54 162 51 118 49 105 29 237 -4 22 -10 42 -14 45 -4 3 10 50 31 105 43
112 46 150 23 220 -16 45 -18 47 -32 29 -13 -18 -14 -17 -9 10 3 16 0 40 -6
53 -8 18 -6 27 8 43 20 22 30 18 38 -15 3 -15 5 -12 7 10 2 30 2 30 10 5 5
-17 8 5 9 66 l1 91 51 73 c45 63 48 71 23 53 -16 -12 -38 -31 -49 -43 -29 -33
-114 -94 -165 -119 -42 -21 -39 -16 51 71 146 142 140 128 88 186 -45 50 -60
75 -79 127 -11 28 -14 21 -60 -120 -27 -83 -54 -177 -61 -210 -6 -33 -14 -55
-16 -48 -15 42 90 413 116 413 12 0 11 3 -2 13 -17 13 -75 140 -113 251 -25
72 -47 188 -60 316 l-8 75 -9 -145 c-16 -247 -16 -250 37 -404 26 -76 45 -140
43 -142 -4 -4 -89 226 -105 286 -8 30 -10 32 -17 15 -4 -11 -20 -55 -36 -97
-16 -42 -36 -123 -44 -180 -16 -107 -33 -183 -40 -176 -2 2 0 33 5 68 5 36 13
104 19 153 7 60 22 115 48 180 l38 92 0 330 c0 195 -5 336 -10 346 -6 9 -41
42 -80 74 -38 32 -74 65 -78 72 -17 27 -24 12 -12 -24 12 -35 23 -374 11 -363
-2 3 -9 68 -16 145 -20 251 -24 268 -84 359 -30 45 -75 111 -100 147 -32 44
-45 71 -40 83 6 15 10 14 36 -11 17 -15 62 -73 101 -128 95 -133 109 -150 186
-220 36 -33 54 -45 38 -27 -32 40 -34 70 -7 105 11 14 20 34 20 45 0 11 4 22
9 24 15 6 24 48 9 48 -7 0 -29 -36 -48 -80 -19 -44 -38 -80 -42 -80 -20 0 -17
28 11 94 17 40 33 92 36 116 3 23 8 46 11 51 7 12 7 12 -72 -6 -75 -18 -96
-15 -32 4 24 7 57 21 74 32 33 20 69 25 78 10 4 -5 0 -12 -6 -14 -10 -4 -10
-6 0 -6 10 -1 10 -6 2 -21 -6 -11 -7 -20 -1 -20 12 0 21 25 21 56 0 27 27 85
72 154 l30 45 -42 -45 c-23 -25 -50 -64 -61 -87 -11 -24 -26 -43 -34 -43 -8 0
-15 3 -15 6 0 13 55 101 74 117 24 21 33 23 -74 -14 -84 -30 -82 -17 5 21 52
23 98 52 137 89 66 61 79 80 85 130 5 36 5 36 -15 18 -13 -12 -22 -15 -27 -8
-3 6 -2 11 2 11 5 0 14 9 20 19 10 16 8 43 -12 138 -13 65 -25 129 -27 143 -3
22 -22 7 -175 -145 -121 -121 -186 -193 -222 -250 -55 -86 -60 -90 -34 -23 27
70 69 125 206 270 149 159 142 123 70 333 -52 155 -83 275 -83 330 -1 76 -14
74 -71 -11 -29 -44 -102 -128 -163 -189 -61 -60 -109 -114 -108 -119 2 -5 -5
-5 -15 -1 -10 4 -40 15 -67 25 l-49 18 -72 -58 c-75 -59 -162 -115 -229 -146
l-38 -19 -29 35 c-33 40 -36 50 -11 48 9 -1 26 0 36 0 18 2 18 3 2 21 -11 12
-28 18 -44 17 -22 -3 -29 -12 -44 -57 -10 -30 -16 -64 -13 -77 3 -13 33 -52
65 -87 33 -36 60 -68 60 -72 0 -5 -18 13 -41 40 -22 26 -45 47 -51 47 -6 0 -5
-7 3 -17 13 -16 12 -17 -3 -4 -10 7 -15 18 -11 24 4 6 1 7 -6 3 -7 -5 -20 -1
-29 8 -33 29 -111 56 -233 81 -67 14 -124 23 -126 21 -2 -2 8 -11 21 -20 14
-9 54 -42 88 -75 36 -33 105 -81 160 -111 54 -30 96 -56 93 -59 -3 -2 -41 14
-85 36 -44 23 -80 39 -80 36 0 -9 155 -206 209 -267 31 -33 95 -111 143 -171
84 -107 104 -126 218 -211 53 -39 89 -74 77 -74 -8 0 -153 110 -194 147 -17
15 -66 73 -109 128 -43 55 -109 136 -148 181 -39 44 -110 130 -157 191 -68 87
-107 125 -182 181 -52 39 -98 75 -102 82 -5 8 -11 8 -19 1 -14 -12 -203 -46
-314 -57 -64 -6 -71 -8 -60 -22 11 -13 11 -14 -2 -7 -8 5 -26 17 -40 27 -20
14 -77 22 -300 42 -351 31 -462 38 -430 26 14 -4 46 -11 73 -15 26 -3 45 -10
42 -14 -2 -5 -33 -3 -67 4 -35 7 -101 16 -148 19 -246 17 -272 18 -266 8 3 -5
23 -12 44 -16 58 -9 234 -108 219 -123 -6 -5 -49 18 -59 32 -4 6 -8 6 -8 1 0
-5 -8 -2 -17 6 -10 9 -51 30 -91 47 l-74 31 74 -68 c134 -124 163 -154 137
-138 -14 9 -28 14 -31 11 -3 -3 -25 17 -48 45 -51 60 -62 60 -23 -1 30 -46 74
-169 92 -254 21 -105 20 -104 103 -100 40 3 63 1 50 -3 -13 -4 -23 -11 -22
-17 1 -5 -4 -11 -11 -14 -7 -2 -9 1 -5 8 5 7 -5 11 -28 11 -24 0 -36 -5 -36
-14 0 -12 -39 -30 -47 -22 -2 2 -10 46 -18 98 -8 52 -26 130 -41 174 -49 146
-102 217 -199 266 -33 17 -70 39 -82 51 -13 11 -25 18 -27 16 -3 -2 4 -47 14
-99 26 -138 30 -170 20 -170 -4 0 -20 53 -35 118 -45 197 -40 186 -87 212 -24
13 -83 47 -131 77 -49 29 -91 53 -93 53 -3 0 5 -17 17 -37 13 -21 29 -49 37
-63 13 -23 13 -24 -2 -6 -9 11 -16 16 -16 10 0 -5 -9 5 -20 23 -10 18 -27 41
-37 51 -18 19 -71 90 -180 241 -34 47 -73 99 -86 116 l-25 30 -6 -80z m1331
-551 c-3 -3 -12 -4 -19 -1 -8 3 -5 6 6 6 11 1 17 -2 13 -5z m-179 -335 c-12
-8 -40 20 -32 32 2 3 -8 17 -21 29 -24 23 -35 16 -15 -8 5 -7 3 -6 -6 2 -9 8
-13 19 -9 26 5 8 21 -2 51 -31 29 -29 40 -45 32 -50z m43 -26 c13 -16 12 -17
-3 -4 -10 7 -18 15 -18 17 0 8 8 3 21 -13z m23 -35 c-3 -4 1 -8 9 -8 7 0 24
-14 36 -31 19 -26 20 -29 4 -21 -31 17 -75 69 -59 69 8 0 13 -4 10 -9z m2616
-38 c-22 -17 -122 -58 -108 -45 8 9 112 62 123 63 6 1 -1 -7 -15 -18z m-2363
-124 c33 -24 70 -49 82 -55 12 -7 19 -17 15 -23 -4 -6 -9 -7 -13 0 -3 5 -20
17 -38 25 -36 19 -129 97 -115 97 6 0 37 -20 69 -44z m1697 -78 c25 -63 50
-159 76 -292 9 -44 20 -66 44 -89 18 -17 22 -25 11 -19 -49 25 -73 74 -90 187
-11 74 -37 168 -66 238 -16 38 -29 72 -29 76 0 15 30 -41 54 -101z m436 2
c-19 -11 -39 -19 -45 -19 -5 0 6 8 25 19 19 11 40 19 45 19 6 0 -6 -8 -25 -19z
m-2000 -21 c0 -6 -4 -7 -10 -4 -5 3 -10 11 -10 16 0 6 5 7 10 4 6 -3 10 -11
10 -16z m41 -26 c13 -17 13 -17 -6 -3 -11 8 -22 16 -24 17 -2 2 0 3 6 3 6 0
17 -8 24 -17z m2039 -103 c0 -11 -50 -39 -92 -51 -44 -12 -32 3 25 33 59 30
67 32 67 18z m-1829 -47 c13 -16 12 -17 -3 -4 -10 7 -18 15 -18 17 0 8 8 3 21
-13z m333 -232 c-6 -7 -286 182 -307 207 -6 9 61 -34 149 -94 89 -60 160 -111
158 -113z m1076 -147 c31 -303 39 -365 81 -633 22 -139 39 -263 37 -275 -2
-11 -22 98 -46 244 -24 146 -45 276 -47 290 -10 58 -45 383 -51 475 -11 165 6
101 26 -101z m133 117 c7 -8 -7 -2 -30 14 -24 15 -43 30 -43 32 0 7 61 -31 73
-46z m-1164 19 c10 -5 22 -17 25 -27 5 -13 0 -11 -21 7 -15 14 -30 26 -32 28
-13 7 13 0 28 -8z m-2712 -199 c3 -52 2 -62 -7 -48 -7 10 -9 25 -6 33 3 8 2
13 -3 10 -5 -3 -22 22 -39 57 -28 59 -29 63 -14 92 l15 30 25 -54 c15 -33 26
-79 29 -120z m2773 109 c28 -55 25 -64 -5 -11 -26 44 -28 51 -20 51 2 0 14
-18 25 -40z m-920 -121 c96 -67 252 -179 346 -248 94 -69 201 -147 238 -174
37 -26 64 -52 61 -58 -4 -5 -3 -8 2 -7 4 2 18 -4 29 -12 21 -15 19 -16 -32
-36 -63 -25 -70 -23 -16 5 20 11 34 21 30 22 -5 1 -11 2 -15 3 -19 3 -95 55
-178 121 -49 39 -155 118 -234 175 -293 214 -381 282 -376 291 4 5 3 9 -2 9
-4 1 -21 12 -38 26 -56 48 10 6 185 -117z m978 -4 c-3 -3 -9 2 -12 12 -6 14
-5 15 5 6 7 -7 10 -15 7 -18z m88 -81 c35 -25 67 -51 71 -57 4 -6 -24 10 -62
37 -80 56 -92 66 -81 66 4 0 36 -21 72 -46z m109 -84 c10 -11 16 -20 13 -20
-3 0 -13 9 -23 20 -10 11 -16 20 -13 20 3 0 13 -9 23 -20z m1042 -22 c-3 -8
-6 -5 -6 6 -1 11 2 17 5 13 3 -3 4 -12 1 -19z m-915 -71 c48 -32 70 -69 83
-137 4 -19 10 -52 15 -72 4 -21 4 -35 0 -33 -4 2 -13 33 -20 67 -22 106 -35
129 -111 183 -38 28 -69 54 -69 58 0 5 12 -1 28 -13 15 -11 48 -35 74 -53z
m-550 -299 c13 -18 29 -42 36 -53 7 -11 25 -39 40 -63 15 -23 78 -120 140
-215 117 -177 136 -207 129 -207 -2 0 -31 39 -63 87 -32 48 -64 93 -69 99 -6
6 -28 41 -50 78 -21 36 -42 66 -47 66 -4 0 -8 5 -8 11 0 13 -105 176 -133 207
-11 12 -15 22 -9 22 6 0 21 -15 34 -32z m-2376 -3 c-24 -18 -33 -19 -42 -3 -4
6 -3 8 2 5 6 -3 16 -2 24 4 24 14 37 10 16 -6z m-349 -287 c-3 -7 -5 -2 -5 12
0 14 2 19 5 13 2 -7 2 -19 0 -25z m3990 -40 c-3 -7 -5 -2 -5 12 0 14 2 19 5
13 2 -7 2 -19 0 -25z m-3629 -116 c-10 -2 -18 -8 -18 -14 0 -6 -2 -9 -5 -6
-12 12 7 37 23 30 16 -6 15 -7 0 -10z m-8 -67 c0 -5 -5 -3 -10 5 -5 8 -10 20
-10 25 0 6 5 3 10 -5 5 -8 10 -19 10 -25z m3160 -34 c0 -15 -7 -36 -15 -47
-18 -24 -18 -58 -1 -159 8 -44 13 -82 11 -84 -5 -4 -7 2 -29 84 -24 95 -24
154 1 175 15 12 19 24 15 45 -3 19 -1 26 7 21 6 -4 11 -20 11 -35z m-3163 -3
c-3 -8 -6 -5 -6 6 -1 11 2 17 5 13 3 -3 4 -12 1 -19z m1998 -48 c8 0 13 -9 12
-21 -1 -16 -3 -18 -12 -6 -6 8 -26 13 -52 11 -24 -1 -43 1 -43 5 0 3 -3 16 -6
29 l-6 22 47 -20 c25 -11 53 -20 60 -20z m775 -24 c0 -12 -5 -7 -19 24 -11 24
-11 24 3 6 9 -11 16 -24 16 -30z m33 -76 c28 -78 31 -126 12 -190 -19 -63 -30
-67 -58 -21 -21 36 -21 67 -1 156 9 39 16 81 16 94 0 30 11 17 31 -39z m-2792
-93 c-13 -13 -15 14 -3 64 l7 34 3 -44 c2 -24 -2 -49 -7 -54z m4209 -84 c0
-113 -54 -190 -149 -213 -98 -23 -125 14 -35 50 89 37 127 83 160 198 9 30 24
8 24 -35z m-4200 20 c0 -10 3 -29 6 -43 4 -18 1 -16 -10 9 -19 39 -20 51 -6
51 6 0 10 -8 10 -17z m30 -3 c0 -5 -2 -10 -4 -10 -3 0 -8 5 -11 10 -3 6 -1 10
4 10 6 0 11 -4 11 -10z m4110 -16 c0 -27 -41 -91 -67 -105 -25 -14 -88 -18
-99 -7 -9 10 34 51 96 92 61 40 70 43 70 20z m-4580 -39 c0 -19 -2 -35 -4 -35
-2 0 -6 16 -8 35 -2 19 0 35 4 35 4 0 8 -16 8 -35z m467 -97 c-3 -8 -6 -5 -6
6 -1 11 2 17 5 13 3 -3 4 -12 1 -19z m2291 -1 c19 -15 14 -44 -10 -61 -12 -9
-18 -16 -13 -16 5 0 21 11 35 25 23 22 29 24 39 12 26 -32 -30 -80 -96 -81
-37 -1 -49 4 -69 27 -27 31 -31 59 -11 75 10 8 16 4 26 -19 7 -16 17 -29 22
-29 6 0 3 10 -5 22 -23 32 -20 45 12 56 28 9 47 6 70 -11z m-255 -1 c19 -8 49
-36 71 -65 61 -86 147 -110 263 -74 64 20 75 13 64 -40 -8 -31 -6 -37 8 -38
47 -3 -86 -31 -154 -32 -93 -2 -144 18 -209 80 -41 40 -86 123 -86 161 0 26 1
26 43 8z m-74 -115 c73 -113 141 -158 279 -186 37 -7 57 -14 45 -14 -48 -2
-177 30 -225 56 -67 36 -162 158 -150 192 3 8 0 11 -7 7 -7 -5 -9 -1 -5 8 3 9
7 16 9 16 1 0 25 -35 54 -79z m-1942 27 c-3 -8 -6 -5 -6 6 -1 11 2 17 5 13 3
-3 4 -12 1 -19z m3926 -44 c16 -27 40 -61 54 -75 21 -23 25 -37 26 -102 1 -41
-1 -73 -5 -70 -5 2 -8 27 -8 54 0 43 -5 56 -41 102 -35 43 -79 124 -79 144 0
17 29 -11 53 -53z m168 27 c-13 -10 -35 -18 -48 -18 -28 0 -25 6 5 12 12 2 30
8 39 14 28 16 30 12 4 -8z m-2088 -203 c26 -17 45 -33 42 -36 -5 -6 -67 36
-110 74 -22 20 -23 22 -5 10 14 -9 46 -31 73 -48z m962 -215 c41 -85 75 -157
75 -162 0 -5 9 -28 19 -52 50 -117 23 -75 -68 104 -56 109 -99 202 -96 208 4
5 -3 26 -15 46 -15 26 -17 33 -5 23 9 -7 50 -82 90 -167z m-2820 146 c60 -1
65 -2 35 -9 -19 -5 -64 -12 -100 -15 -61 -6 -64 -5 -45 10 11 9 19 22 17 28
-3 9 0 8 9 0 8 -8 42 -13 84 -14z m2028 4 c-7 -2 -21 -2 -30 0 -10 3 -4 5 12
5 17 0 24 -2 18 -5z m-2621 -92 c-10 -28 -8 -33 31 -66 23 -20 30 -29 16 -21
-14 9 -28 14 -30 12 -2 -3 -15 4 -29 14 l-24 18 19 41 c21 47 33 48 17 2z
m3533 -83 c28 -59 21 -50 -30 36 -19 32 -35 64 -35 70 0 14 32 -38 65 -106z
m-3568 -20 c-3 -7 -5 -2 -5 12 0 14 2 19 5 13 2 -7 2 -19 0 -25z m-10 -170
c-3 -8 -6 -5 -6 6 -1 11 2 17 5 13 3 -3 4 -12 1 -19z m-22 -75 c-4 -10 -8 -27
-10 -37 -3 -32 -69 -125 -88 -126 -19 0 -18 4 15 53 11 15 24 24 30 21 6 -4 8
-2 5 3 -4 6 5 32 19 57 25 45 43 63 29 29z m2911 -278 c-20 -31 -20 -35 2 -35
9 0 22 -4 29 -8 6 -4 -10 -7 -37 -7 l-48 0 30 38 c33 42 49 50 24 12z m1314
-40 c0 -6 -56 -31 -145 -67 -79 -31 -37 -1 51 37 82 35 94 39 94 30z m-1355
-65 c-3 -5 -14 -10 -23 -10 -15 0 -15 2 -2 10 20 13 33 13 25 0z m42 -6 c-3
-3 -12 -4 -19 -1 -8 3 -5 6 6 6 11 1 17 -2 13 -5z m1382 -13 c9 -6 10 -11 2
-15 -6 -4 -9 -11 -7 -15 3 -4 -16 -6 -42 -3 -35 3 -69 -3 -125 -23 -89 -30
-117 -29 -64 4 80 49 199 75 236 52z m-1409 -15 c0 -2 -7 -7 -16 -10 -8 -3
-12 -2 -9 4 6 10 25 14 25 6z m120 -21 c-7 -8 -16 -15 -21 -15 -5 0 -6 7 -3
15 4 8 13 15 21 15 13 0 13 -3 3 -15z m58 -31 c-9 -9 -22 -14 -30 -11 -8 3 -4
8 12 15 35 15 37 14 18 -4z m780 -122 c23 -20 42 -40 42 -44 0 -18 -180 123
-207 162 -15 21 90 -55 165 -118z m-4058 87 c0 -6 -4 -7 -10 -4 -5 3 -10 11
-10 16 0 6 5 7 10 4 6 -3 10 -11 10 -16z m3403 -6 c3 -5 -8 -8 -24 -8 -16 0
-29 3 -29 8 0 4 11 7 24 7 14 0 27 -3 29 -7z m107 -18 c0 -3 -9 -14 -20 -25
-13 -13 -20 -15 -20 -7 0 7 5 18 12 25 12 12 28 16 28 7z m-444 -21 c18 -14
18 -15 -6 -8 -31 8 -50 24 -29 24 8 0 24 -7 35 -16z m-34 -36 c-6 -6 -15 -8
-19 -4 -4 4 -1 11 7 16 19 12 27 3 12 -12z m87 13 c8 -5 9 -11 3 -15 -5 -3
-15 1 -22 9 -14 16 -3 20 19 6z m579 -13 c18 -18 15 -28 -8 -28 -13 0 -20 7
-20 20 0 23 10 26 28 8z m-597 -15 c13 -15 12 -15 -8 -4 -24 12 -29 21 -14 21
5 0 15 -7 22 -17z m-17 -16 c25 -10 16 -18 -12 -10 -12 3 -22 13 -22 22 0 10
3 12 8 5 4 -6 16 -14 26 -17z m-784 9 c0 -3 -88 -35 -190 -67 -19 -7 -42 -14
-50 -17 -8 -3 -12 -2 -9 2 7 7 227 85 242 86 4 0 7 -2 7 -4z m850 -10 c0 -3
-4 -8 -10 -11 -5 -3 -10 -1 -10 4 0 6 5 11 10 11 6 0 10 -2 10 -4z m40 -26
c12 -8 9 -10 -12 -10 -16 0 -28 5 -28 10 0 13 20 13 40 0z m634 1 c4 -5 -3 -7
-14 -4 -23 6 -26 13 -6 13 8 0 17 -4 20 -9z m-1300 -21 c-12 -5 -62 -15 -110
-24 -131 -23 -438 -100 -600 -151 -78 -25 -146 -45 -150 -45 -48 1 279 107
463 149 178 42 358 78 398 79 19 1 19 0 -1 -8z m656 -10 c0 -5 -7 -7 -15 -4
-8 4 -15 8 -15 10 0 2 7 4 15 4 8 0 15 -4 15 -10z m124 3 c3 -4 -6 -13 -21
-20 -23 -11 -24 -12 -5 -9 12 2 22 0 22 -5 0 -10 -33 -12 -43 -2 -4 3 0 15 10
25 17 19 26 22 37 11z m-299 -83 c-3 -5 -12 -10 -18 -10 -7 0 -6 4 3 10 19 12
23 12 15 0z m482 -15 c0 -8 -4 -15 -9 -15 -10 0 -11 14 -1 23 9 10 10 9 10 -8z
m164 -38 c-12 -12 -45 -1 -37 12 3 5 15 7 27 4 13 -4 17 -9 10 -16z m-1026
-61 c-82 -29 -179 -65 -215 -79 -93 -36 -109 -40 -78 -22 64 37 384 153 423
154 11 0 -47 -24 -130 -53z m1155 29 c-6 -7 -20 -10 -32 -7 -20 5 -20 6 -4 18
23 16 51 7 36 -11z m200 -4 c0 -12 -20 -25 -27 -18 -7 7 6 27 18 27 5 0 9 -4
9 -9z m-115 -19 c-3 -3 -11 0 -18 7 -9 10 -8 11 6 5 10 -3 15 -9 12 -12z
m-621 -37 c-10 -8 -23 -14 -29 -14 -5 0 -1 6 9 14 11 8 24 15 30 15 5 0 1 -7
-10 -15z m129 -32 c-7 -2 -19 -2 -25 0 -7 3 -2 5 12 5 14 0 19 -2 13 -5z
m-363 -7 c0 -6 -209 -96 -223 -96 -17 1 35 28 128 67 78 32 95 37 95 29z
m1050 -61 c0 -8 -7 -15 -16 -15 -14 0 -14 3 -4 15 7 8 14 15 16 15 2 0 4 -7 4
-15z m120 12 c0 -2 -10 -12 -22 -23 l-23 -19 19 23 c18 21 26 27 26 19z m440
-59 c0 -13 -5 -9 -31 19 l-24 26 27 -19 c15 -10 28 -22 28 -26z m2 -73 c6 -11
-8 -2 -31 20 -22 21 -41 43 -41 49 0 13 59 -43 72 -69z m28 65 c0 -5 -2 -10
-4 -10 -3 0 -8 5 -11 10 -3 6 -1 10 4 10 6 0 11 -4 11 -10z m-1316 -11 c-3 -6
-27 -20 -53 -32 -70 -32 -71 -31 -11 7 55 36 77 45 64 25z m1316 -20 c0 -14
-17 -10 -23 5 -4 10 -1 13 9 9 7 -3 14 -9 14 -14z m-1170 -32 c0 -1 -30 -32
-67 -67 l-68 -65 65 68 c60 62 70 72 70 64z m1100 -46 c19 -16 33 -32 30 -34
-3 -3 -27 15 -55 40 -54 48 -33 43 25 -6z m-1431 36 c-14 -12 -139 -77 -139
-73 0 8 114 76 129 76 8 0 12 -1 10 -3z m50 -30 c-15 -12 -62 -51 -105 -87
-44 -36 -104 -87 -134 -115 l-55 -49 60 63 c84 88 232 210 255 210 3 0 -7 -10
-21 -22z m1310 -71 c-3 -3 -11 5 -18 17 -13 21 -12 21 5 5 10 -10 16 -20 13
-22z m52 8 l24 -27 -27 18 c-16 9 -28 21 -28 26 0 14 5 11 31 -17z m-942 -94
c-29 -68 -35 -57 -7 15 12 32 24 53 26 47 2 -6 -7 -34 -19 -62z m-269 57 c0
-2 -19 -21 -42 -42 l-43 -40 40 43 c36 39 45 47 45 39z m1220 -24 c0 -5 -5
-15 -10 -23 -8 -12 -10 -11 -10 8 0 12 5 22 10 22 6 0 10 -3 10 -7z m-1730
-36 c0 -2 -12 -14 -27 -28 l-28 -24 24 28 c23 25 31 32 31 24z m4 -72 c-29
-39 -44 -47 -22 -12 8 12 18 28 22 35 4 6 12 12 17 12 6 0 -2 -16 -17 -35z
m1496 -135 c0 -5 -2 -10 -4 -10 -3 0 -8 5 -11 10 -3 6 -1 10 4 10 6 0 11 -4
11 -10z m-1249 -123 c-5 -12 -35 -65 -68 -117 -33 -52 -79 -130 -104 -172 -43
-76 -61 -96 -54 -59 4 21 66 147 118 237 19 34 39 74 45 90 6 16 11 23 11 17
1 -20 29 -15 41 7 14 27 22 25 11 -3z m35 -67 c0 -11 -4 -20 -8 -20 -10 0 -11
24 -1 33 9 9 9 10 9 -13z m606 -12 c-7 -7 -12 -8 -12 -2 0 14 12 26 19 19 2
-3 -1 -11 -7 -17z m609 -25 l24 -28 -30 25 c-16 14 -32 26 -34 28 -2 1 0 2 6
2 5 0 20 -12 34 -27z m-551 -13 c-11 -21 -22 -25 -33 -13 -7 6 21 32 36 33 4
0 3 -9 -3 -20z m-3382 -2 c14 -14 16 -38 3 -38 -12 0 -41 29 -41 41 0 13 24
11 38 -3z m2872 -102 c0 -82 -159 -493 -350 -901 -24 -49 -53 -117 -66 -150
l-23 -60 6 50 c3 28 17 77 30 110 122 294 173 425 252 648 50 141 91 263 91
269 0 6 10 32 21 56 25 50 39 42 39 -22z m1127 -29 c6 -10 -20 7 -69 46 -10 8
-18 17 -18 21 0 9 77 -50 87 -67z m-56 -29 c6 -12 6 -18 0 -18 -6 0 -18 15
-27 33 -16 30 -16 31 0 18 9 -8 22 -23 27 -33z m-1041 -24 c0 -8 5 -14 11 -14
5 0 7 -5 3 -12 -5 -8 -2 -9 9 -5 11 4 21 -1 28 -16 14 -26 14 -26 104 -100
157 -131 183 -154 212 -192 17 -23 41 -60 54 -84 13 -24 30 -54 37 -66 6 -13
15 -38 19 -56 l6 -34 -22 19 c-12 11 -19 26 -17 33 3 7 0 12 -6 10 -7 -1 -41
37 -77 85 -37 48 -79 100 -95 115 -19 19 -14 8 16 -32 25 -33 73 -102 107
-152 35 -51 66 -93 69 -93 4 0 23 19 44 43 33 36 36 38 23 12 -8 -16 -12 -38
-9 -49 5 -14 3 -16 -7 -11 -8 5 -11 5 -7 0 7 -7 -6 -25 -64 -95 -7 -9 -21 -28
-31 -43 -10 -15 -23 -25 -29 -21 -6 4 -9 1 -6 -7 5 -16 -14 -39 -32 -39 -7 0
-9 -7 -6 -17 4 -10 4 -14 0 -10 -4 4 -14 1 -22 -6 -13 -10 -14 -9 -5 8 6 11
11 22 11 25 -2 21 16 51 28 46 8 -3 13 -2 10 2 -3 5 4 23 15 41 17 28 24 32
45 27 17 -5 23 -3 19 4 -3 5 -12 10 -20 10 -8 0 -11 7 -8 20 6 21 -53 136
-122 240 -24 36 -95 121 -157 190 -160 178 -173 196 -159 226 11 26 31 24 31
-2z m1020 -30 c0 -6 7 -25 15 -40 8 -16 15 -38 14 -49 0 -20 -34 54 -50 110
-8 28 -7 29 6 11 8 -11 15 -25 15 -32z m-800 -82 c0 -5 -7 -17 -16 -28 -8 -10
-14 -14 -11 -9 2 6 7 18 10 28 7 17 17 23 17 9z m-197 -139 c42 -68 99 -168
126 -223 51 -103 79 -176 40 -105 -12 22 -24 34 -27 27 -2 -7 -19 19 -38 58
-18 39 -31 78 -28 88 5 14 4 14 -4 3 -8 -12 -15 -7 -32 23 -13 20 -24 35 -27
33 -2 -3 6 -40 18 -83 45 -170 89 -339 89 -349 0 -5 -5 -3 -10 5 -8 12 -10 10
-10 -9 0 -13 -2 -22 -5 -19 -9 9 -96 322 -106 382 -5 32 -25 106 -44 163 -34
101 -45 158 -26 138 4 -6 42 -65 84 -132z m707 0 c0 -44 -1 -46 -16 -31 -15
14 -15 21 -4 47 7 17 14 31 16 31 2 0 4 -21 4 -47z m76 -10 c-10 -10 -19 5
-10 18 6 11 8 11 12 0 2 -7 1 -15 -2 -18z m-104 -31 c-7 -2 -12 -8 -12 -13 0
-4 7 -6 15 -3 8 4 15 2 15 -4 0 -6 -8 -9 -17 -7 -10 1 -24 -3 -32 -9 -10 -8
-9 -2 3 22 10 20 21 30 28 25 9 -5 9 -8 0 -11z m-740 -497 l-3 -290 -27 -40
c-15 -22 -32 -51 -39 -65 -11 -23 -11 -23 -6 10 3 19 14 47 24 62 17 23 19 47
19 185 0 253 11 468 23 446 7 -11 10 -124 9 -308z m623 285 c-17 -34 -22 -37
-22 -15 0 8 4 15 9 15 5 0 7 4 4 9 -5 8 3 15 22 20 1 1 -4 -12 -13 -29z m-42
-70 c3 -11 1 -18 -4 -14 -5 3 -9 12 -9 20 0 20 7 17 13 -6z m-94 -174 c-7 -14
-17 -26 -24 -26 -6 0 -18 -11 -25 -25 -7 -14 -15 -23 -18 -20 -3 2 13 27 34
54 40 54 52 60 33 17z m-101 -146 c-5 -17 -14 -33 -19 -36 -8 -5 4 37 17 57
11 19 12 8 2 -21z m-478 -344 c0 -2 -7 -7 -16 -10 -8 -3 -12 -2 -9 4 6 10 25
14 25 6z m103 -132 c-51 -103 -220 -394 -230 -394 -3 0 5 17 18 38 35 59 184
327 221 397 51 100 44 68 -9 -41z m-147 49 c-3 -14 -9 -29 -14 -32 -5 -3 -17
-29 -26 -58 -9 -28 -24 -54 -32 -57 -9 -3 -14 -2 -12 2 9 23 83 172 86 172 1
0 0 -12 -2 -27z m-179 -375 c-3 -8 -6 -5 -6 6 -1 11 2 17 5 13 3 -3 4 -12 1
-19z m-25 -66 c-7 -2 -12 -14 -12 -27 0 -13 -5 -27 -10 -30 -6 -4 -22 -29 -36
-57 -40 -79 -39 -50 2 38 42 92 56 113 63 93 2 -7 -1 -15 -7 -17z m111 -27
c-3 -9 -8 -14 -10 -11 -3 3 -2 9 2 15 9 16 15 13 8 -4z"/>
<path d="M2445 6734 c6 -5 23 -20 40 -34 29 -24 29 -24 10 -2 -11 13 -29 28
-40 34 -11 6 -15 6 -10 2z"/>
<path d="M3168 6203 c7 -3 16 -2 19 1 4 3 -2 6 -13 5 -11 0 -14 -3 -6 -6z"/>
<path d="M5025 5160 c-3 -5 -1 -10 4 -10 6 0 11 5 11 10 0 6 -2 10 -4 10 -3 0
-8 -4 -11 -10z"/>
<path d="M4891 8424 c0 -11 3 -14 6 -6 3 7 2 16 -1 19 -3 4 -6 -2 -5 -13z"/>
<path d="M4420 8216 c0 -10 28 -13 41 -5 10 6 7 9 -13 9 -16 0 -28 -2 -28 -4z"/>
<path d="M4993 8100 c24 -82 42 -130 51 -127 5 2 16 13 24 25 13 20 13 22 -7
22 -14 0 -28 14 -46 48 -15 26 -24 40 -22 32z"/>
<path d="M1850 8066 c0 -2 7 -7 16 -10 8 -3 12 -2 9 4 -6 10 -25 14 -25 6z"/>
<path d="M3200 8040 c0 -9 118 -3 129 6 2 2 -26 4 -62 4 -37 0 -67 -4 -67 -10z"/>
<path d="M3628 8043 c7 -3 16 -2 19 1 4 3 -2 6 -13 5 -11 0 -14 -3 -6 -6z"/>
<path d="M3870 7995 c7 -8 16 -15 21 -15 5 0 9 7 9 15 0 9 -9 15 -21 15 -18 0
-19 -2 -9 -15z"/>
<path d="M5131 7920 c0 -14 4 -34 9 -45 8 -18 9 -18 9 5 0 14 -4 34 -9 45 -8
18 -9 18 -9 -5z"/>
<path d="M5152 7815 c0 -16 2 -22 5 -12 2 9 2 23 0 30 -3 6 -5 -1 -5 -18z"/>
<path d="M2150 7806 c0 -2 8 -10 18 -17 15 -13 16 -12 3 4 -13 16 -21 21 -21
13z"/>
<path d="M5171 7714 c0 -11 3 -14 6 -6 3 7 2 16 -1 19 -3 4 -6 -2 -5 -13z"/>
<path d="M5171 7604 c0 -11 3 -14 6 -6 3 7 2 16 -1 19 -3 4 -6 -2 -5 -13z"/>
<path d="M5120 7522 c-54 -71 -57 -81 -11 -37 47 44 65 71 54 78 -5 3 -24 -16
-43 -41z"/>
<path d="M4905 7240 c-3 -5 -1 -10 4 -10 6 0 11 5 11 10 0 6 -2 10 -4 10 -3 0
-8 -4 -11 -10z"/>
<path d="M4932 7160 c-10 -17 -10 -20 3 -20 8 0 15 2 15 4 0 2 3 11 6 20 9 23
-9 20 -24 -4z"/>
<path d="M915 7040 c3 -5 8 -10 11 -10 2 0 4 5 4 10 0 6 -5 10 -11 10 -5 0 -7
-4 -4 -10z"/>
<path d="M4856 7015 c-9 -26 -7 -32 5 -12 6 10 9 21 6 23 -2 3 -7 -2 -11 -11z"/>
<path d="M4950 6846 c0 -2 7 -7 16 -10 8 -3 12 -2 9 4 -6 10 -25 14 -25 6z"/>
<path d="M5022 6635 c-1 -105 3 -147 14 -170 11 -24 13 -25 7 -5 -3 14 -9 90
-13 170 l-6 145 -2 -140z"/>
<path d="M573 6535 c0 -22 2 -30 4 -17 2 12 2 30 0 40 -3 9 -5 -1 -4 -23z"/>
<path d="M561 6460 c-1 -8 -4 -26 -7 -40 -5 -22 -4 -23 6 -7 6 10 9 28 7 40
-2 12 -5 15 -6 7z"/>
<path d="M5077 6349 c4 -13 8 -18 11 -10 2 7 -1 18 -6 23 -8 8 -9 4 -5 -13z"/>
<path d="M5300 5790 c6 -11 13 -20 16 -20 2 0 0 9 -6 20 -6 11 -13 20 -16 20
-2 0 0 -9 6 -20z"/>
<path d="M5350 5706 c0 -2 8 -10 18 -17 15 -13 16 -12 3 4 -13 16 -21 21 -21
13z"/>
<path d="M326 5498 c-24 -78 -34 -170 -17 -152 5 5 13 44 18 87 9 71 8 95 -1
65z"/>
<path d="M291 5294 c0 -11 3 -14 6 -6 3 7 2 16 -1 19 -3 4 -6 -2 -5 -13z"/>
<path d="M5322 5235 c0 -16 2 -22 5 -12 2 9 2 23 0 30 -3 6 -5 -1 -5 -18z"/>
<path d="M5341 5154 c0 -11 3 -14 6 -6 3 7 2 16 -1 19 -3 4 -6 -2 -5 -13z"/>
<path d="M5361 5054 c0 -11 3 -14 6 -6 3 7 2 16 -1 19 -3 4 -6 -2 -5 -13z"/>
<path d="M5323 4945 c-3 -9 -3 -18 -1 -21 3 -3 8 4 11 16 6 23 -1 27 -10 5z"/>
<path d="M5290 4828 c0 -19 2 -20 10 -8 13 19 13 30 0 30 -5 0 -10 -10 -10
-22z"/>
<path d="M5292 4700 c0 -14 2 -19 5 -12 2 6 2 18 0 25 -3 6 -5 1 -5 -13z"/>
<path d="M5160 4275 c0 -5 5 -17 10 -25 5 -8 10 -10 10 -5 0 6 -5 17 -10 25
-5 8 -10 11 -10 5z"/>
<path d="M5200 4174 c0 -6 7 -19 16 -30 14 -18 14 -18 3 6 -14 31 -19 36 -19
24z"/>
<path d="M136 3932 c-2 -4 -1 -14 5 -22 7 -12 9 -10 9 8 0 23 -5 28 -14 14z"/>
<path d="M5259 3828 c-6 -13 -28 -46 -49 -74 -49 -65 -93 -150 -87 -166 3 -9
7 -6 12 7 20 53 52 114 82 154 35 45 67 101 59 101 -3 0 -11 -10 -17 -22z"/>
<path d="M47 3576 c-19 -59 -22 -91 -7 -65 11 18 32 110 27 115 -2 2 -11 -20
-20 -50z"/>
<path d="M5101 3513 c0 -31 2 -34 9 -18 12 28 12 55 0 55 -5 0 -10 -17 -9 -37z"/>
<path d="M5081 3395 c0 -35 1 -37 10 -17 6 15 5 30 -1 40 -7 13 -9 8 -9 -23z"/>
<path d="M4935 3050 c-8 -14 4 -68 17 -76 16 -10 41 21 34 42 -7 24 -43 47
-51 34z"/>
<path d="M4832 2888 c-18 -18 -15 -49 8 -83 13 -19 20 -24 20 -14 0 9 3 29 6
45 7 37 -15 71 -34 52z"/>
<path d="M4768 2802 c-41 -47 -51 -92 -20 -92 12 0 10 -4 -8 -13 -31 -15 -36
-70 -7 -75 12 -3 17 3 17 20 0 13 7 41 14 63 12 34 19 40 45 43 34 4 39 17 17
47 -7 11 -15 27 -17 36 -3 11 -15 3 -41 -29z"/>
<path d="M4708 2594 c-8 -8 2 -37 16 -46 6 -4 19 -8 29 -8 14 0 18 6 15 28 -2
20 -9 28 -28 30 -14 2 -29 0 -32 -4z"/>
<path d="M1134 2075 c65 -61 103 -80 51 -25 -22 23 -53 48 -70 56 -25 12 -22
7 19 -31z"/>
<path d="M1299 1946 c8 -9 24 -22 35 -28 19 -10 20 -10 7 6 -8 9 -24 22 -35
28 -19 10 -20 10 -7 -6z"/>
<path d="M1467 1819 c7 -7 15 -10 18 -7 3 3 -2 9 -12 12 -14 6 -15 5 -6 -5z"/>
<path d="M4310 1500 c-9 -6 -10 -10 -3 -10 6 0 15 5 18 10 8 12 4 12 -15 0z"/>
</g>
</svg>
